fira-math-medium.sfdir
StartChar: exclam
Encoding: 33 33 0
Width: 241
Flags: W
HStem: -15 162<97.5 143> 671 20G<50 188 188 188>
VStem: 39 162<44 88.5> 58 122.5
LayerCount: 2
Fore
SplineSet
188 691 m 1xd0
 173 244 l 1
 66 244 l 1
 50 691 l 1
 188 691 l 1xd0
120 147 m 0xe0
 166 147 201 111 201 66 c 0
 201 22 166 -15 120 -15 c 0
 75 -15 39 22 39 66 c 0
 39 111 75 147 120 147 c 0xe0
EndSplineSet
EndChar
StartChar: quotedbl
Encoding: 34 34 1
Width: 421
Flags: W
HStem: 420 271<71 71 71 159 262 350 262 262>
VStem: 62 105.5 253.5 105.5
LayerCount: 2
Fore
SplineSet
71 420 m 1
 53 691 l 1
 176 691 l 1
 159 420 l 1
 71 420 l 1
262 420 m 1
 245 691 l 1
 368 691 l 1
 350 420 l 1
 262 420 l 1
EndSplineSet
EndChar
StartChar: uni0023
Encoding: 35 35 3
Width: 539
Flags: W
HStem: 0 21G<55 161 55 55 286 393 286 286> 152 88<15 75 15 86 193 306 425 487> 443 89<52 113 52 125 231 345 463 524>
VStem: 15 509<152 443 240 443>
LayerCount: 2
Fore
SplineSet
524 443 m 1
 452 443 l 1
 425 240 l 1
 487 240 l 1
 487 152 l 1
 413 152 l 1
 393 0 l 1
 286 0 l 1
 306 152 l 1
 181 152 l 1
 161 0 l 1
 55 0 l 1
 75 152 l 1
 15 152 l 1
 15 240 l 1
 86 240 l 1
 113 443 l 1
 52 443 l 1
 52 532 l 1
 125 532 l 1
 143 673 l 1
 250 673 l 1
 231 532 l 1
 356 532 l 1
 375 673 l 1
 482 673 l 1
 463 532 l 1
 524 532 l 1
 524 443 l 1
193 240 m 1
 318 240 l 1
 345 443 l 1
 220 443 l 1
 193 240 l 1
EndSplineSet
EndChar
StartChar: percent
Encoding: 37 37 4
Width: 844
Flags: W
HStem: -15 80<608.5 666 608.5 685.5> 255 80<608.5 666> 335 80<178.5 236 178.5 255.5> 605 80<178.5 236>
VStem: 37 98<486.5 534 486.5 563.5> 279 99<486 533.5> 466 99<136.5 184 136.5 213.5> 709 98<136 183.5>
LayerCount: 2
Fore
SplineSet
613 716 m 1xdf
 696 663 l 1
 232 -36 l 1
 150 17 l 1
 613 716 l 1xdf
207 685 m 0
 304 685 378 617 378 510 c 0
 378 403 304 335 207 335 c 0xbf
 111 335 37 403 37 510 c 0
 37 617 111 685 207 685 c 0
207 605 m 0
 150 605 135 558 135 510 c 0
 135 463 150 415 207 415 c 0xbf
 265 415 279 462 279 510 c 0
 279 557 265 605 207 605 c 0
637 335 m 0
 734 335 807 267 807 160 c 0
 807 53 734 -15 637 -15 c 0
 540 -15 466 53 466 160 c 0
 466 267 540 335 637 335 c 0
637 255 m 0
 580 255 565 208 565 160 c 0
 565 113 580 65 637 65 c 0
 695 65 709 112 709 160 c 0
 709 207 695 255 637 255 c 0
EndSplineSet
EndChar
StartChar: uni0026
Encoding: 38 38 6
Width: 746
Flags: W
HStem: -15 95<289 350.5> 619 87<285 332.5>
VStem: 69 134<150.5 206.5 150.5 218.5> 110 124<524 567 524 588> 385 123<521.5 568>
LayerCount: 2
Fore
SplineSet
308 706 m 0xe8
 431 706 508 639 508 550 c 0
 508 465 448 411 372 363 c 1
 526 218 l 1
 546 261 565 314 579 374 c 1
 690 341 l 1
 664 263 633 200 599 150 c 1
 716 44 l 1
 613 -15 l 1
 526 69 l 1
 466 13 395 -15 306 -15 c 0
 166 -15 69 60 69 176 c 0xe8
 69 261 119 317 207 373 c 1
 142 436 110 479 110 545 c 0xd8
 110 631 176 706 308 706 c 0xe8
309 619 m 0xd8
 261 619 234 589 234 545 c 0
 234 503 256 474 301 431 c 1
 354 465 385 498 385 545 c 0
 385 591 356 619 309 619 c 0xd8
280 304 m 1xe8
 227 268 203 231 203 182 c 0
 203 119 252 80 326 80 c 0
 379 80 420 99 458 133 c 1
 280 304 l 1xe8
EndSplineSet
EndChar
StartChar: quotesingle
Encoding: 39 39 6
Width: 230
Flags: W
HStem: 420 271<71 71 71 159>
VStem: 62 105.5
LayerCount: 2
Fore
SplineSet
71 420 m 1
 53 691 l 1
 176 691 l 1
 159 420 l 1
 71 420 l 1
EndSplineSet
EndChar
StartChar: parenleft
Encoding: 40 40 7
Width: 324
Flags: W
HStem: -152 1004<218 218>
VStem: 28 131<251 449.5 251 469>
LayerCount: 2
Fore
SplineSet
218 852 m 1
 300 797 l 1
 208 665 159 549 159 350 c 0
 159 152 208 35 300 -97 c 1
 218 -152 l 1
 119 -14 28 112 28 350 c 0
 28 588 119 714 218 852 c 1
EndSplineSet
EndChar
StartChar: uni002B
Encoding: 43 43 11
Width: 516
Flags: W
HStem: 281 101<55 203 55 203 313 462> 515 20G<203 313 313 313>
VStem: 203 110<128 281 128 281 382 535>
LayerCount: 2
Fore
SplineSet
313 535 m 1
 313 382 l 1
 462 382 l 1
 462 281 l 1
 313 281 l 1
 313 128 l 1
 203 128 l 1
 203 281 l 1
 55 281 l 1
 55 382 l 1
 203 382 l 1
 203 535 l 1
 313 535 l 1
EndSplineSet
EndChar
StartChar: comma
Encoding: 44 44 11
Width: 240
Flags: W
HStem: 0 21G<73 73>
VStem: 39 162<53 89 53 89.5>
LayerCount: 2
Fore
SplineSet
119 147 m 0
 166 147 201 112 201 66 c 0
 201 40 193 16 175 -24 c 2
 110 -172 l 1
 32 -172 l 1
 73 0 l 1
 51 15 39 39 39 67 c 0
 39 112 74 147 119 147 c 0
EndSplineSet
EndChar
StartChar: hyphen
Encoding: 45 45 12
Width: 405
Flags: W
HStem: 262 102<52 354 52 354>
VStem: 52 302<262 364 262 364>
LayerCount: 2
Fore
SplineSet
52 262 m 1
 52 364 l 1
 354 364 l 1
 354 262 l 1
 52 262 l 1
EndSplineSet
EndChar
StartChar: period
Encoding: 46 46 13
Width: 240
Flags: W
HStem: -15 162<96.5 142>
VStem: 39 162<44 88.5>
LayerCount: 2
Fore
SplineSet
119 147 m 0
 165 147 201 111 201 66 c 0
 201 22 165 -15 119 -15 c 0
 74 -15 39 22 39 66 c 0
 39 111 74 147 119 147 c 0
EndSplineSet
EndChar
StartChar: one
Encoding: 49 49 16
Width: 450
Flags: W
HStem: 0 21G<229 355 229 229> 519 20G<23 23>
VStem: 229 126<0 544 544 544>
LayerCount: 2
Fore
SplineSet
355 673 m 1
 355 0 l 1
 229 0 l 1
 229 544 l 1
 79 453 l 1
 23 539 l 1
 242 673 l 1
 355 673 l 1
EndSplineSet
EndChar
StartChar: uni0033
Encoding: 51 51 19
Width: 510
Flags: W
HStem: -15 100<189.5 252 189.5 300> 306 91<176 212 212 214 161 212> 587 98<195 251>
VStem: 320 125<472 526.5> 335 132<163 238>
LayerCount: 2
Fore
SplineSet
232 685 m 0xf0
 371 685 445 607 445 514 c 0xf0
 445 430 393 377 314 356 c 1
 398 348 467 296 467 192 c 0
 467 77 377 -15 223 -15 c 0
 131 -15 57 19 5 82 c 1
 76 150 l 1
 121 105 163 85 216 85 c 0
 288 85 335 128 335 198 c 0xe8
 335 278 290 306 214 306 c 2
 161 306 l 1
 176 397 l 1
 212 397 l 2
 275 397 320 433 320 499 c 0
 320 554 281 587 221 587 c 0
 169 587 128 568 86 528 c 1
 21 599 l 1
 81 656 151 685 232 685 c 0xf0
EndSplineSet
EndChar
StartChar: four
Encoding: 52 52 19
Width: 550
Flags: W
HStem: 0 21G<319 444 319 319> 154 98<166 319 444 525>
VStem: 319 125<0 154 0 154>
LayerCount: 2
Fore
SplineSet
525 252 m 1
 525 154 l 1
 444 154 l 1
 444 0 l 1
 319 0 l 1
 319 154 l 1
 33 154 l 1
 33 242 l 1
 229 686 l 1
 338 645 l 1
 166 252 l 1
 320 252 l 1
 333 421 l 1
 444 421 l 1
 444 252 l 1
 525 252 l 1
EndSplineSet
EndChar
StartChar: five
Encoding: 53 53 20
Width: 520
Flags: W
HStem: -15 99<200 265.5 200 307> 344 92<272.5 273> 578 95<187 439 187 187>
VStem: 64 123<411 578 411 673 411 673> 350 132<175.5 265.5>
LayerCount: 2
Fore
SplineSet
454 673 m 1
 439 578 l 1
 187 578 l 1
 187 411 l 1
 221 428 256 436 289 436 c 0
 401 436 482 356 482 219 c 0
 482 81 383 -15 231 -15 c 0
 137 -15 71 23 19 80 c 1
 92 148 l 1
 129 107 172 84 228 84 c 0
 303 84 350 132 350 219 c 0
 350 312 304 344 242 344 c 0
 211 344 186 337 155 321 c 1
 64 321 l 1
 64 673 l 1
 454 673 l 1
EndSplineSet
EndChar
StartChar: uni0036
Encoding: 54 54 22
Width: 550
Flags: W
HStem: -15 95<249.5 322 249.5 356> 355 93<299.5 325.5> 590 95<280.5 341>
VStem: 45 133 389 129<183 275>
LayerCount: 2
Fore
SplineSet
328 448 m 0
 433 448 518 372 518 229 c 0
 518 88 424 -15 288 -15 c 0
 116 -15 45 118 45 311 c 0
 45 536 150 685 321 685 c 0
 380 685 429 668 468 642 c 1
 420 563 l 1
 391 580 359 590 323 590 c 0
 238 590 184 509 177 374 c 1
 220 426 271 448 328 448 c 0
288 80 m 0
 356 80 389 139 389 227 c 0
 389 323 354 355 297 355 c 0
 251 355 209 328 178 286 c 1
 180 142 211 80 288 80 c 0
EndSplineSet
EndChar
StartChar: seven
Encoding: 55 55 22
Width: 457
Flags: W
HStem: -13 21G<185 185> 574 99<18 302 18 434>
VStem: 18 416<583 673 583 673 583 673>
LayerCount: 2
Fore
SplineSet
434 673 m 1
 434 583 l 1
 185 -13 l 1
 68 25 l 1
 302 574 l 1
 18 574 l 1
 18 673 l 1
 434 673 l 1
EndSplineSet
EndChar
StartChar: uni003A
Encoding: 58 58 26
Width: 240
Flags: W
HStem: -15 162<96.5 142> 341 162<96.5 142>
VStem: 39 162<44 88.5 399.5 444>
LayerCount: 2
Fore
SplineSet
119 503 m 0
 165 503 201 466 201 422 c 0
 201 377 165 341 119 341 c 0
 74 341 39 377 39 422 c 0
 39 466 74 503 119 503 c 0
119 147 m 0
 165 147 201 111 201 66 c 0
 201 22 165 -15 119 -15 c 0
 74 -15 39 22 39 66 c 0
 39 111 74 147 119 147 c 0
EndSplineSet
EndChar
StartChar: semicolon
Encoding: 59 59 26
Width: 240
Flags: W
HStem: 0 21G<73 73> 341 162<96.5 142>
VStem: 39 162<53 89 53 89.5 399.5 444>
LayerCount: 2
Fore
SplineSet
119 503 m 0
 165 503 201 466 201 422 c 0
 201 377 165 341 119 341 c 0
 74 341 39 377 39 422 c 0
 39 466 74 503 119 503 c 0
119 147 m 0
 166 147 201 112 201 66 c 0
 201 40 193 16 175 -24 c 2
 110 -172 l 1
 32 -172 l 1
 73 0 l 1
 51 15 39 39 39 67 c 0
 39 112 74 147 119 147 c 0
EndSplineSet
EndChar
StartChar: equal
Encoding: 61 61 28
Width: 510
Flags: W
HStem: 179 102<55 456 55 456> 382 101<55 456 55 456>
VStem: 55 401<179 281 179 281 382 483 179 483>
LayerCount: 2
Fore
SplineSet
55 382 m 1
 55 483 l 1
 456 483 l 1
 456 382 l 1
 55 382 l 1
55 179 m 1
 55 281 l 1
 456 281 l 1
 456 179 l 1
 55 179 l 1
EndSplineSet
EndChar
StartChar: uni003E
Encoding: 62 62 30
Width: 510
Flags: W
HStem: 101 464<84 84>
VStem: 42 427<198 392 273 470>
LayerCount: 2
Fore
SplineSet
84 565 m 1
 469 392 l 1
 469 273 l 1
 84 101 l 1
 42 198 l 1
 362 333 l 1
 42 470 l 1
 84 565 l 1
EndSplineSet
EndChar
StartChar: at
Encoding: 64 64 31
Width: 1020
Flags: W
HStem: -218 98<414 562.5 414 569.5> 6 86<730 777.5 730 820> 9 85<469.5 516.5> 413 85<491 536.5> 609 97<416 632>
VStem: 58 120<132.5 348 132.5 374.5> 301 118<184 296 184 316> 582 111<161 203 203 401 401 401> 842 120<230.5 401.5>
LayerCount: 2
Fore
SplineSet
526 706 m 0xdf80
 808 706 962 519 962 312 c 0
 962 139 887 6 753 6 c 0xdf80
 672 6 633 61 622 109 c 1
 599 56 554 9 479 9 c 0xbf80
 361 9 301 102 301 232 c 0
 301 400 388 498 527 498 c 0
 581 498 637 485 693 455 c 1
 693 203 l 2
 693 118 711 92 749 92 c 0
 806 92 842 151 842 310 c 0
 842 493 738 609 526 609 c 0
 306 609 178 455 178 241 c 0
 178 24 301 -120 527 -120 c 0
 598 -120 668 -104 721 -85 c 1
 753 -177 l 1
 689 -201 613 -218 526 -218 c 0
 245 -218 58 -39 58 241 c 0
 58 508 251 706 526 706 c 0xdf80
495 94 m 0xbf80
 546 94 571 133 582 161 c 1
 582 401 l 1
 564 409 548 413 525 413 c 0
 457 413 419 360 419 232 c 0
 419 136 444 94 495 94 c 0xbf80
EndSplineSet
EndChar
StartChar: uni0045
Encoding: 69 69 37
Width: 530
Flags: W
HStem: 0 99<213 486 213 486> 302 98<213 435 213 435> 593 98<213 468 213 213>
VStem: 81 132<99 302 400 593>
LayerCount: 2
Fore
SplineSet
482 691 m 1
 468 593 l 1
 213 593 l 1
 213 400 l 1
 435 400 l 1
 435 302 l 1
 213 302 l 1
 213 99 l 1
 486 99 l 1
 486 0 l 1
 81 0 l 1
 81 691 l 1
 482 691 l 1
EndSplineSet
EndChar
StartChar: uni0046
Encoding: 70 70 38
Width: 489
Flags: W
HStem: 0 21G<81 81 81 213> 288 98<213 426 213 426> 593 98<213 458 213 213>
VStem: 81 132<0 288 386 593>
LayerCount: 2
Fore
SplineSet
81 0 m 1
 81 691 l 1
 472 691 l 1
 458 593 l 1
 213 593 l 1
 213 386 l 1
 426 386 l 1
 426 288 l 1
 213 288 l 1
 213 0 l 1
 81 0 l 1
EndSplineSet
EndChar
StartChar: G
Encoding: 71 71 38
Width: 638
Flags: W
HStem: -15 101<292 365.5 292 391.5> 293 98<352 456 352 352> 606 100<315 393.5>
VStem: 43 139<251.5 439 251.5 463> 456 130<113 293 293 293>
LayerCount: 2
Fore
SplineSet
360 706 m 0
 456 706 522 674 580 625 c 1
 509 551 l 1
 462 588 423 606 364 606 c 0
 266 606 182 532 182 346 c 0
 182 157 238 86 346 86 c 0
 385 86 423 94 456 113 c 1
 456 293 l 1
 352 293 l 1
 338 391 l 1
 586 391 l 1
 586 53 l 1
 517 11 435 -15 348 -15 c 0
 151 -15 43 109 43 346 c 0
 43 580 187 706 360 706 c 0
EndSplineSet
EndChar
StartChar: H
Encoding: 72 72 39
Width: 672
Flags: W
HStem: 0 21G<81 213 81 81 459 592 459 459> 309 105<213 459 213 459> 671 20G<81 213 213 213 459 592 592 592>
VStem: 81 132<0 309 0 414 414 691> 459 133<0 309 309 309 414 691 0 691>
LayerCount: 2
Fore
SplineSet
459 0 m 1
 459 309 l 1
 213 309 l 1
 213 0 l 1
 81 0 l 1
 81 691 l 1
 213 691 l 1
 213 414 l 1
 459 414 l 1
 459 691 l 1
 592 691 l 1
 592 0 l 1
 459 0 l 1
EndSplineSet
EndChar
StartChar: J
Encoding: 74 74 41
Width: 312
Flags: W
HStem: 671 20G<102 235 235 235>
VStem: 102 133<106 691>
LayerCount: 2
Fore
SplineSet
235 691 m 1
 235 101 l 2
 235 -60 146 -118 32 -155 c 1
 -3 -60 l 1
 87 -25 102 19 102 106 c 2
 102 691 l 1
 235 691 l 1
EndSplineSet
EndChar
StartChar: uni004C
Encoding: 76 76 44
Width: 506
Flags: W
HStem: 0 108<213 475> 671 20G<81 213 213 213>
VStem: 81 132<108 691 108 691 108 691>
LayerCount: 2
Fore
SplineSet
213 691 m 1
 213 108 l 1
 490 108 l 1
 475 0 l 1
 81 0 l 1
 81 691 l 1
 213 691 l 1
EndSplineSet
EndChar
StartChar: uni004E
Encoding: 78 78 46
Width: 672
Flags: W
HStem: 0 21G<81 201 81 81 420 591 420 420> 0 131<489 489 489 591 420 489> 559 132<183 183> 671 20G<81 248 248 248 471 591 591 591>
VStem: 81 120<0 282 0 691> 471 120<367 691 0 691>
LayerCount: 2
Fore
SplineSet
591 691 m 1x9c
 591 0 l 1
 420 0 l 1
 183 559 l 1xac
 190 498 201 410 201 282 c 2
 201 0 l 1
 81 0 l 1
 81 691 l 1
 248 691 l 1
 489 131 l 1x5c
 483 169 471 269 471 367 c 2
 471 691 l 1
 591 691 l 1x9c
EndSplineSet
EndChar
StartChar: P
Encoding: 80 80 47
Width: 596
Flags: W
HStem: 0 21G<81 213 81 81> 241 99<213 284 284 294 213 284> 594 97<213 284 213 213>
VStem: 81 132<0 241 0 340 340 594> 427 138<420.5 514.5>
LayerCount: 2
Fore
SplineSet
285 691 m 2
 459 691 565 620 565 471 c 0
 565 312 450 241 294 241 c 2
 213 241 l 1
 213 0 l 1
 81 0 l 1
 81 691 l 1
 285 691 l 2
284 340 m 2
 372 340 427 370 427 471 c 0
 427 558 374 594 284 594 c 2
 213 594 l 1
 213 340 l 1
 284 340 l 2
EndSplineSet
EndChar
StartChar: uni0051
Encoding: 81 81 49
Width: 691
Flags: W
HStem: -12 54 -12 98<295.5 397.5 295.5 403> 605 101<294.5 398>
VStem: 43 139<252 438 252 458.5> 509 139<261.5 438.5>
LayerCount: 2
Fore
SplineSet
487 42 m 1xb8
 573 42 632 17 684 -20 c 1xb8
 602 -127 l 1
 532 -56 467 -12 339 -12 c 0x78
 161 -12 43 114 43 345 c 0
 43 572 161 706 346 706 c 0
 531 706 648 577 648 346 c 0
 648 177 579 91 487 42 c 1xb8
182 345 m 0x78
 182 159 245 86 346 86 c 0
 449 86 509 159 509 346 c 0
 509 531 450 605 346 605 c 0
 243 605 182 531 182 345 c 0x78
EndSplineSet
EndChar
StartChar: S
Encoding: 83 83 50
Width: 560
Flags: W
HStem: -15 102<227 300 227 348.5> 605 101<257 316.5>
VStem: 45 136<498 550 498 572.5> 390 138<156.5 219>
LayerCount: 2
Fore
SplineSet
280 706 m 0
 381 706 448 676 508 621 c 1
 443 546 l 1
 393 587 345 605 288 605 c 0
 226 605 181 577 181 523 c 0
 181 473 208 451 323 415 c 0
 444 377 528 327 528 197 c 0
 528 73 431 -15 266 -15 c 0
 156 -15 74 24 17 80 c 1
 85 156 l 1
 136 113 191 87 263 87 c 0
 337 87 390 123 390 190 c 0
 390 248 361 274 253 307 c 0
 108 352 45 410 45 515 c 0
 45 630 144 706 280 706 c 0
EndSplineSet
EndChar
StartChar: V
Encoding: 86 86 53
Width: 564
Flags: W
HStem: 0 21G<206 363 206 206> 0 117<287 287 287 363 206 287> 671 20G<-5 137 137 137 433 568 568 568>
VStem: -5 573<691 691>
LayerCount: 2
Fore
SplineSet
568 691 m 1xb0
 363 0 l 1
 206 0 l 1
 -5 691 l 1
 137 691 l 1
 287 117 l 1x70
 433 691 l 1
 568 691 l 1xb0
EndSplineSet
EndChar
StartChar: Y
Encoding: 89 89 56
Width: 574
Flags: W
HStem: 0 21G<220 354 220 220> 671 20G<-2 144 144 144 436 576 576 576>
VStem: 220 134<0 261 261 261>
LayerCount: 2
Fore
SplineSet
576 691 m 1
 354 262 l 1
 354 0 l 1
 220 0 l 1
 220 261 l 1
 -2 691 l 1
 144 691 l 1
 290 370 l 1
 436 691 l 1
 576 691 l 1
EndSplineSet
EndChar
StartChar: bracketleft
Encoding: 91 91 58
Width: 323
Flags: W
HStem: -120 99<169 287 169 287> 720 100<169 287 169 169>
VStem: 48 121<-21 720 -21 820 -21 820>
LayerCount: 2
Fore
SplineSet
287 820 m 1
 287 720 l 1
 169 720 l 1
 169 -21 l 1
 287 -21 l 1
 287 -120 l 1
 48 -120 l 1
 48 820 l 1
 287 820 l 1
EndSplineSet
EndChar
StartChar: backslash
Encoding: 92 92 59
Width: 520
Flags: W
HStem: -108 920<198 321>
VStem: 88 344
LayerCount: 2
Fore
SplineSet
198 812 m 1
 432 -82 l 1
 321 -108 l 1
 88 787 l 1
 198 812 l 1
EndSplineSet
EndChar
StartChar: bracketright
Encoding: 93 93 60
Width: 323
Flags: W
HStem: -120 99<36 154 36 275 36 154> 721 99<36 154 36 275>
VStem: 154 121<-21 721 721 721>
LayerCount: 2
Fore
SplineSet
275 820 m 1
 275 -120 l 1
 36 -120 l 1
 36 -21 l 1
 154 -21 l 1
 154 721 l 1
 36 721 l 1
 36 820 l 1
 275 820 l 1
EndSplineSet
EndChar
StartChar: asciicircum
Encoding: 94 94 61
Width: 550
Flags: W
HStem: 527 315<28 333 28 333 217 522 217 393>
VStem: 28 494<527 527>
LayerCount: 2
Fore
SplineSet
333 842 m 1
 522 527 l 1
 393 527 l 1
 274 741 l 1
 158 527 l 1
 28 527 l 1
 217 842 l 1
 333 842 l 1
EndSplineSet
EndChar
StartChar: underscore
Encoding: 95 95 62
Width: 520
Flags: W
HStem: -158 103<13 507 13 507>
VStem: 13 494<-158 -55 -158 -55>
LayerCount: 2
Fore
SplineSet
13 -158 m 1
 13 -55 l 1
 507 -55 l 1
 507 -158 l 1
 13 -158 l 1
EndSplineSet
EndChar
StartChar: uni0060
Encoding: 96 96 64
Width: 322
Flags: W
HStem: 675 20G<292 292>
VStem: 30 262<695 720>
LayerCount: 2
Fore
SplineSet
82 820 m 1
 292 695 l 1
 255 630 l 1
 30 720 l 1
 82 820 l 1
EndSplineSet
EndChar
StartChar: uni0063
Encoding: 99 99 67
Width: 478
Flags: W
HStem: -15 104<262 318 262 325> 443 101<261 318>
VStem: 43 136<198 325.5 198 344.5>
LayerCount: 2
Fore
SplineSet
290 544 m 0
 359 544 412 525 462 482 c 1
 405 405 l 1
 370 431 338 443 298 443 c 0
 224 443 179 389 179 262 c 0
 179 134 226 89 298 89 c 0
 338 89 366 102 405 127 c 1
 462 46 l 1
 414 7 359 -15 291 -15 c 0
 138 -15 43 91 43 260 c 0
 43 429 138 544 290 544 c 0
EndSplineSet
EndChar
StartChar: uni0065
Encoding: 101 101 69
Width: 549
Flags: W
HStem: -15 97<271 329.5 271 335> 225 83<176 384 176 508 176 384> 453 91<251 317>
VStem: 43 133<225 225 225 308 225 341.5> 384 127<308 314 314 357.5>
LayerCount: 2
Fore
SplineSet
511 277 m 0
 511 260 509 239 508 225 c 1
 176 225 l 1
 185 117 236 82 306 82 c 0
 353 82 392 97 438 129 c 1
 491 56 l 1
 439 14 375 -15 295 -15 c 0
 131 -15 43 94 43 261 c 0
 43 422 128 544 278 544 c 0
 426 544 511 444 511 277 c 0
384 308 m 1
 384 314 l 2
 384 401 353 453 281 453 c 0
 221 453 183 413 176 308 c 1
 384 308 l 1
EndSplineSet
EndChar
StartChar: j
Encoding: 106 106 73
Width: 279
Flags: W
HStem: -217 21G<11 11> 509 20G<76 204 204 204> 642 155<116.5 164>
VStem: 60 161<697.5 741> 76 128<39 47 47 529>
LayerCount: 2
Fore
SplineSet
140 797 m 0xf0
 188 797 221 763 221 719 c 0
 221 676 188 642 140 642 c 0
 93 642 60 676 60 719 c 0
 60 763 93 797 140 797 c 0xf0
204 529 m 1xe8
 204 47 l 2
 204 -115 130 -169 11 -217 c 1
 -30 -124 l 1
 39 -92 76 -65 76 39 c 2
 76 529 l 1
 204 529 l 1xe8
EndSplineSet
EndChar
StartChar: k
Encoding: 107 107 74
Width: 532
Flags: W
HStem: 0 21G<75 203 75 75 390 390 390 537> 509 20G<385 520 520 520> 721 20G<75 75> 735 20G<203 203>
VStem: 75 128<0 741 741 741>
LayerCount: 2
Fore
SplineSet
203 755 m 1xd8
 203 0 l 1
 75 0 l 1
 75 741 l 1xe8
 203 755 l 1xd8
520 529 m 1
 344 296 l 1
 537 0 l 1
 390 0 l 1
 208 289 l 1
 385 529 l 1
 520 529 l 1
EndSplineSet
EndChar
StartChar: l
Encoding: 108 108 75
Width: 297
Flags: W
HStem: -15 21G<157.5 214.5> -15 103<157.5 232.5> 721 20G<69 69> 735 20G<197 197>
VStem: 69 128<121 125 125 741 741 741>
LayerCount: 2
Fore
SplineSet
198 -15 m 0x98
 117 -15 69 34 69 121 c 2
 69 741 l 1xa8
 197 755 l 1
 197 125 l 2
 197 100 205 88 227 88 c 0
 238 88 248 90 256 93 c 1x58
 284 3 l 1
 262 -7 231 -15 198 -15 c 0x98
EndSplineSet
EndChar
StartChar: m
Encoding: 109 109 76
Width: 845
Flags: W
HStem: 0 21G<75 203 75 75 362 490 362 362 648 776 648 648> 448 96<315.5 319.5 601 606> 509 20G<75 186 186 186>
VStem: 75 128<0 368 0 529> 362 128<0 363 363 368 0 396> 648 128<0 363 363 383 0 396>
LayerCount: 2
Fore
SplineSet
636 544 m 0xdc
 720 544 776 483 776 383 c 2
 776 0 l 1
 648 0 l 1
 648 363 l 2
 648 429 622 448 590 448 c 0
 546 448 519 417 490 368 c 1
 490 0 l 1
 362 0 l 1
 362 363 l 2
 362 429 335 448 304 448 c 0
 259 448 232 417 203 368 c 1xdc
 203 0 l 1
 75 0 l 1
 75 529 l 1
 186 529 l 1xbc
 196 460 l 1
 234 513 282 544 349 544 c 0
 411 544 457 511 477 455 c 1
 517 510 566 544 636 544 c 0xdc
EndSplineSet
EndChar
StartChar: n
Encoding: 110 110 77
Width: 576
Flags: W
HStem: 0 21G<75 203 75 75 379 507 379 379> 448 96<323.5 334> 509 20G<75 186 186 186>
VStem: 75 128<0 368 0 529> 379 128<0 363 363 383 0 396>
LayerCount: 2
Fore
SplineSet
357 544 m 0xd8
 452 544 507 484 507 383 c 2
 507 0 l 1
 379 0 l 1
 379 363 l 2
 379 429 354 448 314 448 c 0
 268 448 234 417 203 368 c 1xd8
 203 0 l 1
 75 0 l 1
 75 529 l 1
 186 529 l 1xb8
 196 460 l 1
 237 513 290 544 357 544 c 0xd8
EndSplineSet
EndChar
StartChar: p
Encoding: 112 112 79
Width: 589
Flags: W
HStem: -218 21G<75 75> -204 21G<203 203> -15 98<309 335 280 403> 448 96<320.5 343> 509 20G<75 187 187 187>
VStem: 75 128<-204 43 -204 138 138 376> 411 134<201 332>
LayerCount: 2
Fore
SplineSet
349 544 m 0x76
 487 544 545 435 545 266 c 0
 545 104 470 -15 336 -15 c 0
 282 -15 236 4 203 43 c 1
 203 -204 l 1x76
 75 -218 l 1
 75 529 l 1
 187 529 l 1xae
 194 464 l 1
 236 519 292 544 349 544 c 0x76
300 83 m 0
 370 83 411 137 411 265 c 0
 411 399 375 448 311 448 c 0
 266 448 228 417 203 376 c 1
 203 138 l 1
 228 101 260 83 300 83 c 0
EndSplineSet
EndChar
StartChar: uni0071
Encoding: 113 113 81
Width: 592
Flags: W
HStem: -218 21G<517 517> -204 21G<389 389> -15 97<248.5 276> 448 96<255.5 286 190.5 310.5> 509 20G<406 517 517 517>
VStem: 43 135<197 328.5 197 345.5> 389 128<-204 60 60 60 150 392 392 392>
LayerCount: 2
Fore
SplineSet
406 529 m 1x6e
 517 529 l 1
 517 -218 l 1xae
 389 -204 l 1
 389 60 l 1
 356 15 308 -15 244 -15 c 0
 112 -15 43 96 43 264 c 0
 43 427 125 544 256 544 c 0
 316 544 362 519 399 477 c 1x76
 406 529 l 1x6e
280 82 m 0
 327 82 359 105 389 150 c 1
 389 392 l 1
 361 426 332 448 289 448 c 0x76
 222 448 178 392 178 265 c 0
 178 129 217 82 280 82 c 0
EndSplineSet
EndChar
StartChar: r
Encoding: 114 114 81
Width: 392
Flags: W
HStem: 0 21G<75 203 75 75> 418 125<305 329.5> 509 20G<75 186 186 186> 536 7
VStem: 75 128<0 282 0 529>
LayerCount: 2
Fore
SplineSet
336 543 m 0xc8
 355 543 372 541 389 536 c 1x98
 367 412 l 1
 351 416 339 418 320 418 c 0xc8
 256 418 223 371 203 282 c 1
 203 0 l 1
 75 0 l 1
 75 529 l 1
 186 529 l 1xa8
 198 425 l 1
 223 501 274 543 336 543 c 0xc8
EndSplineSet
EndChar
StartChar: t
Encoding: 116 116 83
Width: 375
Flags: W
HStem: -15 103<252.5 270.5> 437 92<5 88 5 88 216 326>
VStem: 88 128<158 161 161 437 529 646 646 646>
LayerCount: 2
Fore
SplineSet
335 107 m 1
 380 25 l 1
 342 -2 294 -15 247 -15 c 0
 143 -14 88 45 88 158 c 2
 88 437 l 1
 5 437 l 1
 5 529 l 1
 88 529 l 1
 88 646 l 1
 216 661 l 1
 216 529 l 1
 339 529 l 1
 326 437 l 1
 216 437 l 1
 216 161 l 2
 216 109 233 88 272 88 c 0
 292 88 312 94 335 107 c 1
EndSplineSet
EndChar
StartChar: v
Encoding: 118 118 85
Width: 504
Flags: W
HStem: 0 21G<177 330 177 177> 0 103<254 254 254 330 177 254> 509 20G<2 141 141 141 370 502 502 502>
VStem: 2 500<529 529>
LayerCount: 2
Fore
SplineSet
502 529 m 1xb0
 330 0 l 1
 177 0 l 1
 2 529 l 1
 141 529 l 1
 254 103 l 1x70
 370 529 l 1
 502 529 l 1xb0
EndSplineSet
EndChar
StartChar: uni0077
Encoding: 119 119 87
Width: 734
Flags: W
HStem: 0 94<214 214 214 286 129 214> 415 114<368 368> 509 20G<12 140 140 140 306 437 437 437 600 723 723 723>
VStem: 12 711<529 529>
LayerCount: 2
Fore
SplineSet
723 529 m 1xb0
 608 0 l 1
 448 0 l 1
 368 415 l 1xd0
 286 0 l 1
 129 0 l 1
 12 529 l 1
 140 529 l 1
 214 94 l 1
 306 529 l 1
 437 529 l 1
 521 94 l 1
 600 529 l 1
 723 529 l 1xb0
EndSplineSet
EndChar
StartChar: uni0078
Encoding: 120 120 88
Width: 500
Flags: W
HStem: 0 21G<-3 138 -3 -3 355 503 355 355> 509 20G<15 161 161 161 340 479 479 479>
VStem: -3 506<0 0>
LayerCount: 2
Fore
SplineSet
326 283 m 1
 503 0 l 1
 355 0 l 1
 246 210 l 1
 138 0 l 1
 -3 0 l 1
 173 279 l 1
 15 529 l 1
 161 529 l 1
 251 349 l 1
 340 529 l 1
 479 529 l 1
 326 283 l 1
EndSplineSet
EndChar
StartChar: z
Encoding: 122 122 89
Width: 444
Flags: W
HStem: 0 100<165 413> 429 100<40 275 40 421>
VStem: 18 408<0 100 92 100>
LayerCount: 2
Fore
SplineSet
421 529 m 1
 421 437 l 1
 165 100 l 1
 426 100 l 1
 413 0 l 1
 18 0 l 1
 18 92 l 1
 275 429 l 1
 40 429 l 1
 40 529 l 1
 421 529 l 1
EndSplineSet
EndChar
StartChar: braceleft
Encoding: 123 123 90
Width: 323
Flags: W
HStem: -138 92<257 288 257 288> 297 105<17 43> 746 92<256.5 288>
VStem: 84 120<19 218 218 228 482 681 681 682>
LayerCount: 2
Fore
SplineSet
288 838 m 1
 288 746 l 1
 225 746 204 729 204 682 c 2
 204 472 l 2
 204 390 170 365 113 349 c 1
 170 334 204 309 204 228 c 2
 204 18 l 2
 204 -29 226 -46 288 -46 c 1
 288 -138 l 1
 129 -138 84 -87 84 19 c 2
 84 218 l 2
 84 275 69 297 17 297 c 1
 17 402 l 1
 69 402 84 425 84 482 c 2
 84 681 l 2
 84 788 129 838 288 838 c 1
EndSplineSet
EndChar
StartChar: uni007C
Encoding: 124 124 92
Width: 388
Flags: W
HStem: -104 913<135 253 135 253>
VStem: 135 118<-104 809 -104 809>
LayerCount: 2
Fore
SplineSet
253 809 m 1
 253 -104 l 1
 135 -104 l 1
 135 809 l 1
 253 809 l 1
EndSplineSet
EndChar
StartChar: braceright
Encoding: 125 125 92
Width: 323
Flags: W
HStem: -138 92<35 66 35 114.5> 297 105<280.5 307> 746 92<35 66.5>
VStem: 119 120<18 19 19 218 472 482 482 681>
LayerCount: 2
Fore
SplineSet
35 838 m 1
 194 838 239 788 239 681 c 2
 239 482 l 2
 239 425 254 402 307 402 c 1
 307 297 l 1
 254 297 239 275 239 218 c 2
 239 19 l 2
 239 -87 194 -138 35 -138 c 1
 35 -46 l 1
 97 -46 119 -29 119 18 c 2
 119 228 l 2
 119 309 153 334 210 349 c 1
 153 365 119 390 119 472 c 2
 119 682 l 2
 119 729 98 746 35 746 c 1
 35 838 l 1
EndSplineSet
EndChar
StartChar: uni007E
Encoding: 126 126 94
Width: 502
Flags: W
HStem: 240 98<314 354 314 369> 301 97<149 189>
VStem: 25 452<285 349>
LayerCount: 2
Fore
SplineSet
330 240 m 0xa0
 246 240 212 301 166 301 c 0
 132 301 113 275 96 249 c 1
 25 285 l 1
 51 337 95 398 175 398 c 0x60
 257 398 290 338 338 338 c 0
 370 338 390 360 408 386 c 1
 477 349 l 1
 451 297 408 240 330 240 c 0xa0
EndSplineSet
EndChar
StartChar: uni00A1
Encoding: 161 161 96
Width: 241
Flags: W
HStem: -206 21G<52 190 52 52> 341 162<98 143.5>
VStem: 39 162<399.5 444> 60 122
LayerCount: 2
Fore
SplineSet
121 503 m 0xe0
 166 503 201 466 201 422 c 0
 201 377 166 341 121 341 c 0
 75 341 39 377 39 422 c 0
 39 466 75 503 121 503 c 0xe0
174 241 m 1xd0
 190 -206 l 1
 52 -206 l 1
 68 241 l 1
 174 241 l 1xd0
EndSplineSet
EndChar
StartChar: cent
Encoding: 162 162 96
Width: 478
Flags: W
HStem: -158 247<262 318 262 338 239 318> -11 21G<239 239 338 338> 443 245<261 318> 520 20G<240 240> 521 20G<338 338>
VStem: 43 136<198 325.5 198 335> 240 98<541 688>
LayerCount: 2
Fore
SplineSet
405 127 m 1xa6
 462 46 l 1
 426 16 385 -3 338 -11 c 1x4e
 338 -158 l 1
 239 -158 l 1x8e
 239 -11 l 1
 117 11 43 111 43 260 c 0
 43 410 117 517 240 540 c 1x56
 240 688 l 1
 338 688 l 1x66
 338 541 l 1
 385 533 424 514 462 482 c 1x4e
 405 405 l 1
 370 431 338 443 298 443 c 0
 224 443 179 389 179 262 c 0
 179 134 226 89 298 89 c 0
 338 89 366 102 405 127 c 1xa6
EndSplineSet
EndChar
StartChar: sterling
Encoding: 163 163 97
Width: 531
Flags: W
HStem: 0 100<179 477> 316 72<49 116 49 116 242 437> 586 99<300.5 350>
VStem: 116 126<220 224 224 316 194 316 388 487>
LayerCount: 2
Fore
SplineSet
242 224 m 2
 242 164 230 128 179 100 c 1
 492 100 l 1
 477 0 l 1
 33 0 l 1
 33 95 l 1
 106 119 116 148 116 220 c 2
 116 316 l 1
 49 316 l 1
 49 388 l 1
 116 388 l 1
 116 487 l 2
 116 601 186 685 318 685 c 0
 401 685 462 655 511 593 c 1
 431 533 l 1
 401 571 371 586 329 586 c 0
 272 586 242 551 242 487 c 2
 242 388 l 1
 437 388 l 1
 437 316 l 1
 242 316 l 1
 242 224 l 2
EndSplineSet
EndChar
StartChar: currency
Encoding: 164 164 98
Width: 560
Flags: W
HStem: 128 91<257 301.5> 464 90<257.5 302 257.5 317> 518 20G<23 23 538 538>
VStem: 66 107<319 363> 390 107<318.5 363.5 318.5 380>
LayerCount: 2
Fore
SplineSet
497 341 m 0xb8
 497 296 485 255 462 221 c 1
 538 146 l 1
 475 83 l 1
 397 159 l 1
 364 139 324 128 279 128 c 0
 235 128 196 140 163 160 c 1
 84 83 l 1
 23 146 l 1
 100 223 l 1
 78 256 66 297 66 341 c 0
 66 385 78 425 99 459 c 1
 23 538 l 1
 86 601 l 1xb8
 164 522 l 1
 196 542 236 554 279 554 c 0
 325 554 365 543 398 523 c 1
 476 601 l 1xd8
 538 538 l 1
 462 461 l 1
 485 427 497 386 497 341 c 0xb8
281 219 m 0
 353 219 390 265 390 342 c 0
 390 418 353 464 281 464 c 0xd8
 210 464 173 418 173 342 c 0
 173 265 210 219 281 219 c 0
EndSplineSet
EndChar
StartChar: brokenbar
Encoding: 166 166 100
Width: 388
Flags: W
HStem: -104 913<135 253 135 253>
VStem: 135 118<-104 262 -104 262 443 809>
LayerCount: 2
Fore
SplineSet
253 809 m 1
 253 443 l 1
 135 443 l 1
 135 809 l 1
 253 809 l 1
253 262 m 1
 253 -104 l 1
 135 -104 l 1
 135 262 l 1
 253 262 l 1
EndSplineSet
EndChar
StartChar: dieresis
Encoding: 168 168 102
Width: 422
Flags: W
HStem: 647 138<80 119.5 301.5 341>
VStem: 29 141<696.5 735.5> 251 141<696.5 735.5>
LayerCount: 2
Fore
SplineSet
100 785 m 0
 139 785 170 755 170 716 c 0
 170 677 139 647 100 647 c 0
 60 647 29 677 29 716 c 0
 29 755 60 785 100 785 c 0
321 785 m 0
 361 785 392 755 392 716 c 0
 392 677 361 647 321 647 c 0
 282 647 251 677 251 716 c 0
 251 755 282 785 321 785 c 0
EndSplineSet
EndChar
StartChar: ordfeminine
Encoding: 170 170 104
Width: 500
Flags: W
HStem: 0 102<60 455 60 455> 267 85<211 218.5> 460 67<252 264 264 298> 605 86<219 250.5>
VStem: 55 121<385 420.5 385 435.5> 298 117<389 396 396 460 460 460 527 544 544 550>
LayerCount: 2
Fore
SplineSet
252 527 m 2
 298 527 l 1
 298 544 l 2
 298 591 277 605 224 605 c 0
 197 605 155 598 113 584 c 1
 85 662 l 1
 138 681 195 691 243 691 c 0
 363 691 415 642 415 550 c 2
 415 396 l 2
 415 365 424 354 445 347 c 1
 420 269 l 1
 372 273 341 288 320 325 c 1
 290 284 244 267 193 267 c 0
 108 267 55 319 55 392 c 0
 55 479 126 527 252 527 c 2
228 352 m 0
 259 352 282 366 298 389 c 1
 298 460 l 1
 264 460 l 2
 206 460 176 441 176 400 c 0
 176 370 194 352 228 352 c 0
60 102 m 1
 455 102 l 1
 455 0 l 1
 60 0 l 1
 60 102 l 1
EndSplineSet
EndChar
StartChar: guillemotleft
Encoding: 171 171 105
Width: 604
Flags: W
HStem: 25 522<228 228 228 481>
VStem: 45 514<77 327 77 327>
LayerCount: 2
Fore
SplineSet
228 547 m 1
 306 494 l 1
 174 286 l 1
 306 77 l 1
 228 25 l 1
 45 244 l 1
 45 327 l 1
 228 547 l 1
481 547 m 1
 559 494 l 1
 427 286 l 1
 559 77 l 1
 481 25 l 1
 298 244 l 1
 298 327 l 1
 481 547 l 1
EndSplineSet
EndChar
StartChar: logicalnot
Encoding: 172 172 106
Width: 517
Flags: W
HStem: 275 102<55 353 55 462>
VStem: 353 109<126 275 275 275>
LayerCount: 2
Fore
SplineSet
462 377 m 1
 462 126 l 1
 353 126 l 1
 353 275 l 1
 55 275 l 1
 55 377 l 1
 462 377 l 1
EndSplineSet
EndChar
StartChar: uni00AE
Encoding: 174 174 109
Width: 639
Flags: W
HStem: 224 59<262 377.5 262 395> 459 52<286 309 286 315> 585 49<286 286 286 302 302 314> 696 59<262 377.5>
VStem: 54 68<427 549.5 427 563.5> 221 65<355 459 355 511 511 585> 364 66<535.5 561.5> 517 68<427 549.5>
LayerCount: 2
Fore
SplineSet
319 755 m 0
 471 755 585 639 585 488 c 0
 585 337 471 224 319 224 c 0
 170 224 54 337 54 488 c 0
 54 639 170 755 319 755 c 0
319 283 m 0
 436 283 517 366 517 488 c 0
 517 611 436 696 319 696 c 0
 205 696 122 611 122 488 c 0
 122 366 205 283 319 283 c 0
430 548 m 0
 430 509 404 484 369 471 c 1
 443 355 l 1
 368 355 l 1
 309 459 l 1
 286 459 l 1
 286 355 l 1
 221 355 l 1
 221 634 l 1
 302 634 l 2
 388 634 430 606 430 548 c 0
286 585 m 1
 286 511 l 1
 315 511 l 2
 344 511 364 522 364 549 c 0
 364 574 347 585 314 585 c 2
 286 585 l 1
EndSplineSet
EndChar
StartChar: macron
Encoding: 175 175 109
Width: 351
Flags: W
HStem: 661 91<30 321 30 321>
VStem: 30 291<661 752 661 752>
LayerCount: 2
Fore
SplineSet
321 661 m 1
 30 661 l 1
 30 752 l 1
 321 752 l 1
 321 661 l 1
EndSplineSet
EndChar
StartChar: uni00B0
Encoding: 176 176 111
Width: 522
Flags: W
HStem: 375 78<196.5 240 196.5 261.5> 628 78<196.5 240>
VStem: 47 94<512.5 569.5 512.5 593.5> 296 94<512 568>
LayerCount: 2
Fore
SplineSet
218 375 m 0
 133 375 47 436 47 541 c 0
 47 646 133 706 218 706 c 0
 305 706 390 646 390 540 c 0
 390 435 305 375 218 375 c 0
218 453 m 0
 262 453 296 484 296 540 c 0
 296 596 262 628 218 628 c 0
 175 628 141 598 141 541 c 0
 141 484 175 453 218 453 c 0
EndSplineSet
EndChar
StartChar: uni00B2
Encoding: 178 178 112
Width: 400
Flags: W
HStem: 321 77<172 344> 672 77<168.5 202>
VStem: 242 103<594 635>
LayerCount: 2
Fore
SplineSet
195 749 m 0
 292 749 345 693 345 626 c 0
 345 562 308 514 172 398 c 1
 354 398 l 1
 344 321 l 1
 60 321 l 1
 60 392 l 1
 207 530 242 568 242 617 c 0
 242 653 219 672 185 672 c 0
 152 672 130 659 104 629 c 1
 45 676 l 1
 80 720 130 749 195 749 c 0
EndSplineSet
EndChar
StartChar: uni00B3
Encoding: 179 179 114
Width: 400
Flags: W
HStem: 310 77<168 205.5 168 245> 506 68<158 182 158 182 146 182> 523 20G 675 74<171 205>
VStem: 246 98<616.5 642.5> 255 104<427.5 468.5>
LayerCount: 2
Fore
SplineSet
198 749 m 0xd8
 293 749 344 701 344 641 c 0xb8
 344 592 312 557 254 543 c 1xb4
 313 538 359 506 359 441 c 0
 359 370 299 310 191 310 c 0
 126 310 76 334 41 374 c 1
 97 427 l 1
 124 399 151 387 185 387 c 0
 226 387 255 408 255 447 c 0
 255 490 229 506 182 506 c 2xd4
 146 506 l 1
 158 574 l 1
 182 574 l 2
 221 574 246 593 246 627 c 0
 246 658 223 675 187 675 c 0
 155 675 128 662 101 639 c 1
 51 692 l 1
 92 730 141 749 198 749 c 0xd8
EndSplineSet
EndChar
StartChar: uni00B5
Encoding: 181 181 116
Width: 583
Flags: W
HStem: -217 21G<75 75> -204 21G<198 198> -15 21G<406 406> -10 98<247.5 285 247.5 287> 0 21G<524 524> 509 20G<75 203 203 203 371 499 499 499>
VStem: 75 128<134.5 162 162 529> 371 128<166 181 181 529>
LayerCount: 2
Fore
SplineSet
524 0 m 1x4f
 406 -15 l 1x67
 391 18 387 41 382 76 c 1
 355 29 313 -10 261 -10 c 0
 220 -10 192 2 169 36 c 1
 187 -4 198 -38 198 -105 c 2
 198 -204 l 1x57
 75 -217 l 1
 75 529 l 1
 203 529 l 1
 203 162 l 2
 203 107 229 88 266 88 c 0
 304 88 341 109 371 166 c 1x97
 371 529 l 1
 499 529 l 1
 499 181 l 2
 499 101 511 42 524 0 c 1x4f
EndSplineSet
EndChar
StartChar: uni00B9
Encoding: 185 185 119
Width: 400
Flags: W
HStem: 321 419<199 288 199 288 190 288>
VStem: 190 98<321 644 644 644>
LayerCount: 2
Fore
SplineSet
288 740 m 1
 288 321 l 1
 190 321 l 1
 190 644 l 1
 95 587 l 1
 51 654 l 1
 199 740 l 1
 288 740 l 1
EndSplineSet
EndChar
StartChar: uni00BA
Encoding: 186 186 121
Width: 500
Flags: W
HStem: 0 102<49 451 49 451> 267 87<223 277.5 223 314.5> 604 87<223.5 278>
VStem: 45 123<436 523 436 543.5> 332 123<436 523>
LayerCount: 2
Fore
SplineSet
251 691 m 0
 378 691 455 613 455 479 c 0
 455 352 379 267 250 267 c 0
 123 267 45 346 45 480 c 0
 45 607 123 691 251 691 c 0
251 604 m 0
 196 604 168 566 168 480 c 0
 168 392 196 354 250 354 c 0
 305 354 332 393 332 479 c 0
 332 567 305 604 251 604 c 0
49 0 m 1
 49 102 l 1
 451 102 l 1
 451 0 l 1
 49 0 l 1
EndSplineSet
EndChar
StartChar: uni00BC
Encoding: 188 188 123
Width: 952
Flags: W
HStem: 0 164<687 869 687 774> 90 74<687 773 869 919> 671 20G<199 288 288 288> 735 20G<642 642>
VStem: 190 98<272 595 595 595> 773.5 95.5
LayerCount: 2
Fore
SplineSet
642 755 m 1xbc
 719 717 l 1
 310 -82 l 1
 233 -44 l 1
 642 755 l 1xbc
288 272 m 1
 190 272 l 1
 190 595 l 1
 95 538 l 1
 51 605 l 1
 199 691 l 1
 288 691 l 1
 288 272 l 1
919 164 m 1
 919 90 l 1
 869 90 l 1x7c
 869 0 l 1
 774 0 l 1xbc
 773 90 l 1
 584 90 l 1
 584 157 l 1x7c
 709 428 l 1
 793 397 l 1
 687 164 l 1
 774 164 l 1
 789 263 l 1
 869 263 l 1
 869 164 l 1
 919 164 l 1
EndSplineSet
EndChar
StartChar: onehalf
Encoding: 189 189 123
Width: 952
Flags: W
HStem: 0 77<724 896> 351 77<720.5 754> 671 20G<199 288 288 288> 735 20G<642 642>
VStem: 190 98<272 595 595 595> 794 103<273 314>
LayerCount: 2
Fore
SplineSet
642 755 m 1
 719 717 l 1
 310 -82 l 1
 233 -44 l 1
 642 755 l 1
288 691 m 1
 288 272 l 1
 190 272 l 1
 190 595 l 1
 95 538 l 1
 51 605 l 1
 199 691 l 1
 288 691 l 1
747 428 m 0
 844 428 897 372 897 305 c 0
 897 241 860 193 724 77 c 1
 906 77 l 1
 896 0 l 1
 612 0 l 1
 612 71 l 1
 759 209 794 247 794 296 c 0
 794 332 771 351 737 351 c 0
 704 351 682 338 656 308 c 1
 597 355 l 1
 632 399 682 428 747 428 c 0
EndSplineSet
EndChar
StartChar: threequarters
Encoding: 190 190 124
Width: 952
Flags: W
HStem: 0 164<687 869 687 774> 90 74<687 773 869 919> 261 77<168 205.5 168 245> 457 68<158 182 158 182 146 182> 626 74<171 205> 735 20G<642 642>
VStem: 246 98<567.5 593.5> 255 104<378.5 419.5> 773.5 95.5
LayerCount: 2
Fore
SplineSet
642 755 m 1xbd80
 719 717 l 1
 310 -82 l 1
 233 -44 l 1
 642 755 l 1xbd80
359 392 m 0
 359 321 299 261 191 261 c 0
 126 261 76 285 41 325 c 1
 97 378 l 1
 124 350 151 338 185 338 c 0
 226 338 255 359 255 398 c 0
 255 441 229 457 182 457 c 2xbd80
 146 457 l 1
 158 525 l 1
 182 525 l 2
 221 525 246 544 246 578 c 0
 246 609 223 626 187 626 c 0
 155 626 128 613 101 590 c 1
 51 643 l 1
 92 681 141 700 198 700 c 0
 293 700 344 652 344 592 c 0xbe80
 344 543 312 508 254 494 c 1
 313 489 359 457 359 392 c 0
919 164 m 1
 919 90 l 1
 869 90 l 1x7d80
 869 0 l 1
 774 0 l 1xbd80
 773 90 l 1
 584 90 l 1
 584 157 l 1x7d80
 709 428 l 1
 793 397 l 1
 687 164 l 1
 774 164 l 1
 789 263 l 1
 869 263 l 1
 869 164 l 1
 919 164 l 1
EndSplineSet
EndChar
StartChar: questiondown
Encoding: 191 191 125
Width: 471
Flags: W
HStem: -219 102<213 261.5 213 275> 341 162<237 282.5>
VStem: 22 133<-69 0 -69 23.5> 179 161<399.5 444> 202 120<206 241 117 241>
LayerCount: 2
Fore
SplineSet
260 341 m 0xf0
 214 341 179 377 179 422 c 0
 179 466 214 503 260 503 c 0
 305 503 340 466 340 422 c 0
 340 377 305 341 260 341 c 0xf0
228 -219 m 0xe8
 91 -219 22 -142 22 -57 c 0
 22 104 202 88 202 206 c 2
 202 241 l 1
 322 241 l 1
 322 201 l 2
 322 33 155 47 155 -47 c 0
 155 -91 187 -117 239 -117 c 0
 284 -117 328 -96 366 -51 c 1
 450 -116 l 1
 393 -182 322 -219 228 -219 c 0xe8
EndSplineSet
EndChar
StartChar: uni00C0
Encoding: 192 192 127
Width: 583
Flags: W
HStem: 0 21G<-5 132 -5 -5 447 587 447 447> 160 100<201 377 201 404 175 377> 590 101<289 289> 671 20G<210 373 373 373>
VStem: -5 592<0 0>
LayerCount: 2
Fore
SplineSet
416 819 m 1xd8
 383 753 l 1
 154 836 l 1
 204 936 l 1
 416 819 l 1xd8
447 0 m 1
 404 160 l 1
 175 160 l 1
 132 0 l 1
 -5 0 l 1
 210 691 l 1
 373 691 l 1
 587 0 l 1
 447 0 l 1
201 260 m 1
 377 260 l 1
 289 590 l 1xe8
 201 260 l 1
EndSplineSet
EndChar
StartChar: uni00C3
Encoding: 195 195 130
Width: 583
Flags: W
HStem: 0 21G<-5 132 -5 -5 447 587 447 447> 160 100<201 377 201 404 175 377> 590 101<289 289> 671 20G<210 373 373 373> 770 94<331.5 359.5 331.5 376> 817 93<223 252>
VStem: -5 592<0 0>
LayerCount: 2
Fore
SplineSet
235 817 m 0xd6
 211 817 198 801 182 772 c 1
 113 806 l 1
 137 863 177 910 233 910 c 0xd6
 292 910 314 864 349 864 c 0
 370 864 384 878 402 907 c 1
 470 873 l 1
 444 811 402 770 350 770 c 0xda
 294 770 269 817 235 817 c 0xd6
447 0 m 1
 404 160 l 1
 175 160 l 1
 132 0 l 1
 -5 0 l 1
 210 691 l 1
 373 691 l 1
 587 0 l 1
 447 0 l 1
201 260 m 1
 377 260 l 1
 289 590 l 1xe6
 201 260 l 1
EndSplineSet
EndChar
StartChar: Adieresis
Encoding: 196 196 130
Width: 583
Flags: W
HStem: 0 21G<-5 132 -5 -5 447 587 447 447> 160 100<201 377 201 404 175 377> 590 101<289 289> 671 20G<210 373 373 373> 773 138<160 199.5 381.5 421>
VStem: 109 140<822.5 861.5> 331 140<822.5 861.5>
LayerCount: 2
Fore
SplineSet
180 773 m 0xde
 140 773 109 803 109 842 c 0
 109 881 140 911 180 911 c 0
 219 911 249 881 249 842 c 0
 249 803 219 773 180 773 c 0xde
401 773 m 0
 362 773 331 803 331 842 c 0
 331 881 362 911 401 911 c 0
 441 911 471 881 471 842 c 0
 471 803 441 773 401 773 c 0
447 0 m 1
 404 160 l 1
 175 160 l 1
 132 0 l 1
 -5 0 l 1
 210 691 l 1
 373 691 l 1
 587 0 l 1
 447 0 l 1
201 260 m 1
 377 260 l 1
 289 590 l 1xee
 201 260 l 1
EndSplineSet
EndChar
StartChar: uni00C5
Encoding: 197 197 132
Width: 583
Flags: W
HStem: 0 21G<-5 132 -5 -5 447 587 447 447> 160 100<201 377 201 404 175 377> 590 101<289 289> 671 20G<210 373 373 373> 739 68<277 306.5 277 330.5> 912 67<277 306.5>
VStem: 164 79<842 876 842 892> 340 79<842 876>
LayerCount: 2
Fore
SplineSet
292 739 m 0xdf
 214 739 164 794 164 859 c 0
 164 925 214 979 292 979 c 0
 369 979 419 925 419 859 c 0
 419 794 369 739 292 739 c 0xdf
292 912 m 0
 262 912 243 893 243 859 c 0
 243 825 262 807 292 807 c 0
 321 807 340 825 340 859 c 0
 340 893 321 912 292 912 c 0
447 0 m 1
 404 160 l 1
 175 160 l 1
 132 0 l 1
 -5 0 l 1
 210 691 l 1
 373 691 l 1
 587 0 l 1
 447 0 l 1
201 260 m 1
 377 260 l 1
 289 590 l 1xef
 201 260 l 1
EndSplineSet
EndChar
StartChar: Ecircumflex
Encoding: 202 202 136
Width: 530
Flags: W
HStem: 0 99<213 486 213 486> 302 98<213 435 213 435> 593 98<213 468 213 213>
VStem: 81 132<99 302 400 593>
LayerCount: 2
Fore
SplineSet
153 757 m 1
 104 812 l 1
 243 933 l 1
 323 933 l 1
 462 812 l 1
 413 757 l 1
 283 839 l 1
 153 757 l 1
482 691 m 1
 468 593 l 1
 213 593 l 1
 213 400 l 1
 435 400 l 1
 435 302 l 1
 213 302 l 1
 213 99 l 1
 486 99 l 1
 486 0 l 1
 81 0 l 1
 81 691 l 1
 482 691 l 1
EndSplineSet
EndChar
StartChar: uni00CB
Encoding: 203 203 138
Width: 530
Flags: W
HStem: 0 99<213 486 213 486> 302 98<213 435 213 435> 593 98<213 468 213 213> 773 138<153 192.5 374.5 414>
VStem: 81 132<99 302 400 593> 102 140<822.5 861.5> 324 140<822.5 861.5>
LayerCount: 2
Fore
SplineSet
173 911 m 0xf6
 212 911 242 881 242 842 c 0
 242 803 212 773 173 773 c 0
 133 773 102 803 102 842 c 0
 102 881 133 911 173 911 c 0xf6
394 911 m 0
 434 911 464 881 464 842 c 0
 464 803 434 773 394 773 c 0
 355 773 324 803 324 842 c 0
 324 881 355 911 394 911 c 0
482 691 m 1
 468 593 l 1
 213 593 l 1
 213 400 l 1
 435 400 l 1
 435 302 l 1
 213 302 l 1
 213 99 l 1
 486 99 l 1
 486 0 l 1
 81 0 l 1
 81 691 l 1xe8
 482 691 l 1
EndSplineSet
EndChar
StartChar: uni00CC
Encoding: 204 204 139
Width: 294
Flags: W
HStem: 0 21G<81 213 81 81> 671 20G<81 213 213 213>
VStem: 81 132<0 691 0 691>
LayerCount: 2
Fore
SplineSet
59 936 m 1
 271 819 l 1
 238 753 l 1
 9 836 l 1
 59 936 l 1
213 691 m 1
 213 0 l 1
 81 0 l 1
 81 691 l 1
 213 691 l 1
EndSplineSet
EndChar
StartChar: Iacute
Encoding: 205 205 139
Width: 294
Flags: W
HStem: 0 21G<81 213 81 81> 671 20G<81 213 213 213>
VStem: 81 132<0 691 0 691>
LayerCount: 2
Fore
SplineSet
228 936 m 1
 278 836 l 1
 49 753 l 1
 16 819 l 1
 228 936 l 1
213 691 m 1
 213 0 l 1
 81 0 l 1
 81 691 l 1
 213 691 l 1
EndSplineSet
EndChar
StartChar: uni00CE
Encoding: 206 206 141
Width: 294
Flags: W
HStem: 0 21G<81 213 81 81> 671 20G<81 213 213 213>
VStem: 81 132<0 691 0 691>
LayerCount: 2
Fore
SplineSet
16 757 m 1
 -33 812 l 1
 106 933 l 1
 186 933 l 1
 325 812 l 1
 276 757 l 1
 146 839 l 1
 16 757 l 1
213 691 m 1
 213 0 l 1
 81 0 l 1
 81 691 l 1
 213 691 l 1
EndSplineSet
EndChar
StartChar: Idieresis
Encoding: 207 207 141
Width: 294
Flags: W
HStem: 0 21G<81 213 81 81> 671 20G<81 213 213 213> 773 138<15 54.5 236.5 276>
VStem: -36 140<822.5 861.5> 81 132<0 691 0 691> 186 140<822.5 861.5>
LayerCount: 2
Fore
SplineSet
35 911 m 0xf4
 74 911 104 881 104 842 c 0
 104 803 74 773 35 773 c 0
 -5 773 -36 803 -36 842 c 0
 -36 881 -5 911 35 911 c 0xf4
256 911 m 0
 296 911 326 881 326 842 c 0
 326 803 296 773 256 773 c 0
 217 773 186 803 186 842 c 0
 186 881 217 911 256 911 c 0
213 691 m 1xe8
 213 0 l 1
 81 0 l 1
 81 691 l 1
 213 691 l 1xe8
EndSplineSet
EndChar
StartChar: uni00D1
Encoding: 209 209 144
Width: 672
Flags: W
HStem: 0 21G<81 201 81 81 420 591 420 420> 0 131<489 489 489 591 420 489> 559 132<183 183> 671 20G<81 248 248 248 471 591 591 591> 770 94<383.5 411.5 383.5 428> 817 93<275 304>
VStem: 81 120<0 282 0 691> 471 120<367 691 0 691>
LayerCount: 2
Fore
SplineSet
402 770 m 0x9b
 346 770 321 817 287 817 c 0
 263 817 250 801 234 772 c 1
 165 806 l 1
 189 863 229 910 285 910 c 0x97
 344 910 366 864 401 864 c 0
 422 864 436 878 454 907 c 1
 522 873 l 1
 496 811 454 770 402 770 c 0x9b
591 691 m 1x57
 591 0 l 1
 420 0 l 1
 183 559 l 1xa7
 190 498 201 410 201 282 c 2
 201 0 l 1
 81 0 l 1
 81 691 l 1
 248 691 l 1
 489 131 l 1
 483 169 471 269 471 367 c 2
 471 691 l 1
 591 691 l 1x57
EndSplineSet
EndChar
StartChar: Ograve
Encoding: 210 210 144
Width: 691
Flags: W
HStem: -15 101<295.5 397.5 295.5 438.5> 605 101<294.5 398>
VStem: 43 139<252 438 252 458.5> 509 139<252.5 438.5>
LayerCount: 2
Fore
SplineSet
258 936 m 1
 470 819 l 1
 437 753 l 1
 208 836 l 1
 258 936 l 1
346 706 m 0
 531 706 648 577 648 346 c 0
 648 118 531 -15 346 -15 c 0
 161 -15 43 114 43 345 c 0
 43 572 161 706 346 706 c 0
346 605 m 0
 243 605 182 531 182 345 c 0
 182 159 245 86 346 86 c 0
 449 86 509 159 509 346 c 0
 509 531 450 605 346 605 c 0
EndSplineSet
EndChar
StartChar: Otilde
Encoding: 213 213 147
Width: 691
Flags: W
HStem: -15 101<295.5 397.5 295.5 438.5> 605 101<294.5 398> 770 94<385.5 413.5 385.5 430> 817 93<277 306>
VStem: 43 139<252 438 252 458.5> 509 139<252.5 438.5>
LayerCount: 2
Fore
SplineSet
404 770 m 0xec
 348 770 323 817 289 817 c 0
 265 817 252 801 236 772 c 1
 167 806 l 1
 191 863 231 910 287 910 c 0xdc
 346 910 368 864 403 864 c 0
 424 864 438 878 456 907 c 1
 524 873 l 1
 498 811 456 770 404 770 c 0xec
346 706 m 0xdc
 531 706 648 577 648 346 c 0
 648 118 531 -15 346 -15 c 0
 161 -15 43 114 43 345 c 0
 43 572 161 706 346 706 c 0xdc
346 605 m 0
 243 605 182 531 182 345 c 0
 182 159 245 86 346 86 c 0
 449 86 509 159 509 346 c 0
 509 531 450 605 346 605 c 0
EndSplineSet
EndChar
StartChar: Odieresis
Encoding: 214 214 148
Width: 691
Flags: W
HStem: -15 101<295.5 397.5 295.5 438.5> 605 101<294.5 398> 773 138<214 253.5 435.5 475>
VStem: 43 139<252 438 252 458.5> 163 140<822.5 861.5> 385 140<822.5 861.5> 509 139<252.5 438.5>
LayerCount: 2
Fore
SplineSet
234 911 m 0xec
 273 911 303 881 303 842 c 0
 303 803 273 773 234 773 c 0
 194 773 163 803 163 842 c 0
 163 881 194 911 234 911 c 0xec
455 911 m 0
 495 911 525 881 525 842 c 0
 525 803 495 773 455 773 c 0
 416 773 385 803 385 842 c 0
 385 881 416 911 455 911 c 0
346 706 m 0xd2
 531 706 648 577 648 346 c 0
 648 118 531 -15 346 -15 c 0
 161 -15 43 114 43 345 c 0
 43 572 161 706 346 706 c 0xd2
346 605 m 0
 243 605 182 531 182 345 c 0
 182 159 245 86 346 86 c 0
 449 86 509 159 509 346 c 0
 509 531 450 605 346 605 c 0
EndSplineSet
EndChar
StartChar: Thorn
Encoding: 222 222 156
Width: 596
Flags: W
HStem: 0 21G<81 213 81 81> 120 99<213 284 284 294 213 284> 481 97<213 284 213 285> 671 20G<81 213 213 213>
VStem: 81 132<0 120 0 219 219 481 578 691> 427 138<302 400>
LayerCount: 2
Fore
SplineSet
285 578 m 2
 459 578 565 507 565 355 c 0
 565 191 450 120 294 120 c 2
 213 120 l 1
 213 0 l 1
 81 0 l 1
 81 691 l 1
 213 691 l 1
 213 578 l 1
 285 578 l 2
284 219 m 2
 372 219 427 249 427 355 c 0
 427 445 374 481 284 481 c 2
 213 481 l 1
 213 219 l 1
 284 219 l 2
EndSplineSet
EndChar
StartChar: uni00DF
Encoding: 223 223 158
Width: 598
Flags: W
HStem: -15 100<355.5 386 351 431> 0 21G<75 203 75 75> 661 94<263.5 314.5>
VStem: 75 128<0 536 536 538 0 604.5> 270 114<389.5 460 389.5 462.5> 368 122<556 616.5> 438 132<139 225.5>
LayerCount: 2
Fore
SplineSet
295 755 m 0x74
 419 755 490 688 490 608 c 0
 490 504 384 491 384 429 c 0
 384 350 570 339 570 164 c 0
 570 52 483 -15 379 -15 c 0
 332 -15 297 -5 268 10 c 1
 306 98 l 1
 320 90 338 85 364 85 c 0
 408 85 438 112 438 166 c 0xba
 438 285 270 285 270 412 c 0
 270 513 368 509 368 595 c 0
 368 638 336 661 293 661 c 0
 234 661 203 621 203 538 c 2
 203 0 l 1
 75 0 l 1
 75 536 l 2
 75 673 153 755 295 755 c 0x74
EndSplineSet
EndChar
StartChar: aacute
Encoding: 225 225 159
Width: 546
Flags: W
HStem: -15 93<215.5 237.5> 250 75<276 289 289 342> 447 97<235 277>
VStem: 35 130<132.5 189 132.5 205.5> 342 126<143 250 250 250 325 355 355 362>
LayerCount: 2
Fore
SplineSet
394 720 m 1
 168 630 l 1
 132 695 l 1
 342 820 l 1
 394 720 l 1
468 140 m 2
 468 97 482 82 508 72 c 1
 481 -13 l 1
 423 -8 385 13 364 64 c 1
 327 8 269 -15 206 -15 c 0
 100 -15 35 52 35 148 c 0
 35 263 122 325 276 325 c 2
 342 325 l 1
 342 355 l 2
 342 424 311 447 243 447 c 0
 207 447 156 437 103 419 c 1
 73 506 l 1
 138 531 205 544 265 544 c 0
 406 544 468 479 468 362 c 2
 468 140 l 2
240 78 m 0
 285 78 318 101 342 143 c 1
 342 250 l 1
 289 250 l 2
 206 250 165 220 165 158 c 0
 165 107 191 78 240 78 c 0
EndSplineSet
EndChar
StartChar: uni00E4
Encoding: 228 228 163
Width: 546
Flags: W
HStem: -15 93<215.5 237.5> 250 75<276 289 289 342> 447 97<235 277> 647 138<136 175.5 357.5 397>
VStem: 35 130<132.5 189 132.5 205.5> 85 140<696.5 735.5> 307 140<696.5 735.5> 342 126<143 250 250 250 325 355 355 362>
LayerCount: 2
Fore
SplineSet
156 647 m 0xf6
 116 647 85 677 85 716 c 0
 85 755 116 785 156 785 c 0
 195 785 225 755 225 716 c 0
 225 677 195 647 156 647 c 0xf6
377 647 m 0
 338 647 307 677 307 716 c 0
 307 755 338 785 377 785 c 0
 417 785 447 755 447 716 c 0
 447 677 417 647 377 647 c 0
468 140 m 2xe9
 468 97 482 82 508 72 c 1
 481 -13 l 1
 423 -8 385 13 364 64 c 1
 327 8 269 -15 206 -15 c 0
 100 -15 35 52 35 148 c 0
 35 263 122 325 276 325 c 2
 342 325 l 1
 342 355 l 2
 342 424 311 447 243 447 c 0
 207 447 156 437 103 419 c 1
 73 506 l 1
 138 531 205 544 265 544 c 0
 406 544 468 479 468 362 c 2
 468 140 l 2xe9
240 78 m 0
 285 78 318 101 342 143 c 1
 342 250 l 1
 289 250 l 2
 206 250 165 220 165 158 c 0
 165 107 191 78 240 78 c 0
EndSplineSet
EndChar
StartChar: uni00E7
Encoding: 231 231 166
Width: 478
Flags: W
HStem: -253 75<256.5 283 256.5 318> -14 21G<316 316> -14 103<316 316> -11 21G<239 239> 443 101<261 318>
VStem: 43 136<198 325.5 198 344.5> 318 97<-156.5 -131>
LayerCount: 2
Fore
SplineSet
462 46 m 1xae
 420 12 373 -9 316 -14 c 1
 316 -52 l 1xce
 386 -59 415 -96 415 -144 c 0
 415 -211 358 -253 278 -253 c 0
 235 -253 198 -241 175 -225 c 1
 206 -162 l 1
 225 -172 244 -178 269 -178 c 0
 297 -178 318 -169 318 -144 c 0
 318 -118 291 -106 227 -106 c 1
 239 -11 l 1x9e
 117 11 43 111 43 260 c 0
 43 429 138 544 290 544 c 0
 359 544 412 525 462 482 c 1
 405 405 l 1
 370 431 338 443 298 443 c 0
 224 443 179 389 179 262 c 0
 179 134 226 89 298 89 c 0
 338 89 366 102 405 127 c 1
 462 46 l 1xae
EndSplineSet
EndChar
StartChar: edieresis
Encoding: 235 235 169
Width: 549
Flags: W
HStem: -15 97<271 329.5 271 335> 225 83<176 384 176 508 176 384> 453 91<251 317> 647 138<150 189.5 371.5 411>
VStem: 43 133<225 225 225 308 225 341.5> 99 140<696.5 735.5> 321 140<696.5 735.5> 384 127<308 314 314 357.5>
LayerCount: 2
Fore
SplineSet
170 647 m 0xf6
 130 647 99 677 99 716 c 0
 99 755 130 785 170 785 c 0
 209 785 239 755 239 716 c 0
 239 677 209 647 170 647 c 0xf6
391 647 m 0
 352 647 321 677 321 716 c 0
 321 755 352 785 391 785 c 0
 431 785 461 755 461 716 c 0
 461 677 431 647 391 647 c 0
511 277 m 0xe9
 511 260 509 239 508 225 c 1
 176 225 l 1
 185 117 236 82 306 82 c 0
 353 82 392 97 438 129 c 1
 491 56 l 1
 439 14 375 -15 295 -15 c 0
 131 -15 43 94 43 261 c 0
 43 422 128 544 278 544 c 0
 426 544 511 444 511 277 c 0xe9
384 308 m 1
 384 314 l 2
 384 401 353 453 281 453 c 0
 221 453 183 413 176 308 c 1
 384 308 l 1
EndSplineSet
EndChar
StartChar: igrave
Encoding: 236 236 170
Width: 278
Flags: W
HStem: 0 21G<75 203 75 75> 509 20G<75 203 203 203> 675 20G<280 280>
VStem: 75 128<0 529 0 529>
LayerCount: 2
Fore
SplineSet
70 820 m 1
 280 695 l 1
 243 630 l 1
 18 720 l 1
 70 820 l 1
203 529 m 1
 203 0 l 1
 75 0 l 1
 75 529 l 1
 203 529 l 1
EndSplineSet
EndChar
StartChar: icircumflex
Encoding: 238 238 172
Width: 278
Flags: W
HStem: 0 21G<75 203 75 75> 509 20G<75 203 203 203>
VStem: 75 128<0 529 0 529>
LayerCount: 2
Fore
SplineSet
9 627 m 1
 -40 682 l 1
 98 808 l 1
 179 808 l 1
 318 682 l 1
 269 627 l 1
 139 715 l 1
 9 627 l 1
203 529 m 1
 203 0 l 1
 75 0 l 1
 75 529 l 1
 203 529 l 1
EndSplineSet
EndChar
StartChar: uni00EF
Encoding: 239 239 174
Width: 278
Flags: W
HStem: 0 21G<75 203 75 75> 509 20G<75 203 203 203> 647 138<8 47.5 229.5 269>
VStem: -43 140<696.5 735.5> 75 128<0 529 0 529> 179 140<696.5 735.5>
LayerCount: 2
Fore
SplineSet
28 785 m 0xf4
 67 785 97 755 97 716 c 0
 97 677 67 647 28 647 c 0
 -12 647 -43 677 -43 716 c 0
 -43 755 -12 785 28 785 c 0xf4
249 785 m 0
 289 785 319 755 319 716 c 0
 319 677 289 647 249 647 c 0
 210 647 179 677 179 716 c 0
 179 755 210 785 249 785 c 0
203 529 m 1xe8
 203 0 l 1
 75 0 l 1
 75 529 l 1
 203 529 l 1xe8
EndSplineSet
EndChar
StartChar: uni00F1
Encoding: 241 241 176
Width: 576
Flags: W
HStem: 0 21G<75 203 75 75 379 507 379 379> 448 96<323.5 334> 509 20G<75 186 186 186> 644 94<333.5 361.5 333.5 378> 691 93<225 254> 727 20G<472 472>
VStem: 75 128<0 368 0 529> 379 128<0 363 363 383 0 396>
LayerCount: 2
Fore
SplineSet
237 691 m 0xab
 213 691 200 675 184 646 c 1
 115 680 l 1
 139 737 179 784 235 784 c 0xab
 294 784 316 738 351 738 c 0
 372 738 386 752 404 781 c 1xb3
 472 747 l 1xa7
 446 685 404 644 352 644 c 0xb3
 296 644 271 691 237 691 c 0xab
357 544 m 0xc7
 452 544 507 484 507 383 c 2
 507 0 l 1
 379 0 l 1
 379 363 l 2
 379 429 354 448 314 448 c 0
 268 448 234 417 203 368 c 1xc7
 203 0 l 1
 75 0 l 1
 75 529 l 1
 186 529 l 1xa7
 196 460 l 1
 237 513 290 544 357 544 c 0xc7
EndSplineSet
EndChar
StartChar: uni00F2
Encoding: 242 242 177
Width: 584
Flags: W
HStem: -15 97<254.5 329.5 254.5 370> 447 97<255.5 330> 675 20G<433 433>
VStem: 43 135<201.5 327.5 201.5 348> 406 135<202 328>
LayerCount: 2
Fore
SplineSet
223 820 m 1
 433 695 l 1
 396 630 l 1
 171 720 l 1
 223 820 l 1
293 544 m 0
 449 544 541 438 541 265 c 0
 541 98 448 -15 292 -15 c 0
 136 -15 43 91 43 265 c 0
 43 431 136 544 293 544 c 0
293 447 m 0
 218 447 178 390 178 265 c 0
 178 138 217 82 292 82 c 0
 367 82 406 139 406 265 c 0
 406 391 367 447 293 447 c 0
EndSplineSet
EndChar
StartChar: oacute
Encoding: 243 243 177
Width: 584
Flags: W
HStem: -15 97<254.5 329.5 254.5 370> 447 97<255.5 330>
VStem: 43 135<201.5 327.5 201.5 348> 406 135<202 328>
LayerCount: 2
Fore
SplineSet
368 820 m 1
 420 720 l 1
 194 630 l 1
 158 695 l 1
 368 820 l 1
293 544 m 0
 449 544 541 438 541 265 c 0
 541 98 448 -15 292 -15 c 0
 136 -15 43 91 43 265 c 0
 43 431 136 544 293 544 c 0
293 447 m 0
 218 447 178 390 178 265 c 0
 178 138 217 82 292 82 c 0
 367 82 406 139 406 265 c 0
 406 391 367 447 293 447 c 0
EndSplineSet
EndChar
StartChar: otilde
Encoding: 245 245 179
Width: 584
Flags: W
HStem: -15 97<254.5 329.5 254.5 370> 447 97<255.5 330> 644 94<331.5 359.5 331.5 376> 691 93<223 252> 727 20G<470 470>
VStem: 43 135<201.5 327.5 201.5 348> 406 135<202 328>
LayerCount: 2
Fore
SplineSet
350 644 m 0xe6
 294 644 269 691 235 691 c 0
 211 691 198 675 182 646 c 1
 113 680 l 1
 137 737 177 784 233 784 c 0xd6
 292 784 314 738 349 738 c 0
 370 738 384 752 402 781 c 1xe6
 470 747 l 1xce
 444 685 402 644 350 644 c 0xe6
293 544 m 0xce
 449 544 541 438 541 265 c 0
 541 98 448 -15 292 -15 c 0
 136 -15 43 91 43 265 c 0
 43 431 136 544 293 544 c 0xce
293 447 m 0
 218 447 178 390 178 265 c 0
 178 138 217 82 292 82 c 0
 367 82 406 139 406 265 c 0
 406 391 367 447 293 447 c 0
EndSplineSet
EndChar
StartChar: odieresis
Encoding: 246 246 180
Width: 584
Flags: W
HStem: -15 97<254.5 329.5 254.5 370> 447 97<255.5 330> 647 138<161 200.5 382.5 422>
VStem: 43 135<201.5 327.5 201.5 348> 110 140<696.5 735.5> 332 140<696.5 735.5> 406 135<202 328>
LayerCount: 2
Fore
SplineSet
181 785 m 0xec
 220 785 250 755 250 716 c 0
 250 677 220 647 181 647 c 0
 141 647 110 677 110 716 c 0
 110 755 141 785 181 785 c 0xec
402 785 m 0
 442 785 472 755 472 716 c 0
 472 677 442 647 402 647 c 0
 363 647 332 677 332 716 c 0
 332 755 363 785 402 785 c 0
293 544 m 0xf2
 449 544 541 438 541 265 c 0
 541 98 448 -15 292 -15 c 0
 136 -15 43 91 43 265 c 0
 43 431 136 544 293 544 c 0xf2
293 447 m 0
 218 447 178 390 178 265 c 0
 178 138 217 82 292 82 c 0
 367 82 406 139 406 265 c 0
 406 391 367 447 293 447 c 0
EndSplineSet
EndChar
StartChar: uacute
Encoding: 250 250 184
Width: 571
Flags: W
HStem: -15 97<239 252.5> 0 21G<385 496 385 385> 509 20G<69 197 197 197 368 496 496 496>
VStem: 69 128<149 165 165 529> 368 128<157 529 0 529>
LayerCount: 2
Fore
SplineSet
359 820 m 1x78
 411 720 l 1
 185 630 l 1
 149 695 l 1
 359 820 l 1x78
496 529 m 1
 496 0 l 1
 385 0 l 1x78
 378 74 l 1
 339 14 289 -15 216 -15 c 0
 120 -15 69 47 69 149 c 2
 69 529 l 1
 197 529 l 1
 197 165 l 2
 197 103 217 82 261 82 c 0
 305 82 341 111 368 157 c 1xb8
 368 529 l 1
 496 529 l 1
EndSplineSet
EndChar
StartChar: ydieresis
Encoding: 255 255 189
Width: 506
Flags: W
HStem: -218 21G<58 58> 0 21G<170 214 170 170> 509 20G<2 138 138 138 373 505 505 505> 647 138<122 161.5 343.5 383>
VStem: 71 140<696.5 735.5> 293 140<696.5 735.5>
LayerCount: 2
Fore
SplineSet
142 785 m 0
 181 785 211 755 211 716 c 0
 211 677 181 647 142 647 c 0
 102 647 71 677 71 716 c 0
 71 755 102 785 142 785 c 0
363 785 m 0
 403 785 433 755 433 716 c 0
 433 677 403 647 363 647 c 0
 324 647 293 677 293 716 c 0
 293 755 324 785 363 785 c 0
505 529 m 1
 333 -2 l 2
 293 -126 215 -206 58 -218 c 1
 45 -125 l 1
 150 -109 184 -75 214 0 c 1
 170 0 l 1
 2 529 l 1
 138 529 l 1
 253 85 l 1
 373 529 l 1
 505 529 l 1
EndSplineSet
EndChar
StartChar: amacron
Encoding: 257 257 191
Width: 546
Flags: W
HStem: -15 93<215.5 237.5> 250 75<276 289 289 342> 447 97<235 277> 661 91<121 412 121 412>
VStem: 35 130<132.5 189 132.5 205.5> 121 291<661 752 661 752> 342 126<143 250 250 250 325 355 355 362>
LayerCount: 2
Fore
SplineSet
412 752 m 1xf4
 412 661 l 1
 121 661 l 1
 121 752 l 1
 412 752 l 1xf4
468 140 m 2xfa
 468 97 482 82 508 72 c 1
 481 -13 l 1
 423 -8 385 13 364 64 c 1
 327 8 269 -15 206 -15 c 0
 100 -15 35 52 35 148 c 0
 35 263 122 325 276 325 c 2
 342 325 l 1
 342 355 l 2
 342 424 311 447 243 447 c 0
 207 447 156 437 103 419 c 1
 73 506 l 1
 138 531 205 544 265 544 c 0
 406 544 468 479 468 362 c 2
 468 140 l 2xfa
240 78 m 0
 285 78 318 101 342 143 c 1
 342 250 l 1
 289 250 l 2
 206 250 165 220 165 158 c 0
 165 107 191 78 240 78 c 0
EndSplineSet
EndChar
StartChar: uni0102
Encoding: 258 258 193
Width: 583
Flags: W
HStem: 0 21G<-5 132 -5 -5 447 587 447 447> 160 100<201 377 201 404 175 377> 590 101<289 289> 671 20G<210 373 373 373> 754 92<268 314 268 338>
VStem: -5 592<0 0>
LayerCount: 2
Fore
SplineSet
291 754 m 0xdc
 197 754 137 818 129 898 c 1
 204 913 l 1
 217 874 245 846 291 846 c 0
 337 846 367 874 379 913 c 1
 455 898 l 1
 447 818 385 754 291 754 c 0xdc
447 0 m 1
 404 160 l 1
 175 160 l 1
 132 0 l 1
 -5 0 l 1
 210 691 l 1
 373 691 l 1
 587 0 l 1
 447 0 l 1
201 260 m 1
 377 260 l 1
 289 590 l 1xec
 201 260 l 1
EndSplineSet
EndChar
StartChar: Aogonek
Encoding: 260 260 194
Width: 583
Flags: W
HStem: -239 85<439 455> 0 21G<-5 132 -5 -5 524 587 524 524> 160 100<201 377 201 404 175 377> 590 101<289 289> 671 20G<210 373 373 373>
VStem: 305 98<-123 -95.5>
LayerCount: 2
Fore
SplineSet
524 0 m 1xec
 424 -40 403 -76 403 -108 c 0
 403 -138 420 -154 458 -154 c 0
 478 -154 495 -152 519 -147 c 1
 509 -232 l 1
 488 -236 468 -239 442 -239 c 0
 360 -239 305 -195 305 -130 c 0
 305 -61 354 -13 441 22 c 1
 404 160 l 1
 175 160 l 1
 132 0 l 1
 -5 0 l 1
 210 691 l 1
 373 691 l 1
 587 0 l 1
 524 0 l 1xec
201 260 m 1
 377 260 l 1
 289 590 l 1xf4
 201 260 l 1
EndSplineSet
EndChar
StartChar: uni0105
Encoding: 261 261 196
Width: 546
Flags: W
HStem: -252 85<396 412> -15 93<215.5 237.5> 250 75<276 289 289 342> 447 97<235 277>
VStem: 35 130<132.5 189 132.5 205.5> 262 98<-136 -108> 342 126<143 250 250 250 325 355 355 362>
LayerCount: 2
Fore
SplineSet
481 -13 m 1x7a
 381 -53 360 -89 360 -121 c 0
 360 -151 377 -167 415 -167 c 0
 435 -167 452 -165 476 -160 c 1
 466 -245 l 1
 445 -249 425 -252 399 -252 c 0
 317 -252 262 -208 262 -143 c 0xfc
 262 -73 313 -24 404 11 c 1
 387 23 373 40 364 64 c 1
 327 8 269 -15 206 -15 c 0
 100 -15 35 52 35 148 c 0
 35 263 122 325 276 325 c 2
 342 325 l 1
 342 355 l 2
 342 424 311 447 243 447 c 0
 207 447 156 437 103 419 c 1
 73 506 l 1
 138 531 205 544 265 544 c 0
 406 544 468 479 468 362 c 2
 468 140 l 2
 468 97 482 82 508 72 c 1
 481 -13 l 1x7a
240 78 m 0
 285 78 318 101 342 143 c 1
 342 250 l 1
 289 250 l 2
 206 250 165 220 165 158 c 0
 165 107 191 78 240 78 c 0
EndSplineSet
EndChar
StartChar: uni010C
Encoding: 268 268 203
Width: 568
Flags: W
HStem: -15 106<303 382 303 394> 604 102<304 375.5>
VStem: 43 139<256 440.5 256 463>
LayerCount: 2
Fore
SplineSet
481 928 m 1
 530 872 l 1
 391 752 l 1
 311 752 l 1
 172 872 l 1
 221 928 l 1
 351 845 l 1
 481 928 l 1
345 706 m 0
 433 706 490 680 547 633 c 1
 480 555 l 1
 440 587 399 604 352 604 c 0
 256 604 182 534 182 347 c 0
 182 165 254 91 352 91 c 0
 412 91 453 117 493 147 c 1
 555 69 l 1
 513 26 441 -15 347 -15 c 0
 168 -15 43 112 43 347 c 0
 43 579 175 706 345 706 c 0
EndSplineSet
EndChar
StartChar: dcaron
Encoding: 271 271 205
Width: 646
Flags: W
HStem: -15 97<248.5 278> 0 21G<404 517 404 404> 448 96<255 284 190.5 309.5> 721 20G<517 517> 734 20G<585 585> 735 20G<389 389>
VStem: 43 135<197 328.5 197 345.5> 389 128<150 392 392 392 487 741 0 755 0 755>
LayerCount: 2
Fore
SplineSet
389 487 m 1xa7
 389 755 l 1xa7
 517 741 l 1
 517 0 l 1
 404 0 l 1x73
 395 67 l 1
 363 19 312 -15 244 -15 c 0
 112 -15 43 96 43 264 c 0
 43 427 125 544 256 544 c 0
 312 544 356 520 389 487 c 1xa7
585 754 m 1xab
 688 740 l 1
 635 539 l 1
 563 550 l 1
 585 754 l 1xab
280 82 m 0
 327 82 359 105 389 150 c 1
 389 392 l 1
 361 426 331 448 288 448 c 0
 222 448 178 392 178 265 c 0
 178 129 217 82 280 82 c 0
EndSplineSet
EndChar
StartChar: uni0110
Encoding: 272 272 207
Width: 661
Flags: W
HStem: 0 99<226 282> 310 86<17 94 17 94 226 371> 592 99<226 264 264 287 226 226>
VStem: 94 132<99 310 99 310 99 310 396 592> 479 139<247 453>
LayerCount: 2
Fore
SplineSet
264 691 m 2
 446 691 618 635 618 349 c 0
 618 69 447 0 282 0 c 2
 94 0 l 1
 94 310 l 1
 17 310 l 1
 17 396 l 1
 94 396 l 1
 94 691 l 1
 264 691 l 2
291 99 m 2
 394 99 479 145 479 349 c 0
 479 557 389 592 287 592 c 2
 226 592 l 1
 226 396 l 1
 371 396 l 1
 371 310 l 1
 226 310 l 1
 226 99 l 1
 291 99 l 2
EndSplineSet
EndChar
StartChar: dcroat
Encoding: 273 273 207
Width: 606
Flags: W
HStem: -15 97<248.5 278> 0 21G<404 517 404 404> 448 96<255 284 190.5 309.5> 601 82<248 389 248 389 517 592> 721 20G<517 517> 735 20G<389 389>
VStem: 43 135<197 328.5 197 345.5> 389 128<150 392 392 392 487 601 0 601 683 741>
LayerCount: 2
Fore
SplineSet
517 683 m 1xb7
 592 683 l 1
 592 601 l 1
 517 601 l 1
 517 0 l 1
 404 0 l 1x77
 395 67 l 1
 363 19 312 -15 244 -15 c 0
 112 -15 43 96 43 264 c 0
 43 427 125 544 256 544 c 0
 312 544 356 520 389 487 c 1
 389 601 l 1
 248 601 l 1
 248 683 l 1
 389 683 l 1
 389 755 l 1xb7
 517 741 l 1xbb
 517 683 l 1xb7
280 82 m 0xb7
 327 82 359 105 389 150 c 1
 389 392 l 1
 361 426 331 448 288 448 c 0
 222 448 178 392 178 265 c 0
 178 129 217 82 280 82 c 0xb7
EndSplineSet
EndChar
StartChar: uni0112
Encoding: 274 274 209
Width: 530
Flags: W
HStem: 0 99<213 486 213 486> 302 98<213 435 213 435> 593 98<213 468 213 213> 787 91<138 429 138 429>
VStem: 81 132<99 302 400 593> 138 291<787 878 787 878>
LayerCount: 2
Fore
SplineSet
429 787 m 1xf4
 138 787 l 1
 138 878 l 1
 429 878 l 1
 429 787 l 1xf4
482 691 m 1
 468 593 l 1
 213 593 l 1
 213 400 l 1
 435 400 l 1
 435 302 l 1
 213 302 l 1
 213 99 l 1
 486 99 l 1
 486 0 l 1
 81 0 l 1
 81 691 l 1xf8
 482 691 l 1
EndSplineSet
EndChar
StartChar: Edotaccent
Encoding: 278 278 212
Width: 530
Flags: W
HStem: 0 99<213 486 213 486> 302 98<213 435 213 435> 593 98<213 468 213 213> 768 155<259.5 307>
VStem: 81 132<99 302 400 593> 203 161<823.5 867>
LayerCount: 2
Fore
SplineSet
283 923 m 0xf4
 331 923 364 889 364 845 c 0
 364 802 331 768 283 768 c 0
 236 768 203 802 203 845 c 0
 203 889 236 923 283 923 c 0xf4
482 691 m 1
 468 593 l 1
 213 593 l 1
 213 400 l 1
 435 400 l 1
 435 302 l 1
 213 302 l 1
 213 99 l 1
 486 99 l 1
 486 0 l 1
 81 0 l 1
 81 691 l 1xe8
 482 691 l 1
EndSplineSet
EndChar
StartChar: Eogonek
Encoding: 280 280 214
Width: 530
Flags: W
HStem: -239 85<361 377> 0 99<213 317 446 486 446 446> 302 98<213 435 213 435> 593 98<213 468 213 213>
VStem: 81 132<99 99 99 302 400 593> 227 98<-123 -102>
LayerCount: 2
Fore
SplineSet
213 99 m 1
 486 99 l 1
 486 0 l 1
 446 0 l 1
 346 -40 325 -76 325 -108 c 0
 325 -138 342 -154 380 -154 c 0
 400 -154 417 -152 441 -147 c 1
 431 -232 l 1
 410 -236 390 -239 364 -239 c 0
 282 -239 227 -195 227 -130 c 0
 227 -74 259 -32 317 0 c 1xfc
 81 0 l 1
 81 691 l 1
 482 691 l 1
 468 593 l 1
 213 593 l 1
 213 400 l 1
 435 400 l 1
 435 302 l 1
 213 302 l 1
 213 99 l 1
EndSplineSet
EndChar
StartChar: eogonek
Encoding: 281 281 215
Width: 549
Flags: W
HStem: -231 85<323 339.5> -14 21G 225 83<176 384 176 508 176 384> 453 91<251 317>
VStem: 43 133<225 225 225 308 225 341.5> 189 99<-115 -98.5> 384 127<308 314 314 357.5>
LayerCount: 2
Fore
SplineSet
511 277 m 0
 511 260 509 239 508 225 c 1
 176 225 l 1xfa
 185 117 236 82 306 82 c 0
 353 82 392 97 438 129 c 1
 491 56 l 1
 460 31 425 11 386 -1 c 1
 305 -38 288 -71 288 -100 c 0
 288 -130 304 -146 342 -146 c 0
 362 -146 380 -144 403 -139 c 1
 393 -224 l 1
 372 -228 353 -231 326 -231 c 0
 245 -231 189 -187 189 -122 c 0xfe
 189 -75 217 -39 263 -14 c 1
 120 0 43 105 43 261 c 0
 43 422 128 544 278 544 c 0
 426 544 511 444 511 277 c 0
384 308 m 1
 384 314 l 2
 384 401 353 453 281 453 c 0
 221 453 183 413 176 308 c 1
 384 308 l 1
EndSplineSet
EndChar
StartChar: uni011E
Encoding: 286 286 221
Width: 638
Flags: W
HStem: -15 101<292 365.5 292 391.5> 293 98<352 456 352 352> 606 100<315 393.5> 754 92<329 375 329 399>
VStem: 43 139<251.5 439 251.5 463> 456 130<113 293 293 293>
LayerCount: 2
Fore
SplineSet
352 754 m 0
 258 754 198 818 190 898 c 1
 265 913 l 1
 278 874 306 846 352 846 c 0
 398 846 428 874 440 913 c 1
 516 898 l 1
 508 818 446 754 352 754 c 0
360 706 m 0
 456 706 522 674 580 625 c 1
 509 551 l 1
 462 588 423 606 364 606 c 0
 266 606 182 532 182 346 c 0
 182 157 238 86 346 86 c 0
 385 86 423 94 456 113 c 1
 456 293 l 1
 352 293 l 1
 338 391 l 1
 586 391 l 1
 586 53 l 1
 517 11 435 -15 348 -15 c 0
 151 -15 43 109 43 346 c 0
 43 580 187 706 360 706 c 0
EndSplineSet
EndChar
StartChar: gdotaccent
Encoding: 289 289 223
Width: 537
Flags: W
HStem: -218 90<205.5 309.5 205.5 342.5> 5 96<168 327 246 301> 169 83<255.5 292.5 232.5 333.5> 457 87<231 258 194 292> 483 61 642 155<244.5 292>
VStem: 15 115<-78.5 -52 -78.5 -52> 39 129<324 386.5 324 411.5> 70 112<79.5 146> 188 161<697.5 741> 356 124<323.5 380 295.5 390.5> 391 129<-79 -38.5>
LayerCount: 2
Fore
SplineSet
268 797 m 0xf540
 316 797 349 763 349 719 c 0
 349 676 316 642 268 642 c 0
 221 642 188 676 188 719 c 0
 188 763 221 797 268 797 c 0xf540
505 603 m 1
 537 501 l 1
 497 487 447 483 384 483 c 1
 448 454 480 413 480 347 c 0
 480 244 400 169 267 169 c 0
 244 169 224 171 204 177 c 1
 191 168 182 154 182 138 c 0
 182 119 193 101 246 101 c 2xeca0
 327 101 l 2
 444 101 520 38 520 -49 c 0
 520 -155 429 -218 256 -218 c 0
 68 -218 15 -158 15 -52 c 1
 130 -52 l 1xf610
 130 -105 153 -128 258 -128 c 0
 361 -128 391 -100 391 -58 c 0
 391 -19 360 5 301 5 c 2
 221 5 l 2
 115 5 70 52 70 107 c 0xf490
 70 144 93 181 132 205 c 1
 67 239 39 286 39 354 c 0xf520
 39 469 130 544 258 544 c 0
 383 541 441 569 505 603 c 1
260 457 m 0xf520
 202 457 168 417 168 356 c 0
 168 292 203 252 262 252 c 0
 323 252 356 290 356 357 c 0
 356 424 324 457 260 457 c 0xf520
EndSplineSet
EndChar
StartChar: uni0122
Encoding: 290 290 225
Width: 638
Flags: W
HStem: -15 101<292 365.5 292 391.5> 293 98<352 456 352 352> 606 100<315 393.5>
VStem: 43 139<251.5 439 251.5 463> 278 139<-151 -121> 456 130<113 293 293 293>
LayerCount: 2
Fore
SplineSet
360 706 m 0
 456 706 522 674 580 625 c 1
 509 551 l 1
 462 588 423 606 364 606 c 0
 266 606 182 532 182 346 c 0
 182 157 238 86 346 86 c 0
 385 86 423 94 456 113 c 1
 456 293 l 1
 352 293 l 1
 338 391 l 1
 586 391 l 1
 586 53 l 1
 517 11 435 -15 348 -15 c 0
 151 -15 43 109 43 346 c 0
 43 580 187 706 360 706 c 0
348 -72 m 0
 387 -72 417 -101 417 -140 c 0
 417 -162 410 -180 390 -221 c 2
 346 -312 l 1
 279 -312 l 1
 307 -196 l 1
 290 -183 278 -164 278 -140 c 0
 278 -102 308 -72 348 -72 c 0
EndSplineSet
EndChar
StartChar: Hcircumflex
Encoding: 292 292 226
Width: 672
Flags: W
HStem: 0 21G<81 213 81 81 459 592 459 459> 309 105<213 459 213 459> 671 20G<81 213 213 213 459 592 592 592>
VStem: 81 132<0 309 0 414 414 691> 459 133<0 309 309 309 414 691 0 691>
LayerCount: 2
Fore
SplineSet
206 757 m 1
 157 812 l 1
 296 933 l 1
 376 933 l 1
 515 812 l 1
 466 757 l 1
 336 839 l 1
 206 757 l 1
459 0 m 1
 459 309 l 1
 213 309 l 1
 213 0 l 1
 81 0 l 1
 81 691 l 1
 213 691 l 1
 213 414 l 1
 459 414 l 1
 459 691 l 1
 592 691 l 1
 592 0 l 1
 459 0 l 1
EndSplineSet
EndChar
StartChar: Hbar
Encoding: 294 294 228
Width: 682
Flags: W
HStem: 0 21G<86 218 86 86 464 597 464 464> 309 105<218 464 218 464> 504 81<23 86 23 86 218 464 597 659> 504 187<23 218 23 218 86 218 86 464>
VStem: 86 132<0 309 0 414 414 504 585 691> 464 133<0 309 309 309 414 504 0 504 585 691>
LayerCount: 2
Fore
SplineSet
659 585 m 1xec
 659 504 l 1
 597 504 l 1
 597 0 l 1
 464 0 l 1
 464 309 l 1
 218 309 l 1
 218 0 l 1
 86 0 l 1
 86 504 l 1
 23 504 l 1xdc
 23 585 l 1
 86 585 l 1xec
 86 691 l 1
 218 691 l 1xdc
 218 585 l 1
 464 585 l 1xec
 464 691 l 1
 597 691 l 1xdc
 597 585 l 1
 659 585 l 1xec
464 414 m 1
 464 504 l 1
 218 504 l 1
 218 414 l 1
 464 414 l 1
EndSplineSet
EndChar
StartChar: uni0127
Encoding: 295 295 230
Width: 583
Flags: W
HStem: 0 21G<82 210 82 82 387 515 387 387> 448 96<333 340.5> 601 82<15 82 15 82 210 352> 733 20G<210 210>
VStem: 82 128<0 369 0 465 465 601 683 740 740 740> 387 128<0 363 363 383 0 396>
LayerCount: 2
Fore
SplineSet
365 544 m 0
 458 544 515 483 515 383 c 2
 515 0 l 1
 387 0 l 1
 387 363 l 2
 387 429 360 448 321 448 c 0
 276 448 241 417 210 369 c 1
 210 0 l 1
 82 0 l 1
 82 601 l 1
 15 601 l 1
 15 683 l 1
 82 683 l 1
 82 740 l 1
 210 753 l 1
 210 683 l 1
 352 683 l 1
 352 601 l 1
 210 601 l 1
 210 465 l 1
 250 516 301 544 365 544 c 0
EndSplineSet
EndChar
StartChar: uni0128
Encoding: 296 296 231
Width: 294
Flags: W
HStem: 0 21G<81 213 81 81> 671 20G<81 213 213 213> 770 94<186.5 214.5 186.5 231> 817 93<78 107>
VStem: 81 132<0 691 0 691>
LayerCount: 2
Fore
SplineSet
205 770 m 0xe8
 149 770 124 817 90 817 c 0
 66 817 53 801 37 772 c 1
 -32 806 l 1
 -8 863 32 910 88 910 c 0xd8
 147 910 169 864 204 864 c 0
 225 864 239 878 257 907 c 1
 325 873 l 1
 299 811 257 770 205 770 c 0xe8
213 691 m 1xd8
 213 0 l 1
 81 0 l 1
 81 691 l 1
 213 691 l 1xd8
EndSplineSet
EndChar
StartChar: uni012A
Encoding: 298 298 233
Width: 294
Flags: W
HStem: 0 21G<81 213 81 81> 671 20G<81 213 213 213> 787 91<1 292 1 292>
VStem: 81 132<0 691 0 691>
LayerCount: 2
Fore
SplineSet
292 787 m 1
 1 787 l 1
 1 878 l 1
 292 878 l 1
 292 787 l 1
213 691 m 1
 213 0 l 1
 81 0 l 1
 81 691 l 1
 213 691 l 1
EndSplineSet
EndChar
StartChar: imacron
Encoding: 299 299 233
Width: 278
Flags: W
HStem: 0 21G<75 203 75 75> 509 20G<75 203 203 203> 661 91<-7 284 -7 284>
VStem: 75 128<0 529 0 529>
LayerCount: 2
Fore
SplineSet
284 661 m 1
 -7 661 l 1
 -7 752 l 1
 284 752 l 1
 284 661 l 1
203 529 m 1
 203 0 l 1
 75 0 l 1
 75 529 l 1
 203 529 l 1
EndSplineSet
EndChar
StartChar: Ibreve
Encoding: 300 300 234
Width: 294
Flags: W
HStem: 0 21G<81 213 81 81> 671 20G<81 213 213 213> 754 92<122 168 122 192>
VStem: 81 132<0 691 0 691>
LayerCount: 2
Fore
SplineSet
145 754 m 0
 51 754 -9 818 -17 898 c 1
 58 913 l 1
 71 874 99 846 145 846 c 0
 191 846 221 874 233 913 c 1
 309 898 l 1
 301 818 239 754 145 754 c 0
213 691 m 1
 213 0 l 1
 81 0 l 1
 81 691 l 1
 213 691 l 1
EndSplineSet
EndChar
StartChar: IJ
Encoding: 306 306 240
Width: 606
Flags: W
HStem: 0 21G<81 213 81 81> 671 20G<81 213 213 213 396 529 529 529>
VStem: 81 132<0 691 0 691> 396 133<106 691>
LayerCount: 2
Fore
SplineSet
213 691 m 1
 213 0 l 1
 81 0 l 1
 81 691 l 1
 213 691 l 1
529 691 m 1
 529 101 l 2
 529 -60 440 -118 326 -155 c 1
 291 -60 l 1
 381 -25 396 19 396 106 c 2
 396 691 l 1
 529 691 l 1
EndSplineSet
EndChar
StartChar: Jcircumflex
Encoding: 308 308 242
Width: 312
Flags: W
HStem: 671 20G<102 235 235 235>
VStem: 102 133<106 691>
LayerCount: 2
Fore
SplineSet
39 757 m 1
 -10 812 l 1
 129 933 l 1
 209 933 l 1
 348 812 l 1
 299 757 l 1
 169 839 l 1
 39 757 l 1
235 691 m 1
 235 101 l 2
 235 -60 146 -118 32 -155 c 1
 -3 -60 l 1
 87 -25 102 19 102 106 c 2
 102 691 l 1
 235 691 l 1
EndSplineSet
EndChar
StartChar: uni0135
Encoding: 309 309 244
Width: 279
Flags: W
HStem: -217 21G<11 11> 509 20G<76 204 204 204>
VStem: 76 128<39 47 47 529>
LayerCount: 2
Fore
SplineSet
10 627 m 1
 -39 682 l 1
 99 808 l 1
 180 808 l 1
 319 682 l 1
 270 627 l 1
 140 715 l 1
 10 627 l 1
204 529 m 1
 204 47 l 2
 204 -115 130 -169 11 -217 c 1
 -30 -124 l 1
 39 -92 76 -65 76 39 c 2
 76 529 l 1
 204 529 l 1
EndSplineSet
EndChar
StartChar: uni0137
Encoding: 311 311 245
Width: 532
Flags: W
HStem: 0 21G<75 203 75 75 390 390 390 537> 509 20G<385 520 520 520> 721 20G<75 75> 735 20G<203 203>
VStem: 75 128<0 741 741 741> 196 139<-151 -121>
LayerCount: 2
Fore
SplineSet
203 755 m 1xd8
 203 0 l 1
 75 0 l 1
 75 741 l 1xe8
 203 755 l 1xd8
520 529 m 1
 344 296 l 1
 537 0 l 1
 390 0 l 1
 208 289 l 1
 385 529 l 1
 520 529 l 1
266 -72 m 0xd4
 305 -72 335 -101 335 -140 c 0
 335 -162 328 -180 308 -221 c 2
 264 -312 l 1
 197 -312 l 1
 225 -196 l 1
 208 -183 196 -164 196 -140 c 0
 196 -102 226 -72 266 -72 c 0xd4
EndSplineSet
EndChar
StartChar: kgreenlandic
Encoding: 312 312 246
Width: 530
Flags: W
HStem: 0 21G<75 203 75 75 388 388 388 535> 509 20G<75 203 203 203 383 518 518 518>
VStem: 75 128<0 529 0 529>
LayerCount: 2
Fore
SplineSet
203 529 m 1
 203 0 l 1
 75 0 l 1
 75 529 l 1
 203 529 l 1
518 529 m 1
 342 286 l 1
 535 0 l 1
 388 0 l 1
 206 279 l 1
 383 529 l 1
 518 529 l 1
EndSplineSet
EndChar
StartChar: uni0139
Encoding: 313 313 248
Width: 506
Flags: W
HStem: 0 108<213 475> 671 20G<81 213 213 213>
VStem: 81 132<108 691 108 691 108 691>
LayerCount: 2
Fore
SplineSet
228 936 m 1
 278 836 l 1
 49 753 l 1
 16 819 l 1
 228 936 l 1
213 691 m 1
 213 108 l 1
 490 108 l 1
 475 0 l 1
 81 0 l 1
 81 691 l 1
 213 691 l 1
EndSplineSet
EndChar
StartChar: uni013B
Encoding: 315 315 250
Width: 506
Flags: W
HStem: 0 108<213 475> 671 20G<81 213 213 213>
VStem: 81 132<108 691 108 691 108 691> 210 139<-151 -121>
LayerCount: 2
Fore
SplineSet
213 691 m 1xe0
 213 108 l 1
 490 108 l 1
 475 0 l 1
 81 0 l 1
 81 691 l 1
 213 691 l 1xe0
280 -72 m 0xd0
 319 -72 349 -101 349 -140 c 0
 349 -162 342 -180 322 -221 c 2
 278 -312 l 1
 211 -312 l 1
 239 -196 l 1
 222 -183 210 -164 210 -140 c 0
 210 -102 240 -72 280 -72 c 0xd0
EndSplineSet
EndChar
StartChar: uni013C
Encoding: 316 316 250
Width: 297
Flags: W
HStem: -15 21G<157.5 214.5> -15 103<157.5 232.5> 721 20G<69 69> 735 20G<197 197>
VStem: 69 128<121 125 125 741 741 741> 110 139<-151 -121>
LayerCount: 2
Fore
SplineSet
198 -15 m 0x98
 117 -15 69 34 69 121 c 2
 69 741 l 1xa8
 197 755 l 1
 197 125 l 2
 197 100 205 88 227 88 c 0
 238 88 248 90 256 93 c 1x58
 284 3 l 1
 262 -7 231 -15 198 -15 c 0x98
180 -72 m 0x94
 219 -72 249 -101 249 -140 c 0
 249 -162 242 -180 222 -221 c 2
 178 -312 l 1
 111 -312 l 1
 139 -196 l 1
 122 -183 110 -164 110 -140 c 0
 110 -102 140 -72 180 -72 c 0x94
EndSplineSet
EndChar
StartChar: Lcaron
Encoding: 317 317 251
Width: 506
Flags: W
HStem: 0 108<213 475> 671 20G<81 213 213 213 386 386>
VStem: 81 132<108 691 108 691 108 691>
LayerCount: 2
Fore
SplineSet
333 490 m 1
 386 691 l 1
 283 705 l 1
 261 501 l 1
 333 490 l 1
213 691 m 1
 213 108 l 1
 490 108 l 1
 475 0 l 1
 81 0 l 1
 81 691 l 1
 213 691 l 1
EndSplineSet
EndChar
StartChar: lcaron
Encoding: 318 318 252
Width: 335
Flags: W
HStem: -15 21G<157.5 214.5> -15 103<157.5 232.5> 519 20G<311 311> 721 20G<69 69> 735 20G<197 197>
VStem: 69 128<121 125 125 741 741 741>
LayerCount: 2
Fore
SplineSet
198 -15 m 0xac
 117 -15 69 34 69 121 c 2
 69 741 l 1xb4
 197 755 l 1
 197 125 l 2
 197 100 205 88 227 88 c 0
 238 88 248 90 256 93 c 1x6c
 284 3 l 1
 262 -7 231 -15 198 -15 c 0xac
311 539 m 1
 364 740 l 1
 261 754 l 1
 239 550 l 1
 311 539 l 1
EndSplineSet
EndChar
StartChar: uni013F
Encoding: 319 319 254
Width: 506
Flags: W
HStem: 0 108<213 475> 317 155<371.5 419> 671 20G<81 213 213 213>
VStem: 81 132<108 691 108 691 108 691> 315 161<372.5 416>
LayerCount: 2
Fore
SplineSet
213 691 m 1
 213 108 l 1
 490 108 l 1
 475 0 l 1
 81 0 l 1
 81 691 l 1
 213 691 l 1
395 472 m 0
 443 472 476 438 476 394 c 0
 476 351 443 317 395 317 c 0
 348 317 315 351 315 394 c 0
 315 438 348 472 395 472 c 0
EndSplineSet
EndChar
StartChar: ldot
Encoding: 320 320 254
Width: 392
Flags: W
HStem: -15 21G<157.5 214.5> -15 103<157.5 232.5> 300 154<305.5 353> 721 20G<69 69> 735 20G<197 197>
VStem: 69 128<121 125 125 741 741 741> 249 161<355 399>
LayerCount: 2
Fore
SplineSet
198 -15 m 0xac
 117 -15 69 34 69 121 c 2
 69 741 l 1xb4
 197 755 l 1
 197 125 l 2
 197 100 205 88 227 88 c 0
 238 88 248 90 256 93 c 1x6c
 284 3 l 1
 262 -7 231 -15 198 -15 c 0xac
329 454 m 0xae
 377 454 410 421 410 377 c 0
 410 333 377 300 329 300 c 0
 282 300 249 333 249 377 c 0
 249 421 282 454 329 454 c 0xae
EndSplineSet
EndChar
StartChar: lslash
Encoding: 322 322 256
Width: 337
Flags: W
HStem: -15 21G<176.5 233.5> -15 103<176.5 250.5> 721 20G<87 87> 735 20G<215 215>
VStem: 87 128<121 125 125 281 281 281 460 741 741 741>
LayerCount: 2
Fore
SplineSet
245 88 m 0x58
 256 88 266 90 274 93 c 1x58
 302 3 l 1
 280 -7 250 -15 217 -15 c 0
 136 -15 87 34 87 121 c 2
 87 281 l 1
 44 255 l 1
 0 328 l 1
 87 383 l 1
 87 741 l 1xa8
 215 755 l 1
 215 460 l 1
 296 509 l 1
 339 435 l 1
 215 359 l 1
 215 125 l 2
 215 100 224 88 245 88 c 0x58
EndSplineSet
EndChar
StartChar: uni0145
Encoding: 325 325 260
Width: 672
Flags: W
HStem: 0 21G<81 201 81 81 420 591 420 420> 0 131<489 489 489 591 420 489> 559 132<183 183> 671 20G<81 248 248 248 471 591 591 591>
VStem: 81 120<0 282 0 691> 269 139<-151 -121> 471 120<367 691 0 691>
LayerCount: 2
Fore
SplineSet
591 691 m 1x9a
 591 0 l 1
 420 0 l 1
 183 559 l 1xae
 190 498 201 410 201 282 c 2
 201 0 l 1
 81 0 l 1
 81 691 l 1
 248 691 l 1
 489 131 l 1x5a
 483 169 471 269 471 367 c 2
 471 691 l 1
 591 691 l 1x9a
339 -72 m 0
 378 -72 408 -101 408 -140 c 0
 408 -162 401 -180 381 -221 c 2
 337 -312 l 1
 270 -312 l 1
 298 -196 l 1
 281 -183 269 -164 269 -140 c 0
 269 -102 299 -72 339 -72 c 0
EndSplineSet
EndChar
StartChar: Ncaron
Encoding: 327 327 261
Width: 672
Flags: W
HStem: 0 21G<81 201 81 81 420 591 420 420> 0 131<489 489 489 591 420 489> 559 132<183 183> 671 20G<81 248 248 248 471 591 591 591>
VStem: 81 120<0 282 0 691> 471 120<367 691 0 691>
LayerCount: 2
Fore
SplineSet
474 928 m 1x9c
 523 872 l 1
 384 752 l 1
 304 752 l 1
 165 872 l 1
 214 928 l 1
 344 845 l 1
 474 928 l 1x9c
591 691 m 1
 591 0 l 1
 420 0 l 1
 183 559 l 1xac
 190 498 201 410 201 282 c 2
 201 0 l 1
 81 0 l 1
 81 691 l 1
 248 691 l 1
 489 131 l 1x5c
 483 169 471 269 471 367 c 2
 471 691 l 1
 591 691 l 1
EndSplineSet
EndChar
StartChar: ncaron
Encoding: 328 328 262
Width: 576
Flags: W
HStem: 0 21G<75 203 75 75 379 507 379 379> 448 96<323.5 334> 509 20G<75 186 186 186> 724 20G<115 115 473 473>
VStem: 75 128<0 368 0 529> 379 128<0 363 363 383 0 396>
LayerCount: 2
Fore
SplineSet
334 619 m 1xbc
 254 619 l 1
 115 744 l 1
 164 800 l 1
 294 712 l 1
 424 800 l 1
 473 744 l 1
 334 619 l 1xbc
357 544 m 0xdc
 452 544 507 484 507 383 c 2
 507 0 l 1
 379 0 l 1
 379 363 l 2
 379 429 354 448 314 448 c 0
 268 448 234 417 203 368 c 1xdc
 203 0 l 1
 75 0 l 1
 75 529 l 1
 186 529 l 1xbc
 196 460 l 1
 237 513 290 544 357 544 c 0xdc
EndSplineSet
EndChar
StartChar: napostrophe
Encoding: 329 329 263
Width: 693
Flags: W
HStem: 0 21G<193 321 193 193 497 625 497 497> 448 96<441.5 452> 509 20G<193 303 303 303> 737 20G<85 121>
VStem: 38 128<684 711.5> 193 128<0 368 0 529> 497 128<0 363 363 383 0 396>
LayerCount: 2
Fore
SplineSet
103 757 m 0xde
 139 757 166 730 166 694 c 0
 166 674 160 657 141 618 c 2
 100 534 l 1
 39 534 l 1
 65 642 l 1
 50 655 38 672 38 694 c 0
 38 729 67 757 103 757 c 0xde
475 544 m 0
 569 544 625 484 625 383 c 2
 625 0 l 1
 497 0 l 1
 497 363 l 2
 497 429 472 448 432 448 c 0
 386 448 351 417 321 368 c 1xd6
 321 0 l 1
 193 0 l 1
 193 529 l 1
 303 529 l 1xb6
 314 459 l 1
 354 512 408 544 475 544 c 0
EndSplineSet
EndChar
StartChar: uni014A
Encoding: 330 330 265
Width: 672
Flags: W
HStem: -218 100<386 420 386 467> 0 21G<81 201 81 81 420 459 420 420> 559 132<183 183> 671 20G<81 248 248 248 471 591 591 591>
VStem: 81 120<0 282 0 691> 471 120<367 691>
LayerCount: 2
Fore
SplineSet
471 691 m 1xdc
 591 691 l 1
 591 -43 l 2
 591 -160 521 -218 413 -218 c 0
 354 -218 313 -199 284 -177 c 1
 330 -97 l 1
 353 -110 370 -118 402 -118 c 0
 438 -118 459 -97 459 -51 c 2
 459 0 l 1
 420 0 l 1
 183 559 l 1xec
 190 498 201 410 201 282 c 2
 201 0 l 1
 81 0 l 1
 81 691 l 1
 248 691 l 1
 489 131 l 1
 483 169 471 269 471 367 c 2
 471 691 l 1xdc
EndSplineSet
EndChar
StartChar: uni014C
Encoding: 332 332 267
Width: 691
Flags: W
HStem: -15 101<295.5 397.5 295.5 438.5> 605 101<294.5 398> 787 91<200 491 200 491>
VStem: 43 139<252 438 252 458.5> 200 291<787 878 787 878> 509 139<252.5 438.5>
LayerCount: 2
Fore
SplineSet
491 787 m 1
 200 787 l 1
 200 878 l 1
 491 878 l 1
 491 787 l 1
346 706 m 0xf4
 531 706 648 577 648 346 c 0
 648 118 531 -15 346 -15 c 0
 161 -15 43 114 43 345 c 0
 43 572 161 706 346 706 c 0xf4
346 605 m 0
 243 605 182 531 182 345 c 0
 182 159 245 86 346 86 c 0
 449 86 509 159 509 346 c 0
 509 531 450 605 346 605 c 0
EndSplineSet
EndChar
StartChar: Obreve
Encoding: 334 334 268
Width: 691
Flags: W
HStem: -15 101<295.5 397.5 295.5 438.5> 605 101<294.5 398> 754 92<321 367 321 391>
VStem: 43 139<252 438 252 458.5> 509 139<252.5 438.5>
LayerCount: 2
Fore
SplineSet
344 754 m 0
 250 754 190 818 182 898 c 1
 257 913 l 1
 270 874 298 846 344 846 c 0
 390 846 420 874 432 913 c 1
 508 898 l 1
 500 818 438 754 344 754 c 0
346 706 m 0
 531 706 648 577 648 346 c 0
 648 118 531 -15 346 -15 c 0
 161 -15 43 114 43 345 c 0
 43 572 161 706 346 706 c 0
346 605 m 0
 243 605 182 531 182 345 c 0
 182 159 245 86 346 86 c 0
 449 86 509 159 509 346 c 0
 509 531 450 605 346 605 c 0
EndSplineSet
EndChar
StartChar: uni0151
Encoding: 337 337 272
Width: 584
Flags: W
HStem: -15 97<254.5 329.5 254.5 370> 447 97<255.5 330> 728 20G<529 529>
VStem: 43 135<201.5 327.5 201.5 348> 406 135<202 328>
LayerCount: 2
Fore
SplineSet
286 813 m 1
 369 762 l 1
 245 599 l 1
 186 633 l 1
 286 813 l 1
448 805 m 1
 529 748 l 1
 396 593 l 1
 340 630 l 1
 448 805 l 1
293 544 m 0
 449 544 541 438 541 265 c 0
 541 98 448 -15 292 -15 c 0
 136 -15 43 91 43 265 c 0
 43 431 136 544 293 544 c 0
293 447 m 0
 218 447 178 390 178 265 c 0
 178 138 217 82 292 82 c 0
 367 82 406 139 406 265 c 0
 406 391 367 447 293 447 c 0
EndSplineSet
EndChar
StartChar: OE
Encoding: 338 338 272
Width: 901
Flags: W
HStem: -15 101<290.5 346> 0 86<290.5 857 290.5 416> 0 99<546 857 546 857> 302 98<626 807 626 626> 593 98<551 839 551 551> 605 86<289.5 854> 605 101<289.5 347 246 383>
VStem: 43 139<252 438 252 458.5> 489 136<400 400 400 438.5>
LayerCount: 2
Fore
SplineSet
857 99 m 1x3980
 857 0 l 1
 416 0 l 1x3980
 390 -10 361 -15 331 -15 c 0
 161 -15 43 114 43 345 c 0
 43 572 161 706 331 706 c 0x9380
 363 706 393 701 420 691 c 1
 854 691 l 1
 839 593 l 1
 551 593 l 1
 593 544 618 477 625 400 c 1
 807 400 l 1
 807 302 l 1
 626 302 l 1
 619 222 592 151 546 99 c 1
 857 99 l 1x3980
182 345 m 0x5580
 182 159 245 86 336 86 c 0
 429 86 489 159 489 346 c 0
 489 531 430 605 336 605 c 0
 243 605 182 531 182 345 c 0x5580
EndSplineSet
EndChar
StartChar: oe
Encoding: 339 339 273
Width: 912
Flags: W
HStem: -15 97<254.5 329 254.5 332.5 633 692> 225 83<539 747 538 870 539 539> 447 97<255 329> 453 91<615 681>
VStem: 43 135<201.5 327.5 201.5 348> 406 132<308 308 308 327.5> 747 126<308 314 314 314>
LayerCount: 2
Fore
SplineSet
873 277 m 0xee
 873 260 871 239 870 225 c 1
 539 225 l 1
 548 117 598 82 668 82 c 0
 716 82 754 97 800 129 c 1
 853 56 l 1
 801 14 737 -15 657 -15 c 0
 571 -15 512 19 472 77 c 1
 431 19 373 -15 292 -15 c 0
 135 -15 43 91 43 265 c 0
 43 431 136 544 292 544 c 0
 373 544 432 512 473 455 c 1
 512 510 568 544 644 544 c 0
 788 544 873 444 873 277 c 0xee
747 308 m 1
 747 314 l 2
 746 401 715 453 647 453 c 0xde
 583 453 546 413 538 308 c 1
 747 308 l 1
292 82 m 0
 366 82 406 139 406 265 c 0
 406 390 366 447 292 447 c 0xee
 218 447 178 390 178 265 c 0
 178 138 217 82 292 82 c 0
EndSplineSet
EndChar
StartChar: racute
Encoding: 341 341 275
Width: 392
Flags: W
HStem: 0 21G<75 203 75 75> 418 125<305 329.5> 509 20G<75 186 186 186> 516 20G<389 389> 536 7
VStem: 75 128<0 282 0 529>
LayerCount: 2
Fore
SplineSet
361 720 m 1x94
 135 630 l 1
 99 695 l 1
 309 820 l 1
 361 720 l 1x94
336 543 m 0xc4
 355 543 372 541 389 536 c 1x8c
 367 412 l 1
 351 416 339 418 320 418 c 0xc4
 256 418 223 371 203 282 c 1
 203 0 l 1
 75 0 l 1
 75 529 l 1
 186 529 l 1xa4
 198 425 l 1
 223 501 274 543 336 543 c 0xc4
EndSplineSet
EndChar
StartChar: uni0156
Encoding: 342 342 276
Width: 611
Flags: W
HStem: 0 21G<81 213 81 81 450 602 450 450> 277 95<213 295 295 297 213 295> 595 96<213 213 213 284>
VStem: 81 132<0 277 0 372 372 595> 242 139<-151 -121> 423 138<446.5 525.5>
LayerCount: 2
Fore
SplineSet
421 301 m 1
 602 0 l 1
 450 0 l 1
 297 277 l 1
 213 277 l 1
 213 0 l 1
 81 0 l 1
 81 691 l 1
 287 691 l 2
 468 691 561 625 561 488 c 0
 561 394 515 338 421 301 c 1
213 595 m 1
 213 372 l 1
 295 372 l 2
 377 372 423 405 423 488 c 0
 423 563 380 595 284 595 c 2
 213 595 l 1
312 -72 m 0xfc
 351 -72 381 -101 381 -140 c 0
 381 -162 374 -180 354 -221 c 2
 310 -312 l 1
 243 -312 l 1
 271 -196 l 1
 254 -183 242 -164 242 -140 c 0
 242 -102 272 -72 312 -72 c 0xfc
EndSplineSet
EndChar
StartChar: uni0157
Encoding: 343 343 277
Width: 392
Flags: W
HStem: 0 21G<75 203 75 75> 418 125<305 329.5> 509 20G<75 186 186 186> 516 20G<389 389> 536 7
VStem: 71 139<-151 -121> 75 128<0 282 0 529>
LayerCount: 2
Fore
SplineSet
336 543 m 0xc2
 355 543 372 541 389 536 c 1x8a
 367 412 l 1
 351 416 339 418 320 418 c 0xc2
 256 418 223 371 203 282 c 1
 203 0 l 1
 75 0 l 1
 75 529 l 1
 186 529 l 1xa2
 198 425 l 1
 223 501 274 543 336 543 c 0xc2
141 -72 m 0x94
 180 -72 210 -101 210 -140 c 0
 210 -162 203 -180 183 -221 c 2
 139 -312 l 1
 72 -312 l 1
 100 -196 l 1
 83 -183 71 -164 71 -140 c 0
 71 -102 101 -72 141 -72 c 0x94
EndSplineSet
EndChar
StartChar: Rcaron
Encoding: 344 344 278
Width: 611
Flags: W
HStem: 0 21G<81 213 81 81 450 602 450 450> 277 95<213 295 295 297 213 295> 595 96<213 213 213 284>
VStem: 81 132<0 277 0 372 372 595> 423 138<446.5 525.5>
LayerCount: 2
Fore
SplineSet
340 752 m 1
 260 752 l 1
 121 872 l 1
 170 928 l 1
 300 845 l 1
 430 928 l 1
 479 872 l 1
 340 752 l 1
450 0 m 1
 297 277 l 1
 213 277 l 1
 213 0 l 1
 81 0 l 1
 81 691 l 1
 287 691 l 2
 468 691 561 625 561 488 c 0
 561 394 515 338 421 301 c 1
 602 0 l 1
 450 0 l 1
213 595 m 1
 213 372 l 1
 295 372 l 2
 377 372 423 405 423 488 c 0
 423 563 380 595 284 595 c 2
 213 595 l 1
EndSplineSet
EndChar
StartChar: uni015D
Encoding: 349 349 284
Width: 474
Flags: W
HStem: -15 95<196 251.5 196 286.5> 449 95<223.5 272.5>
VStem: 40 129<378.5 412 378.5 434> 317 132<124 166>
LayerCount: 2
Fore
SplineSet
117 627 m 1
 68 682 l 1
 206 808 l 1
 287 808 l 1
 426 682 l 1
 377 627 l 1
 247 715 l 1
 117 627 l 1
244 544 m 0
 320 544 382 520 432 481 c 1
 382 406 l 1
 338 434 296 449 249 449 c 0
 198 449 169 428 169 396 c 0
 169 361 190 345 280 320 c 0
 388 291 449 247 449 153 c 0
 449 43 347 -15 226 -15 c 0
 135 -15 64 16 15 60 c 1
 79 132 l 1
 120 101 169 80 223 80 c 0
 280 80 317 104 317 144 c 0
 317 188 296 202 197 230 c 0
 88 260 40 312 40 390 c 0
 40 478 121 544 244 544 c 0
EndSplineSet
EndChar
StartChar: uni015E
Encoding: 350 350 285
Width: 560
Flags: W
HStem: -253 75<252.5 279 252.5 314> -14 101<234 234> 605 101<257 316.5>
VStem: 45 136<498 550 498 572.5> 228.5 83.5 314 97<-156.5 -131> 390 138<156.5 219>
LayerCount: 2
Fore
SplineSet
528 197 m 0xfa
 528 85 449 2 312 -13 c 1
 312 -52 l 1xfa
 382 -59 411 -96 411 -144 c 0
 411 -211 354 -253 274 -253 c 0
 231 -253 194 -241 171 -225 c 1
 202 -162 l 1
 221 -172 240 -178 265 -178 c 0
 293 -178 314 -169 314 -144 c 0xf4
 314 -118 287 -106 223 -106 c 1
 234 -14 l 1
 140 -7 68 30 17 80 c 1
 85 156 l 1
 136 113 191 87 263 87 c 0
 337 87 390 123 390 190 c 0
 390 248 361 274 253 307 c 0
 108 352 45 410 45 515 c 0
 45 630 144 706 280 706 c 0
 381 706 448 676 508 621 c 1
 443 546 l 1
 393 587 345 605 288 605 c 0
 226 605 181 577 181 523 c 0
 181 473 208 451 323 415 c 0
 444 377 528 327 528 197 c 0xfa
EndSplineSet
EndChar
StartChar: uni015F
Encoding: 351 351 286
Width: 474
Flags: W
HStem: -253 75<213.5 240 213.5 275> -14 94<195 251.5> -12 21G<273 273> 449 95<223.5 272.5>
VStem: 40 129<378.5 412 378.5 434> 189.5 83.5 275 97<-156.5 -131> 317 132<124 166>
LayerCount: 2
Fore
SplineSet
449 153 m 0xb9
 449 58 372 1 273 -12 c 1
 273 -52 l 1xbd
 343 -59 372 -96 372 -144 c 0
 372 -211 315 -253 235 -253 c 0
 192 -253 155 -241 132 -225 c 1
 163 -162 l 1
 182 -172 201 -178 226 -178 c 0
 254 -178 275 -169 275 -144 c 0xba
 275 -118 248 -106 184 -106 c 1
 195 -14 l 1
 119 -8 58 21 15 60 c 1
 79 132 l 1
 120 101 169 80 223 80 c 0
 280 80 317 104 317 144 c 0xdd
 317 188 296 202 197 230 c 0
 88 260 40 312 40 390 c 0
 40 478 121 544 244 544 c 0
 320 544 382 520 432 481 c 1
 382 406 l 1
 338 434 296 449 249 449 c 0
 198 449 169 428 169 396 c 0
 169 361 190 345 280 320 c 0
 388 291 449 247 449 153 c 0xb9
EndSplineSet
EndChar
StartChar: scaron
Encoding: 353 353 287
Width: 474
Flags: W
HStem: -15 95<196 251.5 196 286.5> 449 95<223.5 272.5> 724 20G<68 68 426 426>
VStem: 40 129<378.5 412 378.5 434> 317 132<124 166>
LayerCount: 2
Fore
SplineSet
377 800 m 1
 426 744 l 1
 287 619 l 1
 207 619 l 1
 68 744 l 1
 117 800 l 1
 247 712 l 1
 377 800 l 1
244 544 m 0
 320 544 382 520 432 481 c 1
 382 406 l 1
 338 434 296 449 249 449 c 0
 198 449 169 428 169 396 c 0
 169 361 190 345 280 320 c 0
 388 291 449 247 449 153 c 0
 449 43 347 -15 226 -15 c 0
 135 -15 64 16 15 60 c 1
 79 132 l 1
 120 101 169 80 223 80 c 0
 280 80 317 104 317 144 c 0
 317 188 296 202 197 230 c 0
 88 260 40 312 40 390 c 0
 40 478 121 544 244 544 c 0
EndSplineSet
EndChar
StartChar: uni0162
Encoding: 354 354 289
Width: 530
Flags: W
HStem: -253 75<271.5 298 271.5 333> 0 21G<198 257 198 198> 586 105<12 198 12 525 331 331 331 511>
VStem: 198 133<0 586> 335 97<-156 -130.5>
LayerCount: 2
Fore
SplineSet
331 -52 m 1
 401 -59 432 -96 432 -144 c 0
 432 -211 374 -253 292 -253 c 0
 250 -253 214 -241 192 -225 c 1
 223 -162 l 1
 242 -172 260 -178 283 -178 c 0
 313 -178 335 -169 335 -143 c 0
 335 -118 308 -106 244 -106 c 1
 257 0 l 1xe8
 198 0 l 1
 198 586 l 1
 12 586 l 1
 12 691 l 1
 525 691 l 1
 511 586 l 1
 331 586 l 1
 331 -52 l 1
EndSplineSet
EndChar
StartChar: uni0163
Encoding: 355 355 289
Width: 375
Flags: W
HStem: -253 75<209.5 236 209.5 271> -14 21G<269 269> -14 102<269 269> -8 21G<192 192> 437 92<5 88 5 88 216 326>
VStem: 88 128<158 161 161 437 529 646 646 646> 186 83 271 97<-156.5 -131>
LayerCount: 2
Fore
SplineSet
269 -52 m 1xca
 339 -59 368 -96 368 -144 c 0
 368 -211 311 -253 231 -253 c 0
 188 -253 151 -241 128 -225 c 1
 159 -162 l 1
 178 -172 197 -178 222 -178 c 0
 250 -178 271 -169 271 -144 c 0x9d
 271 -118 244 -106 180 -106 c 1x9a
 192 -8 l 1x9c
 124 11 88 67 88 158 c 2
 88 437 l 1
 5 437 l 1
 5 529 l 1
 88 529 l 1
 88 646 l 1
 216 661 l 1
 216 529 l 1
 339 529 l 1
 326 437 l 1
 216 437 l 1
 216 161 l 2
 216 109 233 88 272 88 c 0
 292 88 312 94 335 107 c 1xac
 380 25 l 1
 348 2 309 -11 269 -14 c 1
 269 -52 l 1xca
EndSplineSet
EndChar
StartChar: Tcaron
Encoding: 356 356 290
Width: 530
Flags: W
HStem: 0 21G<198 331 198 198> 586 105<12 198 12 525 331 511 331 331>
VStem: 198 133<0 586 0 586>
LayerCount: 2
Fore
SplineSet
395 928 m 1
 444 872 l 1
 305 752 l 1
 225 752 l 1
 86 872 l 1
 135 928 l 1
 265 845 l 1
 395 928 l 1
525 691 m 1
 511 586 l 1
 331 586 l 1
 331 0 l 1
 198 0 l 1
 198 586 l 1
 12 586 l 1
 12 691 l 1
 525 691 l 1
EndSplineSet
EndChar
StartChar: uni0166
Encoding: 358 358 293
Width: 530
Flags: W
HStem: -1 21G<198 331 198 198> 306 82<80 198 80 198 331 451> 584 106<12 198 12 525 331 511 331 331>
VStem: 198 133<-1 306 -1 306 388 584>
LayerCount: 2
Fore
SplineSet
511 584 m 1
 331 584 l 1
 331 388 l 1
 451 388 l 1
 451 306 l 1
 331 306 l 1
 331 -1 l 1
 198 -1 l 1
 198 306 l 1
 80 306 l 1
 80 388 l 1
 198 388 l 1
 198 584 l 1
 12 584 l 1
 12 690 l 1
 525 690 l 1
 511 584 l 1
EndSplineSet
EndChar
StartChar: uni0169
Encoding: 361 361 296
Width: 571
Flags: W
HStem: -15 97<239 252.5> 0 21G<385 496 385 385> 509 20G<69 197 197 197 368 496 496 496> 644 94<322.5 350.5 322.5 367> 691 93<214 243> 727 20G<461 461>
VStem: 69 128<149 165 165 529> 368 128<157 529 0 529>
LayerCount: 2
Fore
SplineSet
341 644 m 0x73
 285 644 260 691 226 691 c 0
 202 691 189 675 173 646 c 1
 104 680 l 1
 128 737 168 784 224 784 c 0x6b
 283 784 305 738 340 738 c 0
 361 738 375 752 393 781 c 1x73
 461 747 l 1x67
 435 685 393 644 341 644 c 0x73
496 529 m 1xa7
 496 0 l 1
 385 0 l 1x67
 378 74 l 1
 339 14 289 -15 216 -15 c 0
 120 -15 69 47 69 149 c 2
 69 529 l 1
 197 529 l 1
 197 165 l 2
 197 103 217 82 261 82 c 0
 305 82 341 111 368 157 c 1
 368 529 l 1
 496 529 l 1xa7
EndSplineSet
EndChar
StartChar: Ubreve
Encoding: 364 364 298
Width: 656
Flags: W
HStem: -15 103<284.5 370 284.5 411.5> 671 20G<71 203 203 203 452 585 585 585> 754 92<304 350 304 374>
VStem: 71 132<226 233 233 691> 452 133<233 691>
LayerCount: 2
Fore
SplineSet
327 754 m 0
 233 754 173 818 165 898 c 1
 240 913 l 1
 253 874 281 846 327 846 c 0
 373 846 403 874 415 913 c 1
 491 898 l 1
 483 818 421 754 327 754 c 0
585 691 m 1
 585 226 l 2
 585 87 496 -15 327 -15 c 0
 157 -15 71 84 71 226 c 2
 71 691 l 1
 203 691 l 1
 203 233 l 2
 203 136 242 88 327 88 c 0
 413 88 452 136 452 233 c 2
 452 691 l 1
 585 691 l 1
EndSplineSet
EndChar
StartChar: ubreve
Encoding: 365 365 299
Width: 571
Flags: W
HStem: -15 97<239 252.5> 0 21G<385 496 385 385> 509 20G<69 197 197 197 368 496 496 496> 637 92<259 305 259 329>
VStem: 69 128<149 165 165 529> 368 128<157 529 0 529>
LayerCount: 2
Fore
SplineSet
282 637 m 0x7c
 188 637 128 702 120 792 c 1
 195 806 l 1
 208 757 236 729 282 729 c 0
 328 729 358 757 370 806 c 1
 446 792 l 1
 438 702 376 637 282 637 c 0x7c
496 529 m 1
 496 0 l 1
 385 0 l 1x7c
 378 74 l 1
 339 14 289 -15 216 -15 c 0
 120 -15 69 47 69 149 c 2
 69 529 l 1
 197 529 l 1
 197 165 l 2
 197 103 217 82 261 82 c 0
 305 82 341 111 368 157 c 1xbc
 368 529 l 1
 496 529 l 1
EndSplineSet
EndChar
StartChar: uni016E
Encoding: 366 366 301
Width: 656
Flags: W
HStem: -15 103<284.5 370 284.5 411.5> 671 20G<71 203 203 203 452 585 585 585> 739 68<313 342.5 313 366.5> 912 67<313 342.5>
VStem: 71 132<226 233 233 691> 200 79<842 876 842 892> 376 79<842 876> 452 133<233 691>
LayerCount: 2
Fore
SplineSet
328 979 m 0xf6
 405 979 455 925 455 859 c 0
 455 794 405 739 328 739 c 0
 250 739 200 794 200 859 c 0
 200 925 250 979 328 979 c 0xf6
328 912 m 0
 298 912 279 893 279 859 c 0
 279 825 298 807 328 807 c 0
 357 807 376 825 376 859 c 0
 376 893 357 912 328 912 c 0
585 691 m 1xf9
 585 226 l 2
 585 87 496 -15 327 -15 c 0
 157 -15 71 84 71 226 c 2
 71 691 l 1
 203 691 l 1
 203 233 l 2
 203 136 242 88 327 88 c 0
 413 88 452 136 452 233 c 2
 452 691 l 1
 585 691 l 1xf9
EndSplineSet
EndChar
StartChar: Uhungarumlaut
Encoding: 368 368 302
Width: 656
Flags: W
HStem: -15 103<284.5 370 284.5 411.5> 671 20G<71 203 203 203 452 585 585 585>
VStem: 71 132<226 233 233 691> 452 133<233 691>
LayerCount: 2
Fore
SplineSet
304 941 m 1
 387 890 l 1
 263 737 l 1
 204 771 l 1
 304 941 l 1
466 933 m 1
 547 876 l 1
 414 731 l 1
 358 768 l 1
 466 933 l 1
585 691 m 1
 585 226 l 2
 585 87 496 -15 327 -15 c 0
 157 -15 71 84 71 226 c 2
 71 691 l 1
 203 691 l 1
 203 233 l 2
 203 136 242 88 327 88 c 0
 413 88 452 136 452 233 c 2
 452 691 l 1
 585 691 l 1
EndSplineSet
EndChar
StartChar: uni0171
Encoding: 369 369 304
Width: 571
Flags: W
HStem: -15 97<239 252.5> 0 21G<385 496 385 385> 509 20G<69 197 197 197 368 496 496 496> 728 20G<520 520>
VStem: 69 128<149 165 165 529> 368 128<157 529 0 529>
LayerCount: 2
Fore
SplineSet
277 813 m 1x7c
 360 762 l 1
 236 599 l 1
 177 633 l 1
 277 813 l 1x7c
439 805 m 1
 520 748 l 1
 387 593 l 1
 331 630 l 1
 439 805 l 1
496 529 m 1
 496 0 l 1
 385 0 l 1x7c
 378 74 l 1
 339 14 289 -15 216 -15 c 0
 120 -15 69 47 69 149 c 2
 69 529 l 1
 197 529 l 1
 197 165 l 2
 197 103 217 82 261 82 c 0
 305 82 341 111 368 157 c 1xbc
 368 529 l 1
 496 529 l 1
EndSplineSet
EndChar
StartChar: uni0172
Encoding: 370 370 305
Width: 656
Flags: W
HStem: -239 85<344 360.5> -14 102 671 20G<71 203 203 203 452 585 585 585>
VStem: 71 132<226 233 233 691> 210 99<-123 -104> 452 133<233 691>
LayerCount: 2
Fore
SplineSet
452 691 m 1
 585 691 l 1
 585 226 l 2
 585 118 531 32 427 -1 c 1
 329 -41 309 -76 309 -108 c 0
 309 -138 325 -154 363 -154 c 0
 383 -154 401 -152 424 -147 c 1
 414 -232 l 1
 393 -236 374 -239 347 -239 c 0
 266 -239 210 -195 210 -130 c 0xec
 210 -78 244 -40 299 -14 c 1
 148 -4 71 92 71 226 c 2
 71 691 l 1
 203 691 l 1
 203 233 l 2
 203 136 242 88 327 88 c 0
 413 88 452 136 452 233 c 2
 452 691 l 1
EndSplineSet
EndChar
StartChar: Wcircumflex
Encoding: 372 372 306
Width: 837
Flags: W
HStem: 0 105<236 236 236 309 142 236> 551 140<417 417> 671 20G<17 148 148 148 349 489 489 489 696 821 821 821>
VStem: 17 804<691 691>
LayerCount: 2
Fore
SplineSet
289 757 m 1xb0
 240 812 l 1
 379 933 l 1
 459 933 l 1
 598 812 l 1
 549 757 l 1
 419 839 l 1
 289 757 l 1xb0
821 691 m 1
 694 0 l 1
 522 0 l 1
 417 551 l 1xd0
 309 0 l 1
 142 0 l 1
 17 691 l 1
 148 691 l 1
 236 105 l 1
 349 691 l 1
 489 691 l 1
 600 105 l 1
 696 691 l 1
 821 691 l 1
EndSplineSet
EndChar
StartChar: Ycircumflex
Encoding: 374 374 308
Width: 574
Flags: W
HStem: 0 21G<220 354 220 220> 671 20G<-2 144 144 144 436 576 576 576>
VStem: 220 134<0 261 261 261>
LayerCount: 2
Fore
SplineSet
156 757 m 1
 107 812 l 1
 246 933 l 1
 326 933 l 1
 465 812 l 1
 416 757 l 1
 286 839 l 1
 156 757 l 1
576 691 m 1
 354 262 l 1
 354 0 l 1
 220 0 l 1
 220 261 l 1
 -2 691 l 1
 144 691 l 1
 290 370 l 1
 436 691 l 1
 576 691 l 1
EndSplineSet
EndChar
StartChar: Ydieresis
Encoding: 376 376 310
Width: 574
Flags: W
HStem: 0 21G<220 354 220 220> 671 20G<-2 144 144 144 436 576 576 576> 773 138<156 195.5 377.5 417>
VStem: 105 140<822.5 861.5> 220 134<0 261 261 261> 327 140<822.5 861.5>
LayerCount: 2
Fore
SplineSet
176 911 m 0xf4
 215 911 245 881 245 842 c 0
 245 803 215 773 176 773 c 0
 136 773 105 803 105 842 c 0
 105 881 136 911 176 911 c 0xf4
397 911 m 0
 437 911 467 881 467 842 c 0
 467 803 437 773 397 773 c 0
 358 773 327 803 327 842 c 0
 327 881 358 911 397 911 c 0
576 691 m 1
 354 262 l 1
 354 0 l 1
 220 0 l 1
 220 261 l 1xe8
 -2 691 l 1
 144 691 l 1
 290 370 l 1
 436 691 l 1
 576 691 l 1
EndSplineSet
EndChar
StartChar: uni017A
Encoding: 378 378 313
Width: 444
Flags: W
HStem: 0 100<165 413> 429 100<40 275 40 421>
VStem: 18 408<0 100 92 100>
LayerCount: 2
Fore
SplineSet
302 820 m 1
 354 720 l 1
 128 630 l 1
 92 695 l 1
 302 820 l 1
421 529 m 1
 421 437 l 1
 165 100 l 1
 426 100 l 1
 413 0 l 1
 18 0 l 1
 18 92 l 1
 275 429 l 1
 40 429 l 1
 40 529 l 1
 421 529 l 1
EndSplineSet
EndChar
StartChar: Zdotaccent
Encoding: 379 379 313
Width: 534
Flags: W
HStem: 0 108<177 485> 586 105<56 348 56 496> 768 155<250.5 298>
VStem: 194 161<823.5 867>
LayerCount: 2
Fore
SplineSet
274 923 m 0
 322 923 355 889 355 845 c 0
 355 802 322 768 274 768 c 0
 227 768 194 802 194 845 c 0
 194 889 227 923 274 923 c 0
496 691 m 1
 496 589 l 1
 177 108 l 1
 499 108 l 1
 485 0 l 1
 23 0 l 1
 23 101 l 1
 348 586 l 1
 56 586 l 1
 56 691 l 1
 496 691 l 1
EndSplineSet
EndChar
StartChar: zdotaccent
Encoding: 380 380 314
Width: 444
Flags: W
HStem: 0 100<165 413> 429 100<40 275 40 421> 642 155<202.5 250>
VStem: 146 161<697.5 741>
LayerCount: 2
Fore
SplineSet
226 797 m 0
 274 797 307 763 307 719 c 0
 307 676 274 642 226 642 c 0
 179 642 146 676 146 719 c 0
 146 763 179 797 226 797 c 0
421 529 m 1
 421 437 l 1
 165 100 l 1
 426 100 l 1
 413 0 l 1
 18 0 l 1
 18 92 l 1
 275 429 l 1
 40 429 l 1
 40 529 l 1
 421 529 l 1
EndSplineSet
EndChar
StartChar: zcaron
Encoding: 382 382 316
Width: 444
Flags: W
HStem: 0 100<165 413> 429 100<40 275 40 421> 724 20G<48 48 406 406>
VStem: 18 408<0 100 92 100>
LayerCount: 2
Fore
SplineSet
357 800 m 1
 406 744 l 1
 267 619 l 1
 187 619 l 1
 48 744 l 1
 97 800 l 1
 227 712 l 1
 357 800 l 1
421 529 m 1
 421 437 l 1
 165 100 l 1
 426 100 l 1
 413 0 l 1
 18 0 l 1
 18 92 l 1
 275 429 l 1
 40 429 l 1
 40 529 l 1
 421 529 l 1
EndSplineSet
EndChar
StartChar: uni017F
Encoding: 383 383 318
Width: 347
Flags: W
HStem: 0 21G<92 220 92 92> 437 92<6 92 6 92> 658 97<265 303.5>
VStem: 92 128<0 437 437 437 529 585 0 587 0 635>
LayerCount: 2
Fore
SplineSet
278 755 m 0
 331 755 374 743 415 724 c 1
 378 638 l 1
 346 653 316 658 291 658 c 0
 239 658 220 635 220 585 c 2
 220 0 l 1
 92 0 l 1
 92 437 l 1
 6 437 l 1
 6 529 l 1
 92 529 l 1
 92 587 l 2
 92 683 156 755 278 755 c 0
EndSplineSet
EndChar
StartChar: uni0180
Encoding: 384 384 318
Width: 596
Flags: W
HStem: -15 96<314 340.5 288 408.5> 0 21G<82 196 82 82> 448 96<325.5 345.5> 601 82<15 82 15 82 210 352> 721 20G<82 82> 735 20G<210 210>
VStem: 82 128<142 376 469 601 683 741 741 741> 418 135<198.5 335.5>
LayerCount: 2
Fore
SplineSet
356 544 m 0xb7
 479 544 553 442 553 265 c 0
 553 100 474 -15 343 -15 c 0
 285 -15 238 11 204 54 c 1xb7
 196 0 l 1
 82 0 l 1
 82 601 l 1
 15 601 l 1
 15 683 l 1
 82 683 l 1
 82 741 l 1x7b
 210 755 l 1
 210 683 l 1
 352 683 l 1
 352 601 l 1
 210 601 l 1
 210 469 l 1
 244 516 295 544 356 544 c 0xb7
308 81 m 0
 373 81 418 132 418 265 c 0
 418 406 376 448 315 448 c 0
 270 448 235 417 210 376 c 1
 210 142 l 1
 234 104 268 81 308 81 c 0
EndSplineSet
EndChar
StartChar: uni0181
Encoding: 385 385 319
Width: 728
Flags: W
HStem: 0 99<328 404> 315 92<328 409 409 419 328 409> 594 97<328 377 377 390 328 328>
VStem: 7 109<536 562.5 536 595.5> 196 132<99 315 407 593 593 593> 528 135<472 539> 555 138<160.5 245.5>
LayerCount: 2
Fore
SplineSet
535 366 m 1xfa
 614 351 693 314 693 199 c 0xfa
 693 47 572 0 404 0 c 2
 196 0 l 1
 196 593 l 1
 166 593 l 2
 132 593 116 577 116 548 c 0
 116 524 123 504 133 479 c 1
 49 440 l 1
 28 472 7 508 7 554 c 0
 7 637 68 691 173 691 c 2
 377 691 l 2
 555 691 663 641 663 515 c 0xfc
 663 429 601 380 535 366 c 1xfa
390 594 m 2
 328 594 l 1
 328 407 l 1
 409 407 l 2
 481 407 528 439 528 504 c 0xfc
 528 574 480 594 390 594 c 2
405 99 m 2xfa
 492 99 555 117 555 204 c 0
 555 287 496 315 419 315 c 2
 328 315 l 1
 328 99 l 1
 405 99 l 2xfa
EndSplineSet
EndChar
StartChar: uni0182
Encoding: 386 386 320
Width: 588
Flags: W
HStem: 0 99<213 291 291 295> 343 96<213 288 213 295> 588 103<213 473 213 213>
VStem: 81 132<99 343 439 588> 426 139<176 265>
LayerCount: 2
Fore
SplineSet
295 439 m 2
 463 439 565 369 565 225 c 0
 565 67 452 0 295 0 c 2
 81 0 l 1
 81 691 l 1
 487 691 l 1
 473 588 l 1
 213 588 l 1
 213 439 l 1
 295 439 l 2
291 99 m 2
 372 99 426 129 426 223 c 0
 426 307 378 343 288 343 c 2
 213 343 l 1
 213 99 l 1
 291 99 l 2
EndSplineSet
EndChar
StartChar: uni0183
Encoding: 387 387 322
Width: 589
Flags: W
HStem: -15 96<307 334 281.5 401> 0 21G<75 188 75 75> 441 96<317.5 338.5> 647 94<203 409 203 203>
VStem: 75 128<142 370 462 647> 411 134<196.5 330>
LayerCount: 2
Fore
SplineSet
347 537 m 0xbc
 473 537 545 435 545 261 c 0
 545 100 466 -15 336 -15 c 0
 278 -15 230 11 196 54 c 1xbc
 188 0 l 1
 75 0 l 1x7c
 75 741 l 1
 424 741 l 1
 409 647 l 1
 203 647 l 1
 203 462 l 1
 237 509 288 537 347 537 c 0xbc
302 81 m 0
 366 81 411 132 411 261 c 0
 411 399 369 441 308 441 c 0
 262 441 228 410 203 370 c 1
 203 142 l 1
 226 104 261 81 302 81 c 0
EndSplineSet
EndChar
StartChar: uni0184
Encoding: 388 388 322
Width: 596
Flags: W
HStem: 0 99<225 303 303 306> 351 96<225 299 225 306> 671 20G<111 225 225 225>
VStem: 92 133<99 351 447 506 506 506> 437 139<178 271>
LayerCount: 2
Fore
SplineSet
306 447 m 2
 474 447 576 377 576 229 c 0
 576 67 463 0 306 0 c 2
 92 0 l 1
 92 506 l 1
 20 553 l 1
 55 590 87 639 111 691 c 1
 225 691 l 1
 225 447 l 1
 306 447 l 2
303 99 m 2
 383 99 437 129 437 227 c 0
 437 315 389 351 299 351 c 2
 225 351 l 1
 225 99 l 1
 303 99 l 2
EndSplineSet
EndChar
StartChar: uni0185
Encoding: 389 389 324
Width: 531
Flags: W
HStem: 0 89<217 277 277 290> 275 87<217 267 217 269> 509 20G<107 217 217 217>
VStem: 89 128<89 275 89 354 89 354> 374 132<149 213>
LayerCount: 2
Fore
SplineSet
269 362 m 2
 440 362 506 294 506 181 c 0
 506 57 409 0 290 0 c 2
 89 0 l 1
 89 354 l 1
 16 401 l 1
 52 438 82 479 107 529 c 1
 217 529 l 1
 217 362 l 1
 269 362 l 2
277 89 m 2
 336 89 374 115 374 183 c 0
 374 243 348 275 267 275 c 2
 217 275 l 1
 217 89 l 1
 277 89 l 2
EndSplineSet
EndChar
StartChar: uni0186
Encoding: 390 390 324
Width: 568
Flags: W
HStem: -15 106<186.5 265.5 186.5 312> 604 102<204.5 276.5>
VStem: 386 139<254.5 442>
LayerCount: 2
Fore
SplineSet
241 706 m 0
 413 706 525 579 525 347 c 0
 525 112 401 -15 223 -15 c 0
 127 -15 59 26 13 69 c 1
 76 146 l 1
 116 117 156 91 217 91 c 0
 314 91 386 162 386 347 c 0
 386 537 320 604 233 604 c 0
 176 604 130 586 86 555 c 1
 21 633 l 1
 81 680 148 706 241 706 c 0
EndSplineSet
EndChar
StartChar: uni0187
Encoding: 391 391 325
Width: 568
Flags: W
HStem: -15 106<303.5 382.5 303.5 394> 604 102<303.5 353.5 256 376.5> 745 98<586 618.5>
VStem: 43 139<256 440.5 256 463> 429 118
LayerCount: 2
Fore
SplineSet
590 843 m 0
 647 843 688 824 716 805 c 1
 675 724 l 1
 652 737 633 745 604 745 c 0
 568 745 547 726 547 678 c 2
 547 633 l 1
 488 564 l 1
 446 589 402 604 351 604 c 0
 256 604 182 534 182 347 c 0
 182 165 254 91 353 91 c 0
 412 91 453 119 493 149 c 1
 555 69 l 1
 513 26 441 -15 347 -15 c 0
 168 -15 43 112 43 347 c 0
 43 579 177 706 335 706 c 0
 372 706 403 700 429 689 c 1
 433 786 487 843 590 843 c 0
EndSplineSet
EndChar
StartChar: uni018A
Encoding: 394 394 328
Width: 763
Flags: W
HStem: 0 99<328 384> 592 99<328 366 366 389 328 328>
VStem: 7 109<536 562.5 536 595.5> 196 132<99 592 99 593 99 593> 581 139<247 453>
LayerCount: 2
Fore
SplineSet
366 691 m 2
 547 691 720 635 720 349 c 0
 720 69 549 0 384 0 c 2
 196 0 l 1
 196 593 l 1
 166 593 l 2
 132 593 116 577 116 548 c 0
 116 524 123 504 133 479 c 1
 49 440 l 1
 28 472 7 508 7 554 c 0
 7 637 68 691 173 691 c 2
 366 691 l 2
393 99 m 2
 496 99 581 145 581 349 c 0
 581 557 491 592 389 592 c 2
 328 592 l 1
 328 99 l 1
 393 99 l 2
EndSplineSet
EndChar
StartChar: uni018B
Encoding: 395 395 329
Width: 588
Flags: W
HStem: 0 99<209.5 375 297 375 297 508> 343 96<293 300 300 375> 588 103<107 375 107 508>
VStem: 23 140<172.5 261.5 172.5 289.5> 375 133<99 343 343 343 439 588 588 588>
LayerCount: 2
Fore
SplineSet
508 691 m 1
 508 0 l 1
 285 0 l 2
 134 0 23 63 23 218 c 0
 23 361 125 439 293 439 c 2
 375 439 l 1
 375 588 l 1
 107 588 l 1
 107 691 l 1
 508 691 l 1
297 99 m 2
 375 99 l 1
 375 343 l 1
 300 343 l 2
 211 343 163 305 163 218 c 0
 163 127 216 99 297 99 c 2
EndSplineSet
EndChar
StartChar: uni018C
Encoding: 396 396 330
Width: 592
Flags: W
HStem: -15 97<248.5 278> 0 21G<404 517 404 404> 441 96<255.5 285 191 310.5> 647 94<176 389 176 517>
VStem: 43 135<195 323 195 340.5> 389 128<150 385 385 385 480 647 647 647>
LayerCount: 2
Fore
SplineSet
517 741 m 1xbc
 517 0 l 1
 404 0 l 1x7c
 395 67 l 1
 363 19 312 -15 244 -15 c 0
 112 -15 43 96 43 261 c 0
 43 420 124 537 258 537 c 0
 312 537 356 513 389 480 c 1
 389 647 l 1
 176 647 l 1
 176 741 l 1
 517 741 l 1xbc
280 82 m 0xbc
 327 82 359 105 389 150 c 1
 389 385 l 1
 361 419 332 441 289 441 c 0
 222 441 178 385 178 261 c 0
 178 129 217 82 280 82 c 0xbc
EndSplineSet
EndChar
StartChar: uni018E
Encoding: 398 398 332
Width: 530
Flags: W
HStem: 0 99<44 317 44 449 44 317> 302 98<95 317 95 317> 593 98<50 317 50 449>
VStem: 317 132<99 302 302 302 400 593 593 593>
LayerCount: 2
Fore
SplineSet
50 691 m 1
 449 691 l 1
 449 0 l 1
 44 0 l 1
 44 99 l 1
 317 99 l 1
 317 302 l 1
 95 302 l 1
 95 400 l 1
 317 400 l 1
 317 593 l 1
 50 593 l 1
 50 691 l 1
EndSplineSet
EndChar
StartChar: uni018F
Encoding: 399 399 333
Width: 644
Flags: W
HStem: -15 100<267.5 357 267.5 399.5> 300 96<162 465 162 162> 605 101<267 351.5>
VStem: 33 129<300 300 300 346> 465 136<300 300 396 396>
LayerCount: 2
Fore
SplineSet
312 706 m 0
 491 706 601 590 601 354 c 0
 601 105 484 -15 315 -15 c 0
 126 -15 33 116 33 337 c 0
 33 355 35 377 37 396 c 1
 465 396 l 1
 460 544 401 605 302 605 c 0
 232 605 179 578 134 544 c 1
 72 619 l 1
 139 676 214 706 312 706 c 0
312 85 m 0
 402 85 458 144 465 300 c 1
 162 300 l 1
 164 145 223 85 312 85 c 0
EndSplineSet
EndChar
StartChar: uni0190
Encoding: 400 400 334
Width: 532
Flags: W
HStem: -15 103<264.5 337 264.5 343.5> 315 99<310 312 312 364> 606 100<261 324.5>
VStem: 35 140<166 237.5 166 249> 57 136<485.5 538.5 482 577.5>
LayerCount: 2
Fore
SplineSet
286 706 m 0xf0
 376 706 448 676 510 617 c 1
 443 546 l 1
 398 586 350 606 299 606 c 0
 223 606 193 564 193 513 c 0xe8
 193 451 238 414 310 414 c 2
 381 414 l 1
 364 315 l 1
 312 315 l 2
 220 315 175 273 175 202 c 0
 175 130 223 88 306 88 c 0
 368 88 414 111 455 152 c 1
 529 81 l 1
 471 18 392 -15 295 -15 c 0
 144 -15 35 69 35 196 c 0xf0
 35 302 106 358 202 368 c 1
 109 388 57 444 57 527 c 0xe8
 57 628 142 706 286 706 c 0xf0
EndSplineSet
EndChar
StartChar: uni0191
Encoding: 401 401 336
Width: 489
Flags: W
HStem: -218 100<7.5 41.5 7.5 89> 288 98<213 426 213 426> 593 98<213 458 213 213>
VStem: 81 132<-51 -43 -43 288 386 593>
LayerCount: 2
Fore
SplineSet
458 593 m 1
 213 593 l 1
 213 386 l 1
 426 386 l 1
 426 288 l 1
 213 288 l 1
 213 -43 l 2
 213 -160 143 -218 35 -218 c 0
 -24 -218 -65 -199 -94 -177 c 1
 -48 -97 l 1
 -25 -110 -8 -118 23 -118 c 0
 60 -118 81 -97 81 -51 c 2
 81 691 l 1
 472 691 l 1
 458 593 l 1
EndSplineSet
EndChar
StartChar: uni0193
Encoding: 403 403 337
Width: 602
Flags: W
HStem: -15 101<292 365.5 292 390> 293 98<352 456 352 352> 606 100<315 368.5 267 392.5> 745 98<619.5 652.5>
VStem: 43 139<251.5 439 251.5 463> 456 130<113 293 293 293> 463 117
LayerCount: 2
Fore
SplineSet
624 843 m 0xfc
 681 843 721 824 750 805 c 1
 708 724 l 1
 685 737 667 745 638 745 c 0
 601 745 580 726 580 678 c 2
 580 625 l 1
 516 558 l 1xfa
 467 588 421 606 364 606 c 0
 266 606 182 532 182 346 c 0
 182 157 238 86 346 86 c 0
 385 86 423 94 456 113 c 1
 456 293 l 1
 352 293 l 1
 338 391 l 1
 586 391 l 1
 586 53 l 1xfc
 519 11 437 -15 343 -15 c 0
 151 -15 43 109 43 346 c 0
 43 580 190 706 344 706 c 0
 393 706 431 698 463 682 c 1xfa
 464 783 519 843 624 843 c 0xfc
EndSplineSet
EndChar
StartChar: uni0195
Encoding: 405 405 339
Width: 875
Flags: W
HStem: -15 97<557.5 606.5 557.5 633.5> 0 21G<75 203 75 75> 448 96<325 333.5> 509 20G<665 792 792 792> 733 20G<203 203>
VStem: 75 128<0 369 0 466 466 740 740 740> 379 128<173 177 177 363 363 383> 691 129<193 301.5>
LayerCount: 2
Fore
SplineSet
792 529 m 1x9f
 808 445 820 358 820 251 c 0
 820 62 694 -15 573 -15 c 0x9f
 468 -15 379 45 379 173 c 2
 379 363 l 2
 379 429 353 448 314 448 c 0
 269 448 234 417 203 369 c 1
 203 0 l 1
 75 0 l 1
 75 740 l 1
 203 753 l 1
 203 466 l 1
 244 516 293 544 357 544 c 0x6f
 451 544 507 483 507 383 c 2
 507 177 l 2
 507 111 534 82 581 82 c 0
 632 82 691 124 691 262 c 0
 691 341 683 433 665 529 c 1
 792 529 l 1x9f
EndSplineSet
EndChar
StartChar: uni0196
Encoding: 406 406 340
Width: 380
Flags: W
HStem: -15 100<242.5 276.5 242.5 278.5> 671 20G<71 203 203 203>
VStem: 71 132<160 691>
LayerCount: 2
Fore
SplineSet
332 106 m 1
 378 26 l 1
 349 4 308 -15 249 -15 c 0
 141 -15 71 43 71 160 c 2
 71 691 l 1
 203 691 l 1
 203 152 l 2
 203 106 224 85 261 85 c 0
 292 85 309 93 332 106 c 1
EndSplineSet
EndChar
StartChar: uni0197
Encoding: 407 407 341
Width: 322
Flags: W
HStem: 0 21G<95 227 95 95> 310 99<10 95 10 95 227 312> 671 20G<95 227 227 227>
VStem: 95 132<0 310 0 310 409 691>
LayerCount: 2
Fore
SplineSet
312 409 m 1
 312 310 l 1
 227 310 l 1
 227 0 l 1
 95 0 l 1
 95 310 l 1
 10 310 l 1
 10 409 l 1
 95 409 l 1
 95 691 l 1
 227 691 l 1
 227 409 l 1
 312 409 l 1
EndSplineSet
EndChar
StartChar: uni0199
Encoding: 409 409 344
Width: 532
Flags: W
HStem: 0 21G<75 203 75 75 390 390 390 537> 509 20G<385 520 520 520> 658 97<247.5 286>
VStem: 75 128<0 585 0 587 0 635>
LayerCount: 2
Fore
SplineSet
273 658 m 0
 222 658 203 635 203 585 c 2
 203 0 l 1
 75 0 l 1
 75 587 l 2
 75 683 138 755 261 755 c 0
 313 755 357 743 397 724 c 1
 360 638 l 1
 328 653 299 658 273 658 c 0
344 296 m 1
 537 0 l 1
 390 0 l 1
 208 289 l 1
 385 529 l 1
 520 529 l 1
 344 296 l 1
EndSplineSet
EndChar
StartChar: uni019A
Encoding: 410 410 345
Width: 325
Flags: W
HStem: -15 21G<183.5 240.5> -15 103<183.5 258> 326 92<10 94 10 94 222 312> 721 20G<94 94> 735 20G<222 222>
VStem: 94 128<121 125 125 326 418 741 741 741>
LayerCount: 2
Fore
SplineSet
312 326 m 1xac
 222 326 l 1
 222 125 l 2
 222 100 231 88 252 88 c 0
 264 88 274 90 282 93 c 1x6c
 310 3 l 1
 288 -7 257 -15 224 -15 c 0
 143 -15 94 34 94 121 c 2
 94 326 l 1
 10 326 l 1
 10 418 l 1
 94 418 l 1
 94 741 l 1xb4
 222 755 l 1
 222 418 l 1
 312 418 l 1
 312 326 l 1xac
EndSplineSet
EndChar
StartChar: uni019B
Encoding: 411 411 346
Width: 511
Flags: W
HStem: -15 21G<139 139 406 406> 551 20G<73 73> 735 20G<81 81>
VStem: 13 515<15 28>
LayerCount: 2
Fore
SplineSet
362 464 m 0
 421 211 456 120 528 28 c 1
 406 -15 l 1
 338 85 301 176 255 405 c 1
 139 -15 l 1
 13 15 l 1
 174 493 l 1
 239 493 l 1
 230 530 221 559 209 583 c 1
 149 527 l 1
 73 571 l 1
 150 643 l 1
 128 654 100 662 65 667 c 1
 81 755 l 1
 141 745 188 732 225 708 c 1
 294 773 l 1
 354 711 l 1
 288 650 l 1
 319 607 342 548 362 464 c 0
EndSplineSet
EndChar
StartChar: uni019C
Encoding: 412 412 347
Width: 923
Flags: W
HStem: -15 102<252.5 272 572 590> 0 21G<727 843 727 727> 671 20G<71 203 203 203 390 523 523 523 710 843 843 843>
VStem: 71 132<183 188 188 691> 390 133<166 183 183 188 188 691> 710 133<167 691 0 691>
LayerCount: 2
Fore
SplineSet
710 691 m 1xbc
 843 691 l 1
 843 0 l 1
 727 0 l 1x7c
 717 71 l 1
 671 12 622 -15 558 -15 c 0
 487 -15 436 22 410 80 c 1
 357 15 306 -15 238 -15 c 0
 131 -15 71 67 71 183 c 2
 71 691 l 1
 203 691 l 1
 203 188 l 2
 203 125 229 87 276 87 c 0
 322 87 352 113 390 166 c 1
 390 183 l 1
 390 691 l 1
 523 691 l 1
 523 188 l 2
 523 125 549 87 595 87 c 0
 643 87 672 111 710 167 c 1
 710 691 l 1xbc
EndSplineSet
EndChar
StartChar: uni019D
Encoding: 413 413 348
Width: 672
Flags: W
HStem: -218 97<5 39.5 5 83> 0 21G<420 591 420 420> 0 131<489 489 489 591 420 489> 559 132<183 183> 671 20G<81 248 248 248 471 591 591 591>
VStem: 81 120<-54 -44 -44 282> 471 120<367 691 0 691>
LayerCount: 2
Fore
SplineSet
471 691 m 1xce
 591 691 l 1
 591 0 l 1
 420 0 l 1
 183 559 l 1xd6
 190 498 201 410 201 282 c 2
 201 -44 l 2
 201 -160 133 -218 33 -218 c 0
 -27 -218 -68 -199 -97 -177 c 1
 -51 -99 l 1
 -28 -113 -11 -121 21 -121 c 0
 58 -121 81 -101 81 -54 c 2
 81 691 l 1
 248 691 l 1
 489 131 l 1xae
 483 169 471 269 471 367 c 2
 471 691 l 1xce
EndSplineSet
EndChar
StartChar: uni019E
Encoding: 414 414 348
Width: 578
Flags: W
HStem: -218 21G<509 509> -204 21G<381 381> 0 21G<75 203 75 75 379 381 379 379> 448 96<323.5 334> 509 20G<75 186 186 186>
VStem: 75 128<0 368 0 529> 379 128<1 1 1 363 363 383>
LayerCount: 2
Fore
SplineSet
507 1 m 1x6e
 509 1 l 1x6e
 509 -218 l 1xae
 381 -204 l 1
 381 0 l 1
 379 0 l 1
 379 363 l 2
 379 429 354 448 314 448 c 0
 268 448 234 417 203 368 c 1x76
 203 0 l 1
 75 0 l 1
 75 529 l 1
 186 529 l 1x6e
 196 460 l 1
 237 513 290 544 357 544 c 0x76
 452 544 507 484 507 383 c 2
 507 1 l 1x6e
EndSplineSet
EndChar
StartChar: uni019F
Encoding: 415 415 350
Width: 691
Flags: W
HStem: -15 101<299 394 299 438.5> 310 82<180 512 180 512 179 512> 605 101<299 393.5>
VStem: 43 137<392 392 392 458.5> 512 136<310 310 392 392>
LayerCount: 2
Fore
SplineSet
346 706 m 0
 531 706 648 577 648 346 c 0
 648 118 531 -15 346 -15 c 0
 161 -15 43 114 43 345 c 0
 43 572 161 706 346 706 c 0
346 605 m 0
 252 605 190 544 180 392 c 1
 512 392 l 1
 502 543 441 605 346 605 c 0
346 86 m 0
 442 86 504 150 512 310 c 1
 179 310 l 1
 187 150 252 86 346 86 c 0
EndSplineSet
EndChar
StartChar: uni01A0
Encoding: 416 416 351
Width: 710
Flags: W
HStem: -15 101<295.5 397.5 295.5 438.5> 553 20G 605 101<294.5 386.5 253.5 398>
VStem: 43 139<252 438 252 458.5> 509 139<252.5 392.5 232 438.5> 596 94<672.5 704>
LayerCount: 2
Fore
SplineSet
690 688 m 0xf4
 690 624 655 586 594 573 c 1
 629 515 648 439 648 346 c 0xf8
 648 118 531 -15 346 -15 c 0
 161 -15 43 114 43 345 c 0
 43 572 161 706 346 706 c 0
 427 706 495 681 546 634 c 1
 581 639 596 657 596 688 c 0
 596 720 591 738 583 758 c 1
 671 773 l 1
 681 754 690 727 690 688 c 0xf4
346 86 m 0xf8
 449 86 509 159 509 346 c 0
 509 531 450 605 346 605 c 0
 243 605 182 531 182 345 c 0
 182 159 245 86 346 86 c 0xf8
EndSplineSet
EndChar
StartChar: uni01A2
Encoding: 418 418 352
Width: 945
Flags: W
HStem: -206 21G<731 864 731 731> -15 101<295.5 397.5 295.5 438.5> 605 101<294.5 379 253.5 398> 611 96<649 686>
VStem: 43 139<252 438 252 458.5> 509 139<252.5 397 232 438.5> 731 133<-206 530 -206 535 -206 561.5>
LayerCount: 2
Fore
SplineSet
679 707 m 0xde
 796 707 864 646 864 530 c 2
 864 -206 l 1
 731 -206 l 1
 731 535 l 2
 731 588 707 611 665 611 c 0
 633 611 609 604 581 590 c 1xde
 624 530 648 448 648 346 c 0
 648 118 531 -15 346 -15 c 0
 161 -15 43 114 43 345 c 0
 43 572 161 706 346 706 c 0xee
 412 706 470 688 518 654 c 1
 568 688 617 707 679 707 c 0xde
346 86 m 0xee
 449 86 509 159 509 346 c 0
 509 531 450 605 346 605 c 0
 243 605 182 531 182 345 c 0
 182 159 245 86 346 86 c 0xee
EndSplineSet
EndChar
StartChar: uni01A4
Encoding: 420 420 355
Width: 711
Flags: W
HStem: 0 21G<196 328 196 196> 241 99<328 399 399 409 328 399> 594 97<328 399 328 328>
VStem: 7 109<536 562.5 536 595.5> 196 132<0 241 0 340 340 593 593 593> 542 138<420.5 514.5>
LayerCount: 2
Fore
SplineSet
400 691 m 2
 573 691 680 620 680 471 c 0
 680 312 565 241 409 241 c 2
 328 241 l 1
 328 0 l 1
 196 0 l 1
 196 593 l 1
 166 593 l 2
 132 593 116 577 116 548 c 0
 116 524 123 504 133 479 c 1
 49 440 l 1
 28 472 7 508 7 554 c 0
 7 637 68 691 173 691 c 2
 400 691 l 2
399 340 m 2
 486 340 542 370 542 471 c 0
 542 558 489 594 399 594 c 2
 328 594 l 1
 328 340 l 1
 399 340 l 2
EndSplineSet
EndChar
StartChar: uni01A5
Encoding: 421 421 356
Width: 589
Flags: W
HStem: -218 21G<75 75> -204 21G<203 203> -15 98<309 335 280 403> 448 96<322 342> 658 97<247.5 286>
VStem: 75 128<-204 43 -204 138 138 376 470 585> 411 134<201 332>
LayerCount: 2
Fore
SplineSet
347 544 m 0x7e
 487 544 545 435 545 266 c 0
 545 104 470 -15 336 -15 c 0
 282 -15 236 4 203 43 c 1
 203 -204 l 1x7e
 75 -218 l 1xbe
 75 587 l 2
 75 683 138 755 261 755 c 0
 313 755 357 743 397 724 c 1
 360 638 l 1
 328 653 299 658 273 658 c 0
 222 658 203 635 203 585 c 2
 203 470 l 1
 244 522 297 544 347 544 c 0x7e
300 83 m 0
 370 83 411 137 411 265 c 0
 411 399 375 448 309 448 c 0
 265 448 228 417 203 376 c 1
 203 138 l 1
 228 101 260 83 300 83 c 0
EndSplineSet
EndChar
StartChar: uni01A7
Encoding: 423 423 357
Width: 551
Flags: W
HStem: -15 103<255.5 323.5 255.5 337> 605 101<247.5 308>
VStem: 32 138<155 216 155 255.5> 379 137<498 553>
LayerCount: 2
Fore
SplineSet
286 706 m 0
 424 706 516 633 516 520 c 0
 516 413 449 357 306 313 c 0
 198 280 170 244 170 188 c 0
 170 122 221 88 290 88 c 0
 357 88 416 114 466 155 c 1
 534 80 l 1
 476 24 392 -15 282 -15 c 0
 129 -15 32 73 32 193 c 0
 32 318 115 370 237 408 c 0
 351 444 379 471 379 525 c 0
 379 581 338 605 278 605 c 0
 217 605 169 587 119 547 c 1
 54 621 l 1
 118 676 190 706 286 706 c 0
EndSplineSet
EndChar
StartChar: uni01AA
Encoding: 426 426 361
Width: 360
Flags: W
HStem: -218 97<324.5 358.5 324.5 360> 444 93<101.5 107.5> 522 20G<155 155> 662 93<96 125>
VStem: -50 117<578.5 620.5 578.5 644.5> 155 128<-43 455 455 455 542 587>
LayerCount: 2
Fore
SplineSet
415 -101 m 1xbc
 460 -177 l 1
 431 -199 390 -218 330 -218 c 0
 225 -218 155 -159 155 -43 c 2
 155 455 l 1
 138 449 119 444 96 444 c 0xdc
 12 444 -50 505 -50 598 c 0
 -50 691 16 755 113 755 c 0
 217 755 283 695 283 587 c 2
 283 -54 l 2
 283 -101 306 -121 343 -121 c 0
 374 -121 391 -113 415 -101 c 1xbc
119 537 m 0
 130 537 142 539 155 542 c 1xbc
 155 603 l 2
 155 643 139 662 111 662 c 0
 81 662 67 640 67 601 c 0
 67 556 84 537 119 537 c 0
EndSplineSet
EndChar
StartChar: uni01AC
Encoding: 428 428 363
Width: 577
Flags: W
HStem: 0 21G<246 378 246 246> 586 105<150.5 572 178 246 378 558 378 378>
VStem: 7 111<531 556 531 595> 246 132<0 586 0 586>
LayerCount: 2
Fore
SplineSet
572 691 m 1
 558 586 l 1
 378 586 l 1
 378 0 l 1
 246 0 l 1
 246 586 l 1
 167 586 l 2
 134 586 118 569 118 543 c 0
 118 519 126 502 135 481 c 1
 44 439 l 1
 25 470 7 509 7 553 c 0
 7 637 70 691 178 691 c 2
 572 691 l 1
EndSplineSet
EndChar
StartChar: uni01AD
Encoding: 429 429 363
Width: 375
Flags: W
HStem: -15 103<252.5 270.5> 437 92<5 88 5 88 216 326> 661 94<253.5 283>
VStem: 88 128<158 161 161 437 529 584 584 594>
LayerCount: 2
Fore
SplineSet
335 108 m 1
 380 25 l 1
 342 -2 294 -15 247 -15 c 0
 143 -14 88 45 88 158 c 2
 88 437 l 1
 5 437 l 1
 5 529 l 1
 88 529 l 1
 88 584 l 2
 88 690 150 755 256 755 c 0
 310 755 351 736 379 717 c 1
 338 640 l 1
 315 653 296 661 270 661 c 0
 237 661 216 641 216 594 c 2
 216 529 l 1
 339 529 l 1
 326 437 l 1
 216 437 l 1
 216 161 l 2
 216 109 233 88 272 88 c 0
 292 88 312 94 335 108 c 1
EndSplineSet
EndChar
StartChar: uni01AE
Encoding: 430 430 364
Width: 531
Flags: W
HStem: -218 100<370 404 370 406.5> 586 105<12 198 12 525 331 331 331 511>
VStem: 198 133<-43 586>
LayerCount: 2
Fore
SplineSet
331 -51 m 2
 331 -97 352 -118 388 -118 c 0
 420 -118 437 -110 460 -97 c 1
 506 -177 l 1
 477 -199 436 -218 377 -218 c 0
 269 -218 198 -160 198 -43 c 2
 198 586 l 1
 12 586 l 1
 12 691 l 1
 525 691 l 1
 511 586 l 1
 331 586 l 1
 331 -51 l 2
EndSplineSet
EndChar
StartChar: uni01AF
Encoding: 431 431 366
Width: 703
Flags: W
HStem: -15 103<284.5 370 284.5 411.5> 569 122<585 585>
VStem: 71 132<226 233 233 691> 452 133<233 569 635 691> 629 94<673.5 704>
LayerCount: 2
Fore
SplineSet
704 773 m 1
 714 754 723 727 723 688 c 0
 723 610 672 571 585 569 c 1
 585 226 l 2
 585 87 496 -15 327 -15 c 0
 157 -15 71 84 71 226 c 2
 71 691 l 1
 203 691 l 1
 203 233 l 2
 203 136 242 88 327 88 c 0
 413 88 452 136 452 233 c 2
 452 691 l 1
 585 691 l 1
 585 635 l 1
 616 641 629 659 629 688 c 0
 629 720 623 738 616 758 c 1
 704 773 l 1
EndSplineSet
EndChar
StartChar: uni01B0
Encoding: 432 432 367
Width: 624
Flags: W
HStem: -15 97<239 252.5> 0 21G<385 496 385 385> 405 68<496 500> 405 124 432 97<496 496>
VStem: 69 128<149 165 165 529> 368 128<157 432 0 473 473 529 0 529> 543 94<508.5 539.5>
LayerCount: 2
Fore
SplineSet
618 608 m 1x57
 628 589 637 562 637 523 c 0
 637 446 586 407 500 405 c 1x57
 496 432 l 1
 496 0 l 1
 385 0 l 1x4f
 378 74 l 1
 339 14 289 -15 216 -15 c 0
 120 -15 69 47 69 149 c 2
 69 529 l 1
 197 529 l 1
 197 165 l 2
 197 103 217 82 261 82 c 0
 305 82 341 111 368 157 c 1
 368 529 l 1
 496 529 l 1x97
 496 473 l 1
 529 477 543 493 543 524 c 0x67
 543 555 538 573 530 593 c 1
 618 608 l 1x57
EndSplineSet
EndChar
StartChar: uni01B1
Encoding: 433 433 367
Width: 691
Flags: W
HStem: -15 101<293.5 397 293.5 438> 592 99<65 173 65 285 519 519 519 627>
VStem: 43 139<234 382> 65 220<595 691 595 691 595 691> 407 220<595 691 592 691> 509 139<234.5 383.5>
LayerCount: 2
Fore
SplineSet
346 -15 m 0xe4
 158 -15 43 117 43 308 c 0xe4
 43 456 101 535 173 592 c 1
 65 592 l 1
 65 691 l 1
 285 691 l 1xd4
 285 595 l 1
 218 531 182 458 182 308 c 0
 182 160 241 86 346 86 c 0
 448 86 509 160 509 309 c 0xe4
 509 458 469 532 407 595 c 1
 407 691 l 1
 627 691 l 1
 627 592 l 1xe8
 519 592 l 1
 592 540 648 460 648 309 c 0
 648 121 530 -15 346 -15 c 0xe4
EndSplineSet
EndChar
StartChar: uni01B2
Encoding: 434 434 368
Width: 656
Flags: W
HStem: -15 103<275.5 354.5 275.5 391.5> 606 100<411.5 491.5> 671 20G<71 203 203 203>
VStem: 71 132<213 215 215 691> 452 133<298 558>
LayerCount: 2
Fore
SplineSet
448 706 m 0xd8
 535 706 585 659 585 558 c 2
 585 296 l 2
 585 103 475 -15 308 -15 c 0
 159 -15 71 82 71 213 c 2
 71 691 l 1
 203 691 l 1xb8
 203 215 l 2
 203 135 241 88 310 88 c 0
 399 88 452 155 452 298 c 2
 452 561 l 2
 452 594 443 606 418 606 c 0
 405 606 395 604 386 600 c 1
 361 688 l 1
 385 699 413 706 448 706 c 0xd8
EndSplineSet
EndChar
StartChar: uni01B4
Encoding: 436 436 370
Width: 512
Flags: W
HStem: -218 21G<58 58> 0 21G<170 214 170 170> 483 96<485 490 435.5 502> 509 20G<2 138 138 138>
VStem: 2 550<529 563>
LayerCount: 2
Fore
SplineSet
58 -218 m 1xd8
 45 -125 l 1
 150 -109 184 -75 214 0 c 1
 170 0 l 1
 2 529 l 1
 138 529 l 1xd8
 253 85 l 1
 340 449 l 2
 361 540 396 579 475 579 c 0
 505 579 529 573 552 563 c 1
 526 478 l 1
 518 481 508 483 496 483 c 0
 474 483 462 474 453 441 c 2xe8
 341 17 l 2
 304 -129 215 -206 58 -218 c 1xd8
EndSplineSet
EndChar
StartChar: uni01B5
Encoding: 437 437 372
Width: 534
Flags: W
HStem: 0 108<167 485> 302.5 89.5 586 105<56 357 56 496>
VStem: 23 476<0 108 98 108>
LayerCount: 2
Fore
SplineSet
167 108 m 1
 499 108 l 1
 485 0 l 1
 23 0 l 1
 23 98 l 1
 163 302 l 1
 78 303 l 1
 78 392 l 1
 224 392 l 1
 357 586 l 1
 56 586 l 1
 56 691 l 1
 496 691 l 1
 496 592 l 1
 360 392 l 1
 452 392 l 1
 452 303 l 1
 299 302 l 1
 167 108 l 1
EndSplineSet
EndChar
StartChar: uni01B6
Encoding: 438 438 373
Width: 444
Flags: W
HStem: 0 97<160 413> 228 82<50 124 50 187 50 260 322 394> 432 97<40 280 40 421>
VStem: 18 408<0 97 89 97>
LayerCount: 2
Fore
SplineSet
160 97 m 1
 426 97 l 1
 413 0 l 1
 18 0 l 1
 18 89 l 1
 124 228 l 1
 50 228 l 1
 50 310 l 1
 187 310 l 1
 280 432 l 1
 40 432 l 1
 40 529 l 1
 421 529 l 1
 421 440 l 1
 322 310 l 1
 394 310 l 1
 394 228 l 1
 260 228 l 1
 160 97 l 1
EndSplineSet
EndChar
StartChar: uni01B8
Encoding: 440 440 375
Width: 533
Flags: W
HStem: -15 102<257.5 331.5 257.5 345.5> 317 83<259 312 259 406> 591 100<216 490 216 216>
VStem: 35 137<165.5 238.5 165.5 256>
LayerCount: 2
Fore
SplineSet
455 151 m 1
 526 82 l 1
 472 19 401 -15 290 -15 c 0
 133 -15 35 74 35 197 c 0
 35 315 117 397 259 400 c 1
 65 593 l 1
 65 691 l 1
 490 691 l 1
 490 591 l 1
 216 591 l 1
 406 397 l 1
 406 317 l 1
 312 317 l 2
 219 317 172 277 172 200 c 0
 172 131 218 87 297 87 c 0
 366 87 411 107 455 151 c 1
EndSplineSet
EndChar
StartChar: uni01B9
Encoding: 441 441 376
Width: 492
Flags: W
HStem: -218 100<239 308.5 239 323> 128 82<244 292 244 378> 430 99<192 463 192 192>
VStem: 18 134<-35 46.5 -35 64.5>
LayerCount: 2
Fore
SplineSet
430 -56 m 1
 498 -121 l 1
 444 -182 374 -218 272 -218 c 0
 117 -218 18 -125 18 -1 c 0
 18 130 102 205 244 210 c 1
 47 438 l 1
 47 529 l 1
 463 529 l 1
 463 430 l 1
 192 430 l 1
 378 207 l 1
 378 128 l 1
 292 128 l 2
 196 128 152 89 152 4 c 0
 152 -74 200 -118 278 -118 c 0
 339 -118 382 -99 430 -56 c 1
EndSplineSet
EndChar
StartChar: uni01BA
Encoding: 442 442 376
Width: 491
Flags: W
HStem: -219 21G<175 175> 196 80<250 252> 434 95<23 285 23 436>
VStem: 28 122<-96.5 -73.5 -96.5 -36.5> 334 134<112 158>
LayerCount: 2
Fore
SplineSet
175 -219 m 1
 83 -186 28 -138 28 -72 c 0
 28 -1 82 36 197 54 c 0
 291 68 334 86 334 138 c 0
 334 178 306 196 252 196 c 2
 111 196 l 1
 111 273 l 1
 285 434 l 1
 23 434 l 1
 23 529 l 1
 436 529 l 1
 436 442 l 1
 250 276 l 1
 289 276 l 2
 400 276 468 225 468 135 c 0
 468 27 379 -18 268 -34 c 0
 171 -49 150 -61 150 -86 c 0
 150 -107 172 -125 211 -144 c 1
 175 -219 l 1
EndSplineSet
EndChar
StartChar: uni01BB
Encoding: 443 443 377
Width: 507
Flags: W
HStem: 0 101<179 453> 245 92<67 180 67 259 67 323 398 460> 555 20G<15 15> 584 101<196.5 252>
VStem: 320 132<468.5 517>
LayerCount: 2
Fore
SplineSet
179 101 m 1
 467 101 l 1
 453 0 l 1
 34 0 l 1
 34 94 l 1
 94 155 142 204 180 245 c 1
 67 245 l 1
 67 337 l 1
 259 337 l 1
 305 397 320 437 320 486 c 0
 320 548 281 584 223 584 c 0
 170 584 135 562 93 513 c 1
 15 575 l 1
 69 645 140 685 233 685 c 0xf8
 372 685 452 601 452 496 c 0
 452 441 437 394 398 337 c 1
 460 337 l 1
 460 245 l 1
 323 245 l 1
 285 204 238 157 179 101 c 1
EndSplineSet
EndChar
StartChar: uni01BC
Encoding: 444 444 378
Width: 528
Flags: W
HStem: -15 99<204 271.5 204 313> 354 92<280 281.5> 597 94<187 447 187 187>
VStem: 65 122<420 597 420 691 420 691> 358 132<178.5 273.5>
LayerCount: 2
Fore
SplineSet
462 691 m 1
 447 597 l 1
 187 597 l 1
 187 420 l 1
 226 439 262 446 298 446 c 0
 409 446 490 366 490 224 c 0
 490 81 391 -15 235 -15 c 0
 142 -15 71 23 19 80 c 1
 92 148 l 1
 130 107 176 84 232 84 c 0
 311 84 358 132 358 225 c 0
 358 322 312 354 251 354 c 0
 218 354 192 347 156 331 c 1
 65 331 l 1
 65 691 l 1
 462 691 l 1
EndSplineSet
EndChar
StartChar: uni01BD
Encoding: 445 445 379
Width: 467
Flags: W
HStem: -15 101<184 237.5 184 279.5> 255 92<245.5 248> 432 97<180 382 180 180>
VStem: 63 117<330 432 330 529 330 529> 302 132<145.5 203.5>
LayerCount: 2
Fore
SplineSet
402 529 m 1
 382 432 l 1
 180 432 l 1
 180 330 l 1
 201 339 225 347 266 347 c 0
 359 347 434 282 434 173 c 0
 434 61 346 -15 213 -15 c 0
 126 -15 71 16 23 62 c 1
 90 133 l 1
 131 101 158 86 210 86 c 0
 265 86 302 116 302 175 c 0
 302 232 269 255 227 255 c 0
 195 255 176 250 149 238 c 1
 63 238 l 1
 63 529 l 1
 402 529 l 1
EndSplineSet
EndChar
StartChar: uni01BE
Encoding: 446 446 380
Width: 512
Flags: W
HStem: -14 97<191.5 256.5 191.5 302.5> 537 82<77 150 77 150 278 381> 733 20G<278 278>
VStem: 150 128<439 537 439 537 439 537 619 740 740 740> 335 134<176.5 264.5>
LayerCount: 2
Fore
SplineSet
306 434 m 1
 392 411 469 350 469 217 c 0
 469 81 375 -14 230 -14 c 0
 144 -14 77 16 16 75 c 1
 81 142 l 1
 125 103 165 83 218 83 c 0
 295 83 335 134 335 219 c 0
 335 310 295 355 213 376 c 2
 150 390 l 1
 150 537 l 1
 77 537 l 1
 77 619 l 1
 150 619 l 1
 150 740 l 1
 278 753 l 1
 278 619 l 1
 381 619 l 1
 381 537 l 1
 278 537 l 1
 278 439 l 1
 306 434 l 1
EndSplineSet
EndChar
StartChar: uni01BF
Encoding: 447 447 381
Width: 589
Flags: W
HStem: -218 21G<75 75> -204 21G<203 203> -12 21G<203 203> 448 96<328.5 355.5> 509 20G<75 187 187 187>
VStem: 75 128<-204 -12 -204 85 85 385> 411 134<296 383.5>
LayerCount: 2
Fore
SplineSet
367 544 m 0x76
 469 544 545 473 545 353 c 0
 545 179 429 101 271 22 c 2
 203 -12 l 1
 203 -204 l 1x76
 75 -218 l 1
 75 529 l 1
 187 529 l 1xae
 195 459 l 1
 237 510 290 544 367 544 c 0x76
250 112 m 2
 354 173 411 241 411 351 c 0
 411 416 382 448 329 448 c 0
 277 448 238 423 203 385 c 1
 203 85 l 1
 250 112 l 2
EndSplineSet
EndChar
StartChar: uni01C1
Encoding: 449 449 383
Width: 464
Flags: W
HStem: 0 21G<81 194 81 81 270 270 270 383> 721 20G<81 81 270 270> 733 20G<194 194 383 383>
VStem: 81 113<0 741 741 741> 270 113<0 741 741 741>
LayerCount: 2
Fore
SplineSet
194 753 m 1xb8
 194 0 l 1
 81 0 l 1
 81 741 l 1xd8
 194 753 l 1xb8
383 753 m 1xb8
 383 0 l 1
 270 0 l 1
 270 741 l 1xd8
 383 753 l 1xb8
EndSplineSet
EndChar
StartChar: uni01C2
Encoding: 450 450 385
Width: 322
Flags: W
HStem: 0 21G<104 218 104 104> 252 79<10 104 10 104 218 312> 401 79<10 104 10 104 218 312> 721 20G<104 104> 733 20G<218 218>
VStem: 104 114<0 252 0 252 331 401 480 741 741 741>
LayerCount: 2
Fore
SplineSet
312 401 m 1xec
 218 401 l 1
 218 331 l 1
 312 331 l 1
 312 252 l 1
 218 252 l 1
 218 0 l 1
 104 0 l 1
 104 252 l 1
 10 252 l 1
 10 331 l 1
 104 331 l 1
 104 401 l 1
 10 401 l 1
 10 480 l 1
 104 480 l 1
 104 741 l 1xf4
 218 753 l 1
 218 480 l 1
 312 480 l 1
 312 401 l 1xec
EndSplineSet
EndChar
StartChar: uni01C7
Encoding: 455 455 389
Width: 797
Flags: W
HStem: 0 108<213 475> 671 20G<81 213 213 213 587 720 720 720>
VStem: 81 132<108 691 108 691 108 691> 587 133<106 691>
LayerCount: 2
Fore
SplineSet
213 691 m 1
 213 108 l 1
 490 108 l 1
 475 0 l 1
 81 0 l 1
 81 691 l 1
 213 691 l 1
720 691 m 1
 720 101 l 2
 720 -60 631 -118 517 -155 c 1
 482 -60 l 1
 572 -25 587 19 587 106 c 2
 587 691 l 1
 720 691 l 1
EndSplineSet
EndChar
StartChar: uni01C9
Encoding: 457 457 391
Width: 576
Flags: W
HStem: -217 21G<308 308> -15 21G<157.5 214.5> -15 103<157.5 232.5> 509 20G<373 501 501 501> 642 155<413.5 461> 721 20G<69 69> 735 20G<197 197>
VStem: 69 128<121 125 125 741 741 741> 357 161<697.5 741> 373 128<39 47 47 529>
LayerCount: 2
Fore
SplineSet
437 797 m 0xd980
 485 797 518 763 518 719 c 0
 518 676 485 642 437 642 c 0
 390 642 357 676 357 719 c 0
 357 763 390 797 437 797 c 0xd980
198 -15 m 0
 117 -15 69 34 69 121 c 2
 69 741 l 1xd540
 197 755 l 1
 197 125 l 2
 197 100 205 88 227 88 c 0
 238 88 248 90 256 93 c 1xb340
 284 3 l 1
 262 -7 231 -15 198 -15 c 0
501 529 m 1xd340
 501 47 l 2
 501 -115 427 -169 308 -217 c 1
 267 -124 l 1
 336 -92 373 -65 373 39 c 2
 373 529 l 1
 501 529 l 1xd340
EndSplineSet
EndChar
StartChar: uni01CA
Encoding: 458 458 393
Width: 984
Flags: W
HStem: 0 21G<81 201 81 81 420 591 420 420> 0 131<489 489 489 591 420 489> 559 132<183 183> 671 20G<81 248 248 248 471 591 591 591 774 907 907 907>
VStem: 81 120<0 282 0 691> 471 120<367 691 0 691> 774 133<106 691>
LayerCount: 2
Fore
SplineSet
591 691 m 1x9e
 591 0 l 1
 420 0 l 1
 183 559 l 1xae
 190 498 201 410 201 282 c 2
 201 0 l 1
 81 0 l 1
 81 691 l 1
 248 691 l 1
 489 131 l 1x5e
 483 169 471 269 471 367 c 2
 471 691 l 1
 591 691 l 1x9e
907 691 m 1
 907 101 l 2
 907 -60 818 -118 704 -155 c 1
 669 -60 l 1
 759 -25 774 19 774 106 c 2
 774 691 l 1
 907 691 l 1
EndSplineSet
EndChar
StartChar: uni01CB
Encoding: 459 459 393
Width: 951
Flags: W
HStem: -217 21G<683 683> 0 21G<81 201 81 81 420 591 420 420> 0 131<489 489 489 591 420 489> 509 20G<748 876 876 876> 559 132<183 183> 642 155<788.5 836> 671 20G<81 248 248 248 471 591 591 591>
VStem: 81 120<0 282 0 691> 471 120<367 691 0 691> 732 160<697.5 741> 748 128<39 47 47 529>
LayerCount: 2
Fore
SplineSet
812 797 m 0xd5c0
 860 797 892 763 892 719 c 0
 892 676 860 642 812 642 c 0
 765 642 732 676 732 719 c 0
 732 763 765 797 812 797 c 0xd5c0
591 691 m 1xb3a0
 591 0 l 1
 420 0 l 1
 183 559 l 1xd9a0
 190 498 201 410 201 282 c 2
 201 0 l 1
 81 0 l 1
 81 691 l 1
 248 691 l 1
 489 131 l 1
 483 169 471 269 471 367 c 2
 471 691 l 1
 591 691 l 1xb3a0
876 529 m 1xd3a0
 876 47 l 2
 876 -115 802 -169 683 -217 c 1
 642 -124 l 1
 711 -92 748 -65 748 39 c 2
 748 529 l 1
 876 529 l 1xd3a0
EndSplineSet
EndChar
StartChar: uni01CD
Encoding: 461 461 395
Width: 583
Flags: W
HStem: 0 21G<-5 132 -5 -5 447 587 447 447> 160 100<201 377 201 404 175 377> 590 101<289 289> 671 20G<210 373 373 373>
VStem: -5 592<0 0>
LayerCount: 2
Fore
SplineSet
332 752 m 1xd8
 252 752 l 1
 113 872 l 1
 162 928 l 1
 292 845 l 1
 422 928 l 1
 471 872 l 1
 332 752 l 1xd8
447 0 m 1
 404 160 l 1
 175 160 l 1
 132 0 l 1
 -5 0 l 1
 210 691 l 1
 373 691 l 1
 587 0 l 1
 447 0 l 1
201 260 m 1
 377 260 l 1
 289 590 l 1xe8
 201 260 l 1
EndSplineSet
EndChar
StartChar: uni01D0
Encoding: 464 464 399
Width: 278
Flags: W
HStem: 0 21G<75 203 75 75> 509 20G<75 203 203 203> 724 20G<-40 -40 318 318>
VStem: 75 128<0 529 0 529>
LayerCount: 2
Fore
SplineSet
269 800 m 1
 318 744 l 1
 179 619 l 1
 99 619 l 1
 -40 744 l 1
 9 800 l 1
 139 712 l 1
 269 800 l 1
203 529 m 1
 203 0 l 1
 75 0 l 1
 75 529 l 1
 203 529 l 1
EndSplineSet
EndChar
StartChar: uni01D4
Encoding: 468 468 402
Width: 571
Flags: W
HStem: -15 97<239 252.5> 0 21G<385 496 385 385> 509 20G<69 197 197 197 368 496 496 496> 724 20G<104 104 462 462>
VStem: 69 128<149 165 165 529> 368 128<157 529 0 529>
LayerCount: 2
Fore
SplineSet
413 800 m 1x7c
 462 744 l 1
 323 619 l 1
 243 619 l 1
 104 744 l 1
 153 800 l 1
 283 712 l 1
 413 800 l 1x7c
496 529 m 1
 496 0 l 1
 385 0 l 1x7c
 378 74 l 1
 339 14 289 -15 216 -15 c 0
 120 -15 69 47 69 149 c 2
 69 529 l 1
 197 529 l 1
 197 165 l 2
 197 103 217 82 261 82 c 0
 305 82 341 111 368 157 c 1xbc
 368 529 l 1
 496 529 l 1
EndSplineSet
EndChar
StartChar: uni01D5
Encoding: 469 469 403
Width: 656
Flags: W
HStem: -15 103<284.5 370 284.5 411.5> 671 20G<71 203 203 203 452 585 585 585> 746 138<197 236.5 418.5 458> 923 91<185 476 185 476>
VStem: 71 132<226 233 233 691> 146 141<795.5 834> 185 291<923 1014 923 1014> 368 141<795.5 834> 452 133<233 691>
LayerCount: 2
Fore
SplineSet
476 923 m 1xf2
 185 923 l 1
 185 1014 l 1
 476 1014 l 1
 476 923 l 1xf2
217 884 m 0xf880
 256 884 287 853 287 815 c 0xf480
 287 776 256 746 217 746 c 0
 177 746 146 776 146 815 c 0
 146 853 177 884 217 884 c 0xf880
438 884 m 0
 478 884 509 853 509 815 c 0xf880
 509 776 478 746 438 746 c 0
 399 746 368 776 368 815 c 0xf9
 368 853 399 884 438 884 c 0
585 691 m 1
 585 226 l 2
 585 87 496 -15 327 -15 c 0
 157 -15 71 84 71 226 c 2
 71 691 l 1
 203 691 l 1
 203 233 l 2
 203 136 242 88 327 88 c 0
 413 88 452 136 452 233 c 2
 452 691 l 1
 585 691 l 1
EndSplineSet
EndChar
StartChar: uni01D6
Encoding: 470 470 405
Width: 571
Flags: W
HStem: -15 97<239 252.5> 0 21G<385 496 385 385> 509 20G<69 197 197 197 368 496 496 496> 612 138<152 191.5 373.5 413> 796 92<137 428 137 428>
VStem: 69 128<149 165 165 529> 101 140<661.5 700> 137 291<796 888 796 888> 323 140<661.5 700> 368 128<157 529 0 529>
LayerCount: 2
Fore
SplineSet
428 796 m 1x79
 137 796 l 1
 137 888 l 1
 428 888 l 1
 428 796 l 1x79
172 750 m 0x7a80
 211 750 241 719 241 681 c 0
 241 642 211 612 172 612 c 0
 132 612 101 642 101 681 c 0
 101 719 132 750 172 750 c 0x7a80
393 750 m 0
 433 750 463 719 463 681 c 0
 463 642 433 612 393 612 c 0
 354 612 323 642 323 681 c 0
 323 719 354 750 393 750 c 0
496 529 m 1xbc40
 496 0 l 1
 385 0 l 1x7c40
 378 74 l 1
 339 14 289 -15 216 -15 c 0
 120 -15 69 47 69 149 c 2
 69 529 l 1
 197 529 l 1
 197 165 l 2
 197 103 217 82 261 82 c 0
 305 82 341 111 368 157 c 1
 368 529 l 1
 496 529 l 1xbc40
EndSplineSet
EndChar
StartChar: uni01D9
Encoding: 473 473 407
Width: 656
Flags: W
HStem: -15 103<284.5 370 284.5 411.5> 671 20G<71 203 203 203 452 585 585 585> 747 138<193.5 233 422 461.5>
VStem: 71 132<226 233 233 691> 143 140<796.5 835.5> 372 140<796.5 835.5> 452 133<233 691>
LayerCount: 2
Fore
SplineSet
456 1064 m 1xf2
 504 1008 l 1
 366 887 l 1
 286 887 l 1
 146 1008 l 1
 196 1064 l 1
 325 981 l 1
 456 1064 l 1xf2
214 885 m 0
 252 885 283 855 283 816 c 0xea
 283 777 252 747 214 747 c 0
 173 747 143 777 143 816 c 0
 143 855 173 885 214 885 c 0
442 885 m 0
 481 885 512 855 512 816 c 0xf2
 512 777 481 747 442 747 c 0
 402 747 372 777 372 816 c 0xf4
 372 855 402 885 442 885 c 0
585 691 m 1
 585 226 l 2
 585 87 496 -15 327 -15 c 0
 157 -15 71 84 71 226 c 2
 71 691 l 1
 203 691 l 1
 203 233 l 2
 203 136 242 88 327 88 c 0
 413 88 452 136 452 233 c 2
 452 691 l 1
 585 691 l 1
EndSplineSet
EndChar
StartChar: uni01DA
Encoding: 474 474 408
Width: 571
Flags: W
HStem: -15 97<239 252.5> 0 21G<385 496 385 385> 509 20G<69 197 197 197 368 496 496 496> 611 139<149.5 189 377.5 417>
VStem: 69 128<149 165 165 529> 99 140<661.5 700> 327 141<661.5 700> 368 128<157 529 0 529>
LayerCount: 2
Fore
SplineSet
413 928 m 1x79
 462 872 l 1
 324 752 l 1
 243 752 l 1
 104 872 l 1
 153 928 l 1
 283 846 l 1
 413 928 l 1x79
169 750 m 0x76
 209 750 239 719 239 681 c 0
 239 642 209 611 169 611 c 0
 130 611 99 642 99 681 c 0
 99 719 130 750 169 750 c 0x76
397 750 m 0
 437 750 468 719 468 681 c 0
 468 642 437 611 397 611 c 0
 358 611 327 642 327 681 c 0
 327 719 358 750 397 750 c 0
496 529 m 1xb9
 496 0 l 1
 385 0 l 1x79
 378 74 l 1
 339 14 289 -15 216 -15 c 0
 120 -15 69 47 69 149 c 2
 69 529 l 1
 197 529 l 1
 197 165 l 2
 197 103 217 82 261 82 c 0
 305 82 341 111 368 157 c 1
 368 529 l 1
 496 529 l 1xb9
EndSplineSet
EndChar
StartChar: uni01DC
Encoding: 476 476 410
Width: 571
Flags: W
HStem: -15 97<239 252.5> 0 21G<385 496 385 385> 509 20G<69 197 197 197 368 496 496 496> 611 139<149 188.5 377.5 417>
VStem: 69 128<149 165 165 529> 98 140<661.5 700> 327 140<661.5 700> 368 128<157 529 0 529>
LayerCount: 2
Fore
SplineSet
209 924 m 1x79
 334 765 l 1
 284 720 l 1
 137 854 l 1
 209 924 l 1x79
169 750 m 0x76
 208 750 238 719 238 681 c 0
 238 642 208 611 169 611 c 0
 129 611 98 642 98 681 c 0
 98 719 129 750 169 750 c 0x76
397 750 m 0
 437 750 467 719 467 681 c 0
 467 642 437 611 397 611 c 0
 358 611 327 642 327 681 c 0
 327 719 358 750 397 750 c 0
496 529 m 1xb9
 496 0 l 1
 385 0 l 1x79
 378 74 l 1
 339 14 289 -15 216 -15 c 0
 120 -15 69 47 69 149 c 2
 69 529 l 1
 197 529 l 1
 197 165 l 2
 197 103 217 82 261 82 c 0
 305 82 341 111 368 157 c 1
 368 529 l 1
 496 529 l 1xb9
EndSplineSet
EndChar
StartChar: uni01DD
Encoding: 477 477 412
Width: 555
Flags: W
HStem: -15 94<237 305.5 237 348> 222 83<161 384 161 161> 449 95<241 301>
VStem: 39 122<214 222 214 260.5> 384 128<222 222 305 305>
LayerCount: 2
Fore
SplineSet
269 544 m 0
 437 544 512 432 512 265 c 0
 512 100 424 -15 272 -15 c 0
 131 -15 39 84 39 252 c 0
 39 269 39 289 41 305 c 1
 384 305 l 1
 378 406 337 449 265 449 c 0
 217 449 176 437 131 402 c 1
 76 478 l 1
 126 519 189 544 269 544 c 0
272 79 m 0
 339 79 379 117 384 222 c 1
 161 222 l 1
 161 214 l 2
 162 129 202 79 272 79 c 0
EndSplineSet
EndChar
StartChar: uni01DE
Encoding: 478 478 412
Width: 583
Flags: W
HStem: 0 21G<-5 132 -5 -5 447 587 447 447> 160 100<201 377 201 404 175 377> 590 101<289 289> 671 20G<210 373 373 373> 746 138<161 200.5 382.5 422> 923 91<149 440 149 440>
VStem: 110 141<795.5 834> 149 291<923 1014 923 1014> 332 141<795.5 834>
LayerCount: 2
Fore
SplineSet
440 1014 m 1xd5
 440 923 l 1
 149 923 l 1
 149 1014 l 1
 440 1014 l 1xd5
181 746 m 0xde80
 141 746 110 776 110 815 c 0
 110 853 141 884 181 884 c 0
 220 884 251 853 251 815 c 0
 251 776 220 746 181 746 c 0xde80
332 815 m 0
 332 853 363 884 402 884 c 0
 442 884 473 853 473 815 c 0
 473 776 442 746 402 746 c 0
 363 746 332 776 332 815 c 0
447 0 m 1
 404 160 l 1
 175 160 l 1
 132 0 l 1
 -5 0 l 1
 210 691 l 1
 373 691 l 1
 587 0 l 1
 447 0 l 1
201 260 m 1
 377 260 l 1
 289 590 l 1xe680
 201 260 l 1
EndSplineSet
EndChar
StartChar: uni01DF
Encoding: 479 479 413
Width: 546
Flags: W
HStem: -15 93<215.5 237.5> 250 75<276 289 289 342> 447 97<235 277> 612 138<135 174.5 356.5 396> 796 92<120 411 120 411>
VStem: 35 130<132.5 189 132.5 205.5> 84 140<661.5 700> 120 291<796 888 796 888> 306 140<661.5 700> 342 126<143 250 250 250 325 355 355 362>
LayerCount: 2
Fore
SplineSet
411 888 m 1xf9
 411 796 l 1
 120 796 l 1
 120 888 l 1
 411 888 l 1xf9
155 612 m 0xfa80
 115 612 84 642 84 681 c 0
 84 719 115 750 155 750 c 0
 194 750 224 719 224 681 c 0
 224 642 194 612 155 612 c 0xfa80
306 681 m 0
 306 719 337 750 376 750 c 0
 416 750 446 719 446 681 c 0
 446 642 416 612 376 612 c 0
 337 612 306 642 306 681 c 0
468 140 m 2xfc40
 468 97 482 82 508 72 c 1
 481 -13 l 1
 423 -8 385 13 364 64 c 1
 327 8 269 -15 206 -15 c 0
 100 -15 35 52 35 148 c 0
 35 263 122 325 276 325 c 2
 342 325 l 1
 342 355 l 2
 342 424 311 447 243 447 c 0
 207 447 156 437 103 419 c 1
 73 506 l 1
 138 531 205 544 265 544 c 0
 406 544 468 479 468 362 c 2
 468 140 l 2xfc40
240 78 m 0
 285 78 318 101 342 143 c 1
 342 250 l 1
 289 250 l 2
 206 250 165 220 165 158 c 0
 165 107 191 78 240 78 c 0
EndSplineSet
EndChar
StartChar: uni01E1
Encoding: 481 481 415
Width: 546
Flags: W
HStem: -15 93<215.5 237.5> 250 75<276 289 289 342> 447 97<235 277> 599 154<241.5 289> 787 91<121 412 121 412>
VStem: 35 130<132.5 189 132.5 205.5> 121 291<787 878 787 878> 185 160<654 698> 342 126<143 250 250 250 325 355 355 362>
LayerCount: 2
Fore
SplineSet
412 878 m 1xfa
 412 787 l 1
 121 787 l 1
 121 878 l 1
 412 878 l 1xfa
185 676 m 0xfd
 185 720 218 753 265 753 c 0
 313 753 345 720 345 676 c 0
 345 632 313 599 265 599 c 0
 218 599 185 632 185 676 c 0xfd
468 140 m 2xfc80
 468 97 482 82 508 72 c 1
 481 -13 l 1
 423 -8 385 13 364 64 c 1
 327 8 269 -15 206 -15 c 0
 100 -15 35 52 35 148 c 0
 35 263 122 325 276 325 c 2
 342 325 l 1
 342 355 l 2
 342 424 311 447 243 447 c 0
 207 447 156 437 103 419 c 1
 73 506 l 1
 138 531 205 544 265 544 c 0
 406 544 468 479 468 362 c 2
 468 140 l 2xfc80
240 78 m 0
 285 78 318 101 342 143 c 1
 342 250 l 1
 289 250 l 2
 206 250 165 220 165 158 c 0
 165 107 191 78 240 78 c 0
EndSplineSet
EndChar
StartChar: uni01E4
Encoding: 484 484 419
Width: 654
Flags: W
HStem: -15 101<292 366.5 292 391.5> 173 87<349 463 349 463 586 651> 310 90<351 463 351 351> 606 100<315 393.5>
VStem: 43 139<251.5 439 251.5 463> 463 123<111 173 53 173 260 310 310 310>
LayerCount: 2
Fore
SplineSet
651 260 m 1
 651 173 l 1
 586 173 l 1
 586 53 l 1
 519 11 437 -15 346 -15 c 0
 151 -15 43 109 43 346 c 0
 43 580 188 706 358 706 c 0
 457 706 522 675 580 625 c 1
 510 551 l 1
 462 588 423 606 364 606 c 0
 266 606 182 532 182 346 c 0
 182 157 238 86 346 86 c 0
 387 86 425 94 463 111 c 1
 463 173 l 1
 349 173 l 1
 349 260 l 1
 463 260 l 1
 463 310 l 1
 351 310 l 1
 338 400 l 1
 586 400 l 1
 586 260 l 1
 651 260 l 1
EndSplineSet
EndChar
StartChar: uni01E5
Encoding: 485 485 419
Width: 537
Flags: W
HStem: -218 87<205.5 300.5 205.5 332> -85 62<267 400 267 402 267 400 518 569> 15 88<168 327 246 301> 169 83<255.5 292.5 232.5 333.5> 457 87<231 258 194 292> 483 61
VStem: 15 115<-80 -52 -80 -52> 39 129<324 386.5 324 411.5> 70 112<84 146> 356 124<323.5 380 295.5 390.5>
LayerCount: 2
Fore
SplineSet
569 -23 m 1xf940
 569 -85 l 1
 516 -85 l 1
 497 -169 408 -218 256 -218 c 0
 68 -218 15 -158 15 -52 c 1
 130 -52 l 1xfa40
 130 -108 153 -131 258 -131 c 0
 343 -131 387 -116 402 -85 c 1
 267 -85 l 1
 267 -23 l 1
 400 -23 l 1
 385 3 350 15 301 15 c 2
 221 15 l 2
 115 15 70 58 70 110 c 0xf8c0
 70 147 93 181 132 205 c 1
 67 239 39 286 39 354 c 0
 39 469 130 544 258 544 c 0
 383 541 441 569 505 603 c 1xf940
 537 501 l 1
 497 487 447 483 384 483 c 1
 448 454 480 413 480 347 c 0
 480 244 400 169 267 169 c 0
 244 169 224 171 204 177 c 1
 191 168 182 154 182 138 c 0
 182 119 193 103 246 103 c 2xf4c0
 327 103 l 2
 432 103 504 51 518 -23 c 1
 569 -23 l 1xf940
260 457 m 0xf940
 202 457 168 417 168 356 c 0
 168 292 203 252 262 252 c 0
 323 252 356 290 356 357 c 0
 356 424 324 457 260 457 c 0xf940
EndSplineSet
EndChar
StartChar: uni01EA
Encoding: 490 490 424
Width: 691
Flags: W
HStem: -239 85<362 378> -12 21G 605 101<294.5 398>
VStem: 43 139<252 438 252 458.5> 228 98<-123 -105.5> 509 139<254.5 438.5>
LayerCount: 2
Fore
SplineSet
648 346 m 0
 648 163 573 41 447 0 c 1
 347 -40 326 -76 326 -108 c 0
 326 -138 343 -154 381 -154 c 0
 401 -154 418 -152 442 -147 c 1
 432 -232 l 1
 411 -236 391 -239 365 -239 c 0
 283 -239 228 -195 228 -130 c 0
 228 -81 253 -43 298 -12 c 1
 141 9 43 134 43 345 c 0
 43 572 161 706 346 706 c 0
 531 706 648 577 648 346 c 0
346 86 m 0
 449 86 509 159 509 346 c 0
 509 531 450 605 346 605 c 0
 243 605 182 531 182 345 c 0
 182 159 245 86 346 86 c 0
EndSplineSet
EndChar
StartChar: uni01EB
Encoding: 491 491 426
Width: 584
Flags: W
HStem: -239 85<297 313> -10 21G 447 97<255.5 330>
VStem: 43 135<201.5 327.5 201.5 348> 163 98<-123 -105> 406 135<202 328>
LayerCount: 2
Fore
SplineSet
375 -3 m 1xec
 281 -42 261 -77 261 -108 c 0
 261 -138 278 -154 316 -154 c 0
 336 -154 353 -152 377 -147 c 1
 367 -232 l 1
 346 -236 326 -239 300 -239 c 0
 218 -239 163 -195 163 -130 c 0xec
 163 -80 189 -41 236 -10 c 1
 114 13 43 113 43 265 c 0xf4
 43 431 136 544 293 544 c 0
 449 544 541 438 541 265 c 0
 541 130 481 31 375 -3 c 1xec
178 265 m 0xf4
 178 138 217 82 292 82 c 0
 367 82 406 139 406 265 c 0
 406 391 367 447 293 447 c 0
 218 447 178 390 178 265 c 0xf4
EndSplineSet
EndChar
StartChar: uni01EC
Encoding: 492 492 426
Width: 691
Flags: W
HStem: -239 85<362 378> -12 21G 605 101<294.5 398> 787 91<200 491 200 491>
VStem: 43 139<252 438 252 458.5> 200 291<787 878 787 878> 228 98<-123 -105.5> 509 139<254.5 438.5>
LayerCount: 2
Fore
SplineSet
491 878 m 1xfd
 491 787 l 1
 200 787 l 1
 200 878 l 1
 491 878 l 1xfd
648 346 m 0xfb
 648 163 573 41 447 0 c 1
 347 -40 326 -76 326 -108 c 0
 326 -138 343 -154 381 -154 c 0
 401 -154 418 -152 442 -147 c 1
 432 -232 l 1
 411 -236 391 -239 365 -239 c 0
 283 -239 228 -195 228 -130 c 0
 228 -81 253 -43 298 -12 c 1
 141 9 43 134 43 345 c 0
 43 572 161 706 346 706 c 0
 531 706 648 577 648 346 c 0xfb
346 86 m 0
 449 86 509 159 509 346 c 0
 509 531 450 605 346 605 c 0
 243 605 182 531 182 345 c 0
 182 159 245 86 346 86 c 0
EndSplineSet
EndChar
StartChar: uni01EE
Encoding: 494 494 428
Width: 533
Flags: W
HStem: -15 102<197 271 197 318.5> 317 83<127 273> 591 100<42 318 42 468>
VStem: 360 138<168.5 246>
LayerCount: 2
Fore
SplineSet
295 752 m 1
 215 752 l 1
 76 872 l 1
 125 928 l 1
 255 845 l 1
 385 928 l 1
 434 872 l 1
 295 752 l 1
273 400 m 1
 422 398 498 324 498 202 c 0
 498 78 401 -15 236 -15 c 0
 131 -15 60 19 7 82 c 1
 78 151 l 1
 122 107 165 87 229 87 c 0
 313 87 360 131 360 206 c 0
 360 286 312 317 221 317 c 2
 127 317 l 1
 127 398 l 1
 318 591 l 1
 42 591 l 1
 42 691 l 1
 468 691 l 1
 468 593 l 1
 273 400 l 1
EndSplineSet
EndChar
StartChar: uni01EF
Encoding: 495 495 429
Width: 492
Flags: W
HStem: -218 100<182 251.5 182 297> 128 82<114 248> 430 99<29 300 29 445> 724 20G<58 58 416 416>
VStem: 339 134<-30 55.5>
LayerCount: 2
Fore
SplineSet
277 619 m 1
 197 619 l 1
 58 744 l 1
 107 800 l 1
 237 712 l 1
 367 800 l 1
 416 744 l 1
 277 619 l 1
248 210 m 1
 392 205 473 139 473 8 c 0
 473 -124 376 -218 218 -218 c 0
 116 -218 46 -182 -7 -121 c 1
 64 -54 l 1
 110 -98 152 -118 212 -118 c 0
 291 -118 339 -74 339 14 c 0
 339 97 296 128 200 128 c 2
 114 128 l 1
 114 209 l 1
 300 430 l 1
 29 430 l 1
 29 529 l 1
 445 529 l 1
 445 438 l 1
 248 210 l 1
EndSplineSet
EndChar
StartChar: uni01F0
Encoding: 496 496 430
Width: 279
Flags: W
HStem: -217 21G<11 11> 509 20G<76 204 204 204> 724 20G<-39 -39 319 319>
VStem: 76 128<39 47 47 529>
LayerCount: 2
Fore
SplineSet
270 800 m 1
 319 744 l 1
 180 619 l 1
 100 619 l 1
 -39 744 l 1
 10 800 l 1
 140 712 l 1
 270 800 l 1
204 529 m 1
 204 47 l 2
 204 -115 130 -169 11 -217 c 1
 -30 -124 l 1
 39 -92 76 -65 76 39 c 2
 76 529 l 1
 204 529 l 1
EndSplineSet
EndChar
StartChar: uni01F1
Encoding: 497 497 431
Width: 1157
Flags: W
HStem: 0 99<213 269> 0 108<800 1108> 586 105<679 971> 592 99<213 251 251 274 213 213>
VStem: 81 132<99 592 99 691 99 691> 466 139<247 453>
LayerCount: 2
Fore
SplineSet
251 691 m 2x6c
 433 691 605 635 605 349 c 0
 605 69 434 0 269 0 c 2
 81 0 l 1
 81 691 l 1
 251 691 l 2x6c
1119 691 m 1
 1119 589 l 1
 800 108 l 1
 1122 108 l 1
 1108 0 l 1
 646 0 l 1
 646 101 l 1
 971 586 l 1
 679 586 l 1
 679 691 l 1
 1119 691 l 1
274 592 m 2x9c
 213 592 l 1
 213 99 l 1
 278 99 l 2
 381 99 466 145 466 349 c 0
 466 557 376 592 274 592 c 2x9c
EndSplineSet
EndChar
StartChar: uni01F2
Encoding: 498 498 432
Width: 1085
Flags: W
HStem: 0 100<806 1054> 429 100<681 916 681 1062> 592 99<213 251 251 274 213 213>
VStem: 81 132<99 592 99 691 99 691> 466 139<247 453>
LayerCount: 2
Fore
SplineSet
251 691 m 2
 433 691 605 635 605 349 c 0
 605 69 434 0 269 0 c 2
 81 0 l 1
 81 691 l 1
 251 691 l 2
274 592 m 2
 213 592 l 1
 213 99 l 1
 278 99 l 2
 381 99 466 145 466 349 c 0
 466 557 376 592 274 592 c 2
1062 529 m 1
 1062 437 l 1
 806 100 l 1
 1067 100 l 1
 1054 0 l 1
 659 0 l 1
 659 92 l 1
 916 429 l 1
 681 429 l 1
 681 529 l 1
 1062 529 l 1
EndSplineSet
EndChar
StartChar: uni01F6
Encoding: 502 502 436
Width: 959
Flags: W
HStem: -15 97<642.5 691 642.5 717.5> 0 21G<81 213 81 81> 309 105<213 459 213 459> 509 20G<749 877 877 877> 671 20G<81 213 213 213 459 592 592 592>
VStem: 81 132<0 309 0 414 414 691> 459 133<173 177 177 309 309 309 414 691> 776 128<193 301.5>
LayerCount: 2
Fore
SplineSet
877 529 m 1xbf
 892 445 904 358 904 251 c 0
 904 62 778 -15 657 -15 c 0xbf
 550 -15 459 46 459 173 c 2
 459 309 l 1
 213 309 l 1
 213 0 l 1
 81 0 l 1x7f
 81 691 l 1
 213 691 l 1
 213 414 l 1
 459 414 l 1
 459 691 l 1
 592 691 l 1
 592 177 l 2
 592 111 619 82 666 82 c 0
 716 82 776 124 776 262 c 0
 776 341 767 433 749 529 c 1
 877 529 l 1xbf
EndSplineSet
EndChar
StartChar: uni01F9
Encoding: 505 505 440
Width: 576
Flags: W
HStem: 0 21G<75 203 75 75 379 507 379 379> 448 96<323.5 334> 509 20G<75 186 186 186> 675 20G<435 435>
VStem: 75 128<0 368 0 529> 379 128<0 363 363 383 0 396>
LayerCount: 2
Fore
SplineSet
435 695 m 1xbc
 398 630 l 1
 173 720 l 1
 225 820 l 1
 435 695 l 1xbc
357 544 m 0xdc
 452 544 507 484 507 383 c 2
 507 0 l 1
 379 0 l 1
 379 363 l 2
 379 429 354 448 314 448 c 0
 268 448 234 417 203 368 c 1xdc
 203 0 l 1
 75 0 l 1
 75 529 l 1
 186 529 l 1xbc
 196 460 l 1
 237 513 290 544 357 544 c 0xdc
EndSplineSet
EndChar
StartChar: uni01FA
Encoding: 506 506 441
Width: 583
Flags: W
HStem: 0 21G<-5 132 -5 -5 447 587 447 447> 160 100<201 377 201 404 175 377> 590 101<289 289> 671 20G<210 373 373 373> 725 67<277 306.5 277 330.5> 897 67<277 306.5>
VStem: 164 79<827.5 861 827.5 877> 340 79<827.5 861>
LayerCount: 2
Fore
SplineSet
424 1052 m 1xdf
 195 969 l 1
 162 1035 l 1
 374 1152 l 1
 424 1052 l 1xdf
164 844 m 0
 164 910 214 964 292 964 c 0
 369 964 419 910 419 844 c 0
 419 779 369 725 292 725 c 0
 214 725 164 779 164 844 c 0
340 844 m 0
 340 878 321 897 292 897 c 0
 262 897 243 878 243 844 c 0
 243 811 262 792 292 792 c 0
 321 792 340 811 340 844 c 0
447 0 m 1
 404 160 l 1
 175 160 l 1
 132 0 l 1
 -5 0 l 1
 210 691 l 1
 373 691 l 1
 587 0 l 1
 447 0 l 1
201 260 m 1
 377 260 l 1
 289 590 l 1xef
 201 260 l 1
EndSplineSet
EndChar
StartChar: uni01FB
Encoding: 507 507 442
Width: 546
Flags: W
HStem: -15 93<215.5 237.5> 250 75<276 289 289 342> 447 97<235 277> 580 68<251 280 251 304.5> 753 67<251 280.5>
VStem: 35 130<132.5 189 132.5 205.5> 138 79<683 717 683 733> 314 79<683 717> 342 126<143 250 250 250 325 355 355 362>
LayerCount: 2
Fore
SplineSet
397 908 m 1xfa80
 168 825 l 1
 135 891 l 1
 347 1008 l 1
 397 908 l 1xfa80
138 700 m 0
 138 766 188 820 266 820 c 0
 343 820 393 766 393 700 c 0xfb
 393 635 343 580 266 580 c 0
 188 580 138 635 138 700 c 0
314 700 m 0xfb
 314 734 295 753 266 753 c 0
 236 753 217 734 217 700 c 0
 217 666 236 648 266 648 c 0
 294 648 314 666 314 700 c 0xfb
468 140 m 2xfc80
 468 97 482 82 508 72 c 1
 481 -13 l 1
 423 -8 385 13 364 64 c 1
 327 8 269 -15 206 -15 c 0
 100 -15 35 52 35 148 c 0
 35 263 122 325 276 325 c 2
 342 325 l 1
 342 355 l 2
 342 424 311 447 243 447 c 0
 207 447 156 437 103 419 c 1
 73 506 l 1
 138 531 205 544 265 544 c 0
 406 544 468 479 468 362 c 2
 468 140 l 2xfc80
240 78 m 0
 285 78 318 101 342 143 c 1
 342 250 l 1
 289 250 l 2
 206 250 165 220 165 158 c 0
 165 107 191 78 240 78 c 0
EndSplineSet
EndChar
StartChar: AEacute
Encoding: 508 508 442
Width: 832
Flags: W
HStem: 0 99<560 790 560 790> 160 100<214 399 214 419 179 399> 301 98<514 742 514 514> 593 98<448 736 448 448>
VStem: -18 808<0 99>
LayerCount: 2
Fore
SplineSet
610 836 m 1
 381 753 l 1
 348 819 l 1
 560 936 l 1
 610 836 l 1
560 99 m 1
 790 99 l 1
 790 0 l 1
 451 0 l 1
 419 160 l 1
 179 160 l 1
 122 0 l 1
 -18 0 l 1
 255 691 l 1
 751 691 l 1
 736 593 l 1
 448 593 l 1
 492 399 l 1
 742 399 l 1
 742 301 l 1
 514 301 l 1
 560 99 l 1
214 260 m 1
 399 260 l 1
 332 591 l 1
 214 260 l 1
EndSplineSet
EndChar
StartChar: aeacute
Encoding: 509 509 443
Width: 853
Flags: W
HStem: -15 93<221.5 247.5> -15 97<574 633 574 638> 225 83<480 688 479 811 480 480> 248 77<280 295 295 347 280 348> 446 98<239.5 282> 453 91<554.5 620.5>
VStem: 35 136<131 187.5 131 205.5> 347 132<308 355 308 389> 688 126<308 314 314 314>
LayerCount: 2
Fore
SplineSet
556 720 m 1x6780
 330 630 l 1
 294 695 l 1
 504 820 l 1
 556 720 l 1x6780
814 277 m 0
 814 260 813 239 811 225 c 1
 480 225 l 1x6780
 489 117 539 82 609 82 c 0
 657 82 695 97 741 129 c 1
 795 56 l 1
 742 14 678 -15 598 -15 c 0
 507 -15 439 20 397 78 c 1
 348 9 286 -15 209 -15 c 0
 101 -15 35 52 35 148 c 0
 35 263 123 325 280 325 c 2
 347 325 l 1
 347 355 l 2
 347 423 316 446 248 446 c 0
 212 446 161 436 107 418 c 1x5b80
 78 506 l 1
 143 531 210 544 269 544 c 0
 351 544 400 515 430 470 c 1
 467 516 519 544 590 544 c 0
 729 544 814 444 814 277 c 0
688 308 m 1
 688 314 l 2
 687 401 657 453 584 453 c 0
 524 453 487 413 479 308 c 1
 688 308 l 1
246 78 m 0x9780
 293 78 328 104 361 155 c 1
 353 183 349 212 348 244 c 2
 348 248 l 1
 295 248 l 2
 213 248 171 219 171 156 c 0
 171 106 197 78 246 78 c 0x9780
EndSplineSet
EndChar
StartChar: Oslashacute
Encoding: 510 510 444
Width: 691
Flags: W
HStem: -15 101<339 397.5 339 438.5> -10 21G<288 288> 605 101<294.5 353> 682 20G<402 402>
VStem: 43 139<286.5 438 286.5 458.5> 509 139<252.5 405.5>
LayerCount: 2
Fore
SplineSet
473 861 m 1xac
 244 778 l 1
 211 844 l 1
 423 961 l 1
 473 861 l 1xac
502 667 m 1
 594 613 648 503 648 346 c 0
 648 118 531 -15 346 -15 c 0xac
 326 -15 307 -13 288 -10 c 1
 252 -131 l 1
 149 -104 l 1
 190 24 l 1
 97 79 43 189 43 345 c 0
 43 572 161 706 346 706 c 0x6c
 365 706 384 705 402 702 c 1x9c
 439 824 l 1
 543 796 l 1
 502 667 l 1
346 605 m 0
 243 605 182 531 182 345 c 0
 182 228 203 159 240 123 c 1
 384 602 l 1
 372 604 360 605 346 605 c 0
346 86 m 0
 449 86 509 159 509 346 c 0
 509 465 489 534 450 570 c 1
 307 89 l 1
 319 87 332 86 346 86 c 0
EndSplineSet
EndChar
StartChar: oslashacute
Encoding: 511 511 445
Width: 584
Flags: W
HStem: -15 97<288 331 288 370> -12 21G<251 251> 447 97<253.5 297> 521 20G<334 334>
VStem: 43 128<225 327.5 225 348> 413 128<202 304.5>
LayerCount: 2
Fore
SplineSet
420 720 m 1xac
 194 630 l 1
 158 695 l 1
 368 820 l 1
 420 720 l 1xac
428 509 m 1
 501 465 541 379 541 265 c 0
 541 98 448 -15 292 -15 c 0xac
 278 -15 264 -14 251 -12 c 1
 213 -133 l 1
 115 -104 l 1
 156 20 l 1
 84 65 43 150 43 265 c 0
 43 431 136 544 293 544 c 0x6c
 307 544 321 543 334 541 c 1x9c
 373 662 l 1
 470 633 l 1
 428 509 l 1
293 447 m 0
 214 447 171 390 171 265 c 0
 171 185 183 139 206 112 c 1
 317 446 l 1
 310 447 301 447 293 447 c 0
292 82 m 0
 370 82 413 139 413 265 c 0
 413 344 401 391 378 417 c 1
 268 83 l 1
 276 82 284 82 292 82 c 0
EndSplineSet
EndChar
StartChar: uni0202
Encoding: 514 514 449
Width: 583
Flags: W
HStem: 0 21G<-5 132 -5 -5 447 587 447 447> 160 100<201 377 201 404 175 377> 590 101<289 289> 671 20G<210 373 373 373> 846 92<268 314>
VStem: -5 592<0 0>
LayerCount: 2
Fore
SplineSet
291 846 m 0xdc
 245 846 217 818 204 769 c 1
 129 784 l 1
 137 874 197 938 291 938 c 0
 385 938 447 874 455 784 c 1
 379 769 l 1
 367 818 337 846 291 846 c 0xdc
447 0 m 1
 404 160 l 1
 175 160 l 1
 132 0 l 1
 -5 0 l 1
 210 691 l 1
 373 691 l 1
 587 0 l 1
 447 0 l 1
201 260 m 1
 377 260 l 1
 289 590 l 1xec
 201 260 l 1
EndSplineSet
EndChar
StartChar: uni0206
Encoding: 518 518 453
Width: 530
Flags: W
HStem: 0 99<213 486 213 486> 302 98<213 435 213 435> 593 98<213 468 213 213> 846 92<260 306>
VStem: 81 132<99 302 400 593>
LayerCount: 2
Fore
SplineSet
283 938 m 0
 377 938 439 874 447 784 c 1
 371 769 l 1
 359 818 329 846 283 846 c 0
 237 846 209 818 196 769 c 1
 121 784 l 1
 129 874 189 938 283 938 c 0
482 691 m 1
 468 593 l 1
 213 593 l 1
 213 400 l 1
 435 400 l 1
 435 302 l 1
 213 302 l 1
 213 99 l 1
 486 99 l 1
 486 0 l 1
 81 0 l 1
 81 691 l 1
 482 691 l 1
EndSplineSet
EndChar
StartChar: uni0209
Encoding: 521 521 456
Width: 278
Flags: W
HStem: 0 21G<75 203 75 75> 509 20G<75 203 203 203>
VStem: 75 128<0 529 0 529>
LayerCount: 2
Fore
SplineSet
21 847 m 1
 113 661 l 1
 42 629 l 1
 -72 799 l 1
 21 847 l 1
186 847 m 1
 269 664 l 1
 197 634 l 1
 92 801 l 1
 186 847 l 1
203 529 m 1
 203 0 l 1
 75 0 l 1
 75 529 l 1
 203 529 l 1
EndSplineSet
EndChar
StartChar: uni020A
Encoding: 522 522 456
Width: 294
Flags: W
HStem: 0 21G<81 213 81 81> 671 20G<81 213 213 213> 846 92<122 168>
VStem: 81 132<0 691 0 691>
LayerCount: 2
Fore
SplineSet
145 938 m 0
 239 938 301 874 309 784 c 1
 233 769 l 1
 221 818 191 846 145 846 c 0
 99 846 71 818 58 769 c 1
 -17 784 l 1
 -9 874 51 938 145 938 c 0
213 691 m 1
 213 0 l 1
 81 0 l 1
 81 691 l 1
 213 691 l 1
EndSplineSet
EndChar
StartChar: uni020B
Encoding: 523 523 458
Width: 278
Flags: W
HStem: 0 21G<75 203 75 75> 509 20G<75 203 203 203> 684 92<115 161>
VStem: 75 128<0 529 0 529>
LayerCount: 2
Fore
SplineSet
138 776 m 0
 232 776 294 712 302 622 c 1
 226 607 l 1
 214 656 184 684 138 684 c 0
 92 684 64 656 51 607 c 1
 -24 622 l 1
 -16 712 44 776 138 776 c 0
203 529 m 1
 203 0 l 1
 75 0 l 1
 75 529 l 1
 203 529 l 1
EndSplineSet
EndChar
StartChar: uni020E
Encoding: 526 526 460
Width: 691
Flags: W
HStem: -15 101<295.5 397.5 295.5 438.5> 605 101<294.5 398> 846 92<321 367>
VStem: 43 139<252 438 252 458.5> 509 139<252.5 438.5>
LayerCount: 2
Fore
SplineSet
344 938 m 0
 438 938 500 874 508 784 c 1
 432 769 l 1
 420 818 390 846 344 846 c 0
 298 846 270 818 257 769 c 1
 182 784 l 1
 190 874 250 938 344 938 c 0
346 706 m 0
 531 706 648 577 648 346 c 0
 648 118 531 -15 346 -15 c 0
 161 -15 43 114 43 345 c 0
 43 572 161 706 346 706 c 0
346 605 m 0
 243 605 182 531 182 345 c 0
 182 159 245 86 346 86 c 0
 449 86 509 159 509 346 c 0
 509 531 450 605 346 605 c 0
EndSplineSet
EndChar
StartChar: uni020F
Encoding: 527 527 462
Width: 584
Flags: W
HStem: -15 97<254.5 329.5 254.5 370> 447 97<255.5 330> 684 92<268 314>
VStem: 43 135<201.5 327.5 201.5 348> 406 135<202 328>
LayerCount: 2
Fore
SplineSet
291 776 m 0
 385 776 447 712 455 622 c 1
 379 607 l 1
 367 656 337 684 291 684 c 0
 245 684 217 656 204 607 c 1
 129 622 l 1
 137 712 197 776 291 776 c 0
293 544 m 0
 449 544 541 438 541 265 c 0
 541 98 448 -15 292 -15 c 0
 136 -15 43 91 43 265 c 0
 43 431 136 544 293 544 c 0
293 447 m 0
 218 447 178 390 178 265 c 0
 178 138 217 82 292 82 c 0
 367 82 406 139 406 265 c 0
 406 391 367 447 293 447 c 0
EndSplineSet
EndChar
StartChar: uni0210
Encoding: 528 528 462
Width: 611
Flags: W
HStem: 0 21G<81 213 81 81 450 602 450 450> 277 95<213 295 295 297 213 295> 595 96<213 213 213 284>
VStem: 81 132<0 277 0 372 372 595> 423 138<446.5 525.5>
LayerCount: 2
Fore
SplineSet
265 787 m 1
 194 755 l 1
 80 925 l 1
 173 973 l 1
 265 787 l 1
421 790 m 1
 349 760 l 1
 244 927 l 1
 338 973 l 1
 421 790 l 1
450 0 m 1
 297 277 l 1
 213 277 l 1
 213 0 l 1
 81 0 l 1
 81 691 l 1
 287 691 l 2
 468 691 561 625 561 488 c 0
 561 394 515 338 421 301 c 1
 602 0 l 1
 450 0 l 1
213 595 m 1
 213 372 l 1
 295 372 l 2
 377 372 423 405 423 488 c 0
 423 563 380 595 284 595 c 2
 213 595 l 1
EndSplineSet
EndChar
StartChar: uni0211
Encoding: 529 529 464
Width: 392
Flags: W
HStem: 0 21G<75 203 75 75> 418 125<305 329.5> 509 20G<75 186 186 186> 516 20G<389 389> 536 7
VStem: 75 128<0 282 0 529>
LayerCount: 2
Fore
SplineSet
208 661 m 1x94
 137 629 l 1
 23 799 l 1
 116 847 l 1
 208 661 l 1x94
364 664 m 1
 292 634 l 1
 187 801 l 1
 281 847 l 1
 364 664 l 1
336 543 m 0xc4
 355 543 372 541 389 536 c 1x8c
 367 412 l 1
 351 416 339 418 320 418 c 0xc4
 256 418 223 371 203 282 c 1
 203 0 l 1
 75 0 l 1
 75 529 l 1
 186 529 l 1xa4
 198 425 l 1
 223 501 274 543 336 543 c 0xc4
EndSplineSet
EndChar
StartChar: uni0212
Encoding: 530 530 465
Width: 611
Flags: W
HStem: 0 21G<81 213 81 81 450 602 450 450> 277 95<213 295 295 297 213 295> 595 96<213 213 213 284> 846 92<276 322>
VStem: 81 132<0 277 0 372 372 595> 423 138<446.5 525.5>
LayerCount: 2
Fore
SplineSet
299 846 m 0
 253 846 225 818 212 769 c 1
 137 784 l 1
 145 874 205 938 299 938 c 0
 393 938 455 874 463 784 c 1
 387 769 l 1
 375 818 345 846 299 846 c 0
450 0 m 1
 297 277 l 1
 213 277 l 1
 213 0 l 1
 81 0 l 1
 81 691 l 1
 287 691 l 2
 468 691 561 625 561 488 c 0
 561 394 515 338 421 301 c 1
 602 0 l 1
 450 0 l 1
213 595 m 1
 213 372 l 1
 295 372 l 2
 377 372 423 405 423 488 c 0
 423 563 380 595 284 595 c 2
 213 595 l 1
EndSplineSet
EndChar
StartChar: uni0213
Encoding: 531 531 465
Width: 392
Flags: W
HStem: 0 21G<75 203 75 75> 418 125<305 329.5> 509 20G<75 186 186 186> 516 20G<389 389> 536 7 684 92<209 255>
VStem: 75 128<0 282 0 529>
LayerCount: 2
Fore
SplineSet
232 684 m 0x96
 186 684 158 656 145 607 c 1
 70 622 l 1
 78 712 138 776 232 776 c 0
 326 776 388 712 396 622 c 1
 320 607 l 1
 308 656 278 684 232 684 c 0x96
198 425 m 1xc6
 223 501 274 543 336 543 c 0xc6
 355 543 372 541 389 536 c 1x8e
 367 412 l 1
 351 416 339 418 320 418 c 0xc6
 256 418 223 371 203 282 c 1
 203 0 l 1
 75 0 l 1
 75 529 l 1
 186 529 l 1xa6
 198 425 l 1xc6
EndSplineSet
EndChar
StartChar: uni0215
Encoding: 533 533 467
Width: 571
Flags: W
HStem: -15 97<239 252.5> 0 21G<385 496 385 385> 509 20G<69 197 197 197 368 496 496 496>
VStem: 69 128<149 165 165 529> 368 128<157 529 0 529>
LayerCount: 2
Fore
SplineSet
165 847 m 1x78
 257 661 l 1
 186 629 l 1
 72 799 l 1
 165 847 l 1x78
330 847 m 1
 413 664 l 1
 341 634 l 1
 236 801 l 1
 330 847 l 1
496 529 m 1
 496 0 l 1
 385 0 l 1x78
 378 74 l 1
 339 14 289 -15 216 -15 c 0
 120 -15 69 47 69 149 c 2
 69 529 l 1
 197 529 l 1
 197 165 l 2
 197 103 217 82 261 82 c 0
 305 82 341 111 368 157 c 1xb8
 368 529 l 1
 496 529 l 1
EndSplineSet
EndChar
StartChar: uni0217
Encoding: 535 535 469
Width: 571
Flags: W
HStem: -15 97<239 252.5> 0 21G<385 496 385 385> 509 20G<69 197 197 197 368 496 496 496> 684 92<259 305>
VStem: 69 128<149 165 165 529> 368 128<157 529 0 529>
LayerCount: 2
Fore
SplineSet
282 776 m 0x7c
 376 776 438 712 446 622 c 1
 370 607 l 1
 358 656 328 684 282 684 c 0
 236 684 208 656 195 607 c 1
 120 622 l 1
 128 712 188 776 282 776 c 0x7c
496 529 m 1
 496 0 l 1
 385 0 l 1x7c
 378 74 l 1
 339 14 289 -15 216 -15 c 0
 120 -15 69 47 69 149 c 2
 69 529 l 1
 197 529 l 1
 197 165 l 2
 197 103 217 82 261 82 c 0
 305 82 341 111 368 157 c 1xbc
 368 529 l 1
 496 529 l 1
EndSplineSet
EndChar
StartChar: uni0219
Encoding: 537 537 471
Width: 474
Flags: W
HStem: -15 95<196 251.5 196 286.5> 449 95<223.5 272.5>
VStem: 40 129<378.5 412 378.5 434> 171 139<-151 -121> 317 132<124 166>
LayerCount: 2
Fore
SplineSet
244 544 m 0
 320 544 382 520 432 481 c 1
 382 406 l 1
 338 434 296 449 249 449 c 0
 198 449 169 428 169 396 c 0
 169 361 190 345 280 320 c 0
 388 291 449 247 449 153 c 0
 449 43 347 -15 226 -15 c 0
 135 -15 64 16 15 60 c 1
 79 132 l 1
 120 101 169 80 223 80 c 0
 280 80 317 104 317 144 c 0
 317 188 296 202 197 230 c 0
 88 260 40 312 40 390 c 0
 40 478 121 544 244 544 c 0
241 -72 m 0xd0
 280 -72 310 -101 310 -140 c 0
 310 -162 303 -180 283 -221 c 2
 239 -312 l 1
 172 -312 l 1
 200 -196 l 1
 183 -183 171 -164 171 -140 c 0
 171 -102 201 -72 241 -72 c 0xd0
EndSplineSet
EndChar
StartChar: uni021A
Encoding: 538 538 472
Width: 530
Flags: W
HStem: 0 21G<198 331 198 198> 586 105<12 198 12 525 331 511 331 331>
VStem: 197 139<-151 -121> 198 133<0 586 0 586>
LayerCount: 2
Fore
SplineSet
525 691 m 1xd0
 511 586 l 1
 331 586 l 1
 331 0 l 1
 198 0 l 1
 198 586 l 1
 12 586 l 1
 12 691 l 1
 525 691 l 1xd0
267 -72 m 0xe0
 306 -72 336 -101 336 -140 c 0
 336 -162 329 -180 309 -221 c 2
 265 -312 l 1
 198 -312 l 1
 226 -196 l 1
 209 -183 197 -164 197 -140 c 0
 197 -102 227 -72 267 -72 c 0xe0
EndSplineSet
EndChar
StartChar: uni021B
Encoding: 539 539 473
Width: 375
Flags: W
HStem: -15 103<252.5 270.5> 437 92<5 88 5 88 216 326>
VStem: 88 128<158 161 161 437 529 646 646 646> 166 139<-151 -121>
LayerCount: 2
Fore
SplineSet
380 25 m 1xe0
 342 -2 294 -15 247 -15 c 0
 143 -14 88 45 88 158 c 2
 88 437 l 1
 5 437 l 1
 5 529 l 1
 88 529 l 1
 88 646 l 1
 216 661 l 1
 216 529 l 1
 339 529 l 1
 326 437 l 1
 216 437 l 1
 216 161 l 2
 216 109 233 88 272 88 c 0
 292 88 312 94 335 107 c 1
 380 25 l 1xe0
236 -72 m 0xd0
 275 -72 305 -101 305 -140 c 0
 305 -162 298 -180 278 -221 c 2
 234 -312 l 1
 167 -312 l 1
 195 -196 l 1
 178 -183 166 -164 166 -140 c 0
 166 -102 196 -72 236 -72 c 0xd0
EndSplineSet
EndChar
StartChar: uni021D
Encoding: 541 541 476
Width: 476
Flags: W
HStem: 220 88<131 186 186 214 131 220 123 186> 452 92<168.5 217.5>
VStem: 280 130<362 408.5> 303 134<157 180>
LayerCount: 2
Fore
SplineSet
209 544 m 0xe0
 317 544 410 492 410 394 c 0xe0
 410 330 374 292 298 273 c 1
 387 269 437 226 437 156 c 0
 437 40 301 -55 62 -105 c 1
 48 -18 l 1
 222 35 302 83 303 157 c 0
 303 203 272 220 220 220 c 2xd0
 123 220 l 1
 131 308 l 1
 186 308 l 2
 242 308 280 329 280 383 c 0
 280 434 242 452 193 452 c 0
 141 452 105 437 68 414 c 1
 8 483 l 1
 64 523 128 544 209 544 c 0xe0
EndSplineSet
EndChar
StartChar: uni0220
Encoding: 544 544 478
Width: 662
Flags: W
HStem: -206 21G<455 588 455 455> 0 21G<81 213 81 81> 604 102<363 397.5> 671 20G<81 196 196 196>
VStem: 81 132<0 525 0 691> 455 133<-206 494 494 517 -206 530.5>
LayerCount: 2
Fore
SplineSet
406 706 m 0xec
 530 706 588 624 588 517 c 2
 588 -206 l 1
 455 -206 l 1
 455 494 l 2
 455 567 429 604 366 604 c 0
 300 604 261 574 213 525 c 1xec
 213 0 l 1
 81 0 l 1
 81 691 l 1
 196 691 l 1xdc
 207 617 l 1
 261 673 320 706 406 706 c 0xec
EndSplineSet
EndChar
StartChar: uni0221
Encoding: 545 545 480
Width: 761
Flags: W
HStem: -15 97<248.5 280> -10 21G<536 536> 159 77<633 656> 448 96<255.5 285 191 310.5> 721 20G<517 517> 735 20G<389 389>
VStem: 43 135<197 328.5 197 345.5> 389 128<174 392 392 392 487 741> 677 97<113 137.5>
LayerCount: 2
Fore
SplineSet
658 236 m 0xb780
 725 236 774 194 774 126 c 0
 774 34 696 -15 592 -15 c 0xb780
 574 -15 555 -13 536 -10 c 1
 504 -80 l 1
 435 -52 l 1
 468 16 l 1x7780
 443 31 421 53 407 83 c 1
 370 23 316 -15 244 -15 c 0
 112 -15 43 96 43 264 c 0
 43 427 124 544 258 544 c 0
 312 544 356 520 389 487 c 1
 389 755 l 1xb780
 517 741 l 1xbb80
 517 167 l 2
 517 151 518 137 521 127 c 1
 553 200 590 236 658 236 c 0xb780
280 82 m 0
 328 82 359 106 390 151 c 1
 389 159 389 166 389 174 c 2
 389 392 l 1
 361 426 332 448 289 448 c 0
 222 448 178 392 178 265 c 0
 178 129 217 82 280 82 c 0
604 83 m 0
 653 83 677 98 677 128 c 0
 677 147 666 159 646 159 c 0
 620 159 603 142 577 84 c 1
 585 83 594 83 604 83 c 0
EndSplineSet
EndChar
StartChar: uni0222
Encoding: 546 546 480
Width: 651
Flags: W
HStem: -15 101<279 374.5 279 415> 338 98<285.5 367.5 285.5 374.5> 671 20G<86 218 218 218 434 568 568 568>
VStem: 43 139<173 252.5 173 254.5> 86 132<549 691> 434 134<547 549 549 691> 469 139<173.5 253>
LayerCount: 2
Fore
SplineSet
476 396 m 1xec
 561 364 608 301 608 214 c 0
 608 94 504 -15 326 -15 c 0
 148 -15 43 90 43 213 c 0xf2
 43 296 90 361 175 394 c 1
 116 426 86 479 86 549 c 2
 86 691 l 1
 218 691 l 1
 218 547 l 2
 218 480 245 436 326 436 c 0
 409 436 434 487 434 547 c 2
 434 691 l 1
 568 691 l 1
 568 549 l 2
 568 482 535 429 476 396 c 1xec
326 86 m 0xf2
 423 86 469 132 469 215 c 0
 469 291 423 338 326 338 c 0
 230 338 182 291 182 214 c 0
 182 132 232 86 326 86 c 0xf2
EndSplineSet
EndChar
StartChar: uni0223
Encoding: 547 547 482
Width: 578
Flags: W
HStem: -15 97<252.5 327.5 252.5 367.5> 360 89<261 319 261 327.5> 721 20G<81 208 208 208 371 498 498 498>
VStem: 43 134<173.5 266.5 173.5 266.5> 81 127<551 741> 371 127<538 551 551 741> 401 134<173.5 266.5>
LayerCount: 2
Fore
SplineSet
413 413 m 1xec
 492 383 535 318 535 220 c 0
 535 93 446 -15 289 -15 c 0
 133 -15 43 89 43 220 c 0xf2
 43 313 86 379 164 411 c 1
 109 440 81 487 81 551 c 2
 81 741 l 1
 208 741 l 1
 208 538 l 2
 208 484 232 449 290 449 c 0
 348 449 371 482 371 538 c 2
 371 741 l 1
 498 741 l 1
 498 551 l 2
 498 491 467 443 413 413 c 1xec
289 82 m 0xf2
 366 82 401 126 401 221 c 0
 401 312 366 360 289 360 c 0
 214 360 177 312 177 221 c 0
 177 126 216 82 289 82 c 0xf2
EndSplineSet
EndChar
StartChar: uni0224
Encoding: 548 548 483
Width: 531
Flags: W
HStem: -218 100<288 324.5 288 368> 0 108<177 365> 586 105<56 348 56 496>
VStem: 365 127<-51 -43 -43 0 0 0>
LayerCount: 2
Fore
SplineSet
496 691 m 1
 496 589 l 1
 177 108 l 1
 492 108 l 1
 492 -43 l 2
 492 -160 422 -218 314 -218 c 0
 254 -218 213 -199 185 -177 c 1
 230 -96 l 1
 253 -110 271 -118 305 -118 c 0
 344 -118 365 -97 365 -51 c 2
 365 0 l 1
 23 0 l 1
 23 101 l 1
 348 586 l 1
 56 586 l 1
 56 691 l 1
 496 691 l 1
EndSplineSet
EndChar
StartChar: uni0226
Encoding: 550 550 484
Width: 583
Flags: W
HStem: 0 21G<-5 132 -5 -5 447 587 447 447> 160 100<201 377 201 404 175 377> 590 101<289 289> 671 20G<210 373 373 373> 768 155<267.5 315>
VStem: 211 161<823.5 867>
LayerCount: 2
Fore
SplineSet
291 768 m 0xdc
 244 768 211 802 211 845 c 0
 211 889 244 923 291 923 c 0
 339 923 372 889 372 845 c 0
 372 802 339 768 291 768 c 0xdc
447 0 m 1
 404 160 l 1
 175 160 l 1
 132 0 l 1
 -5 0 l 1
 210 691 l 1
 373 691 l 1
 587 0 l 1
 447 0 l 1
201 260 m 1
 377 260 l 1
 289 590 l 1xec
 201 260 l 1
EndSplineSet
EndChar
StartChar: uni0227
Encoding: 551 551 485
Width: 546
Flags: W
HStem: -15 93<215.5 237.5> 250 75<276 289 289 342> 447 97<235 277> 642 155<242.5 290>
VStem: 35 130<132.5 189 132.5 205.5> 186 161<697.5 741> 342 126<143 250 250 250 325 355 355 362>
LayerCount: 2
Fore
SplineSet
266 642 m 0xfc
 219 642 186 676 186 719 c 0
 186 763 219 797 266 797 c 0
 314 797 347 763 347 719 c 0
 347 676 314 642 266 642 c 0xfc
468 140 m 2xea
 468 97 482 82 508 72 c 1
 481 -13 l 1
 423 -8 385 13 364 64 c 1
 327 8 269 -15 206 -15 c 0
 100 -15 35 52 35 148 c 0
 35 263 122 325 276 325 c 2
 342 325 l 1
 342 355 l 2
 342 424 311 447 243 447 c 0
 207 447 156 437 103 419 c 1
 73 506 l 1
 138 531 205 544 265 544 c 0
 406 544 468 479 468 362 c 2
 468 140 l 2xea
240 78 m 0
 285 78 318 101 342 143 c 1
 342 250 l 1
 289 250 l 2
 206 250 165 220 165 158 c 0
 165 107 191 78 240 78 c 0
EndSplineSet
EndChar
StartChar: uni0228
Encoding: 552 552 486
Width: 530
Flags: W
HStem: -253 75<260.5 287 260.5 322> 0 99<213 244 320 486 320 320> 302 98<213 435 213 435> 593 98<213 468 213 213>
VStem: 81 132<99 302 400 593> 322 97<-156.5 -131>
LayerCount: 2
Fore
SplineSet
486 0 m 1
 320 0 l 1
 320 -52 l 1
 390 -59 419 -96 419 -144 c 0
 419 -211 362 -253 282 -253 c 0
 239 -253 202 -241 179 -225 c 1
 210 -162 l 1
 229 -172 248 -178 273 -178 c 0
 301 -178 322 -169 322 -144 c 0
 322 -118 295 -106 231 -106 c 1
 244 0 l 1
 81 0 l 1
 81 691 l 1
 482 691 l 1
 468 593 l 1
 213 593 l 1
 213 400 l 1
 435 400 l 1
 435 302 l 1
 213 302 l 1
 213 99 l 1
 486 99 l 1
 486 0 l 1
EndSplineSet
EndChar
StartChar: uni0229
Encoding: 553 553 487
Width: 549
Flags: W
HStem: -253 75<268.5 295 268.5 330> -13 21G<328 328> -13 95<328 328> -12 21G<251 251> 225 83<176 384 176 508 176 384> 453 91<251 317>
VStem: 43 133<225 225 225 308 225 341.5> 330 97<-156.5 -131> 384 127<308 314 314 357.5>
LayerCount: 2
Fore
SplineSet
511 277 m 0x9e80
 511 260 509 239 508 225 c 1x9e80
 176 225 l 1
 185 117 236 82 306 82 c 0
 353 82 392 97 438 129 c 1xaf
 491 56 l 1
 446 20 393 -7 328 -13 c 1
 328 -52 l 1
 398 -59 427 -96 427 -144 c 0
 427 -211 370 -253 290 -253 c 0
 247 -253 210 -241 187 -225 c 1
 218 -162 l 1
 237 -172 256 -178 281 -178 c 0
 309 -178 330 -169 330 -144 c 0
 330 -118 303 -106 239 -106 c 1xcf
 251 -12 l 1
 115 6 43 110 43 261 c 0
 43 422 128 544 278 544 c 0
 426 544 511 444 511 277 c 0x9e80
384 308 m 1
 384 314 l 2
 384 401 353 453 281 453 c 0
 221 453 183 413 176 308 c 1
 384 308 l 1
EndSplineSet
EndChar
StartChar: uni022A
Encoding: 554 554 489
Width: 691
Flags: W
HStem: -15 101<295.5 397.5 295.5 438.5> 605 101<294.5 398> 746 138<215 254.5 436.5 476> 923 91<203 494 203 494>
VStem: 43 139<252 438 252 458.5> 164 141<795.5 834> 203 291<923 1014 923 1014> 386 141<795.5 834> 509 139<252.5 438.5>
LayerCount: 2
Fore
SplineSet
494 923 m 1xda80
 203 923 l 1
 203 1014 l 1
 494 1014 l 1
 494 923 l 1xda80
235 884 m 0xf5
 274 884 305 853 305 815 c 0
 305 776 274 746 235 746 c 0
 195 746 164 776 164 815 c 0
 164 853 195 884 235 884 c 0xf5
456 884 m 0
 496 884 527 853 527 815 c 0
 527 776 496 746 456 746 c 0
 417 746 386 776 386 815 c 0
 386 853 417 884 456 884 c 0
346 706 m 0xd880
 531 706 648 577 648 346 c 0
 648 118 531 -15 346 -15 c 0
 161 -15 43 114 43 345 c 0
 43 572 161 706 346 706 c 0xd880
346 605 m 0
 243 605 182 531 182 345 c 0
 182 159 245 86 346 86 c 0
 449 86 509 159 509 346 c 0
 509 531 450 605 346 605 c 0
EndSplineSet
EndChar
StartChar: uni022C
Encoding: 556 556 491
Width: 691
Flags: W
HStem: -15 101<295.5 397.5 295.5 438.5> 605 101<294.5 398> 757 93<385.5 413.5 385.5 430> 803 93<277 306> 928 91<200 490 200 490>
VStem: 43 139<252 438 252 458.5> 456 34 509 139<252.5 438.5>
LayerCount: 2
Fore
SplineSet
490 928 m 1xef
 200 928 l 1
 200 1019 l 1
 490 1019 l 1
 490 928 l 1xef
404 757 m 0
 348 757 323 803 289 803 c 0
 265 803 252 787 236 758 c 1
 167 792 l 1
 191 849 231 896 287 896 c 0xdd
 346 896 368 850 403 850 c 0
 424 850 438 864 456 893 c 1
 524 860 l 1
 498 797 456 757 404 757 c 0
346 706 m 0xcd
 531 706 648 577 648 346 c 0
 648 118 531 -15 346 -15 c 0
 161 -15 43 114 43 345 c 0
 43 572 161 706 346 706 c 0xcd
346 605 m 0
 243 605 182 531 182 345 c 0
 182 159 245 86 346 86 c 0
 449 86 509 159 509 346 c 0
 509 531 450 605 346 605 c 0
EndSplineSet
EndChar
StartChar: uni022D
Encoding: 557 557 492
Width: 584
Flags: W
HStem: -15 97<254.5 329.5 254.5 370> 447 97<255.5 330> 595 93<331.5 359.5 331.5 376> 641 93<223 252> 678 20G<470 470> 781 91<146 436 146 436>
VStem: 43 135<201.5 327.5 201.5 348> 146 290<781 872 781 872> 406 135<202 328>
LayerCount: 2
Fore
SplineSet
436 781 m 1xe5
 146 781 l 1
 146 872 l 1
 436 872 l 1
 436 781 l 1xe5
350 595 m 0
 294 595 269 641 235 641 c 0
 211 641 198 625 182 596 c 1
 113 630 l 1
 137 687 177 734 233 734 c 0xd5
 292 734 314 688 349 688 c 0
 370 688 384 702 402 731 c 1xe5
 470 698 l 1xcd
 444 635 402 595 350 595 c 0
293 544 m 0xce80
 449 544 541 438 541 265 c 0
 541 98 448 -15 292 -15 c 0
 136 -15 43 91 43 265 c 0
 43 431 136 544 293 544 c 0xce80
293 447 m 0
 218 447 178 390 178 265 c 0
 178 138 217 82 292 82 c 0
 367 82 406 139 406 265 c 0
 406 391 367 447 293 447 c 0
EndSplineSet
EndChar
StartChar: uni022F
Encoding: 559 559 493
Width: 584
Flags: W
HStem: -15 97<254.5 329.5 254.5 370> 447 97<255.5 330> 642 155<267.5 315>
VStem: 43 135<201.5 327.5 201.5 348> 211 161<697.5 741> 406 135<202 328>
LayerCount: 2
Fore
SplineSet
291 797 m 0
 339 797 372 763 372 719 c 0
 372 676 339 642 291 642 c 0
 244 642 211 676 211 719 c 0
 211 763 244 797 291 797 c 0
293 544 m 0
 449 544 541 438 541 265 c 0
 541 98 448 -15 292 -15 c 0
 136 -15 43 91 43 265 c 0
 43 431 136 544 293 544 c 0
293 447 m 0
 218 447 178 390 178 265 c 0
 178 138 217 82 292 82 c 0
 367 82 406 139 406 265 c 0
 406 391 367 447 293 447 c 0
EndSplineSet
EndChar
StartChar: uni0230
Encoding: 560 560 495
Width: 691
Flags: W
HStem: -15 101<295.5 397.5 295.5 438.5> 605 101<294.5 398> 738 155<321.5 369> 924 91<202 493 202 493>
VStem: 43 139<252 438 252 458.5> 202 291<924 1015 924 1015> 265 161<793.5 837> 509 139<252.5 438.5>
LayerCount: 2
Fore
SplineSet
493 924 m 1xdd
 202 924 l 1
 202 1015 l 1
 493 1015 l 1
 493 924 l 1xdd
345 893 m 0xfb
 393 893 426 859 426 815 c 0
 426 772 393 738 345 738 c 0
 298 738 265 772 265 815 c 0
 265 859 298 893 345 893 c 0xfb
346 706 m 0
 531 706 648 577 648 346 c 0
 648 118 531 -15 346 -15 c 0
 161 -15 43 114 43 345 c 0
 43 572 161 706 346 706 c 0
346 605 m 0
 243 605 182 531 182 345 c 0
 182 159 245 86 346 86 c 0
 449 86 509 159 509 346 c 0
 509 531 450 605 346 605 c 0
EndSplineSet
EndChar
StartChar: uni0231
Encoding: 561 561 495
Width: 584
Flags: W
HStem: -15 97<254.5 329.5 254.5 370> 447 97<255.5 330> 599 154<267.5 315> 787 91<147 438 147 438>
VStem: 43 135<201.5 327.5 201.5 348> 147 291<787 878 787 878> 211 160<654 698> 406 135<202 328>
LayerCount: 2
Fore
SplineSet
438 787 m 1xf4
 147 787 l 1
 147 878 l 1
 438 878 l 1
 438 787 l 1xf4
291 753 m 0xfb
 339 753 371 720 371 676 c 0
 371 632 339 599 291 599 c 0
 244 599 211 632 211 676 c 0
 211 720 244 753 291 753 c 0xfb
293 544 m 0
 449 544 541 438 541 265 c 0
 541 98 448 -15 292 -15 c 0
 136 -15 43 91 43 265 c 0
 43 431 136 544 293 544 c 0
293 447 m 0
 218 447 178 390 178 265 c 0
 178 138 217 82 292 82 c 0
 367 82 406 139 406 265 c 0
 406 391 367 447 293 447 c 0
EndSplineSet
EndChar
StartChar: uni0232
Encoding: 562 562 496
Width: 574
Flags: W
HStem: 0 21G<220 354 220 220> 671 20G<-2 144 144 144 436 576 576 576> 787 91<141 432 141 432>
VStem: 141 291<787 878 787 878> 220 134<0 261 261 261>
LayerCount: 2
Fore
SplineSet
432 787 m 1xf0
 141 787 l 1
 141 878 l 1
 432 878 l 1
 432 787 l 1xf0
576 691 m 1
 354 262 l 1
 354 0 l 1
 220 0 l 1
 220 261 l 1xe8
 -2 691 l 1
 144 691 l 1
 290 370 l 1
 436 691 l 1
 576 691 l 1
EndSplineSet
EndChar
StartChar: uni0234
Encoding: 564 564 498
Width: 443
Flags: W
HStem: -15 98<282 311.5 282 326.5> -10 21G<219 219> 159 77<316 339> 721 20G<72 72> 735 20G<200 200>
VStem: 72 128<174 741 741 741> 360 97<113 137.5>
LayerCount: 2
Fore
SplineSet
341 236 m 0xae
 408 236 457 194 457 126 c 0
 457 34 379 -15 274 -15 c 0xae
 256 -15 237 -13 219 -10 c 1
 187 -80 l 1
 118 -52 l 1
 150 16 l 1
 105 44 72 93 72 174 c 2
 72 741 l 1x76
 200 755 l 1
 200 167 l 2
 200 151 201 137 204 127 c 1
 236 200 273 236 341 236 c 0xae
287 83 m 0
 336 83 360 98 360 128 c 0
 360 147 349 159 329 159 c 0
 303 159 286 142 260 84 c 1
 268 83 277 83 287 83 c 0
EndSplineSet
EndChar
StartChar: uni0236
Encoding: 566 566 500
Width: 459
Flags: W
HStem: -15 98<298 327.5 298 342.5> -10 21G<234 234> 159 77<331.5 355> 437 92<5 88 5 88 216 326>
VStem: 88 128<174 437 529 646 646 646> 375 97<113 137.5>
LayerCount: 2
Fore
SplineSet
357 236 m 0xbc
 424 236 472 194 472 126 c 0
 472 34 395 -15 290 -15 c 0xbc
 272 -15 253 -14 234 -10 c 1
 203 -80 l 1
 134 -52 l 1
 165 15 l 1x7c
 120 41 88 90 88 174 c 2
 88 437 l 1
 5 437 l 1
 5 529 l 1
 88 529 l 1
 88 646 l 1
 216 661 l 1
 216 529 l 1
 339 529 l 1
 326 437 l 1
 216 437 l 1
 216 167 l 2
 216 151 217 137 220 126 c 1
 251 199 289 236 357 236 c 0xbc
303 83 m 0
 352 83 375 98 375 128 c 0
 375 147 365 159 345 159 c 0
 318 159 302 142 276 84 c 1
 284 83 293 83 303 83 c 0
EndSplineSet
EndChar
StartChar: uni0237
Encoding: 567 567 501
Width: 279
Flags: W
HStem: -217 21G<11 11> 509 20G<76 204 204 204>
VStem: 76 128<39 47 47 529>
LayerCount: 2
Fore
SplineSet
204 529 m 1
 204 47 l 2
 204 -115 130 -169 11 -217 c 1
 -30 -124 l 1
 39 -92 76 -65 76 39 c 2
 76 529 l 1
 204 529 l 1
EndSplineSet
EndChar
StartChar: uni0238
Encoding: 568 568 502
Width: 863
Flags: W
HStem: -15 96<592 615 568 680> 0 21G<384 482 384 384> 448 96<246.5 267 183 292.5 605.5 620.5> 721 20G<369 369> 735 20G<497 497>
VStem: 43 135<197 328.5 197 345.5> 369 128<154 382 154 385 154 385 474 741 741 741> 379.5 107 685 134<198.5 335.5>
LayerCount: 2
Fore
SplineSet
636 544 m 0xae80
 748 544 819 442 819 265 c 0
 819 100 740 -15 620 -15 c 0
 564 -15 520 17 491 65 c 1xad80
 482 0 l 1
 384 0 l 1x6d80
 375 67 l 1xad80
 343 19 293 -15 234 -15 c 0
 112 -15 43 96 43 264 c 0
 43 427 123 544 243 544 c 0
 291 544 336 519 369 474 c 1
 369 741 l 1xb680
 497 755 l 1
 497 469 l 1
 530 516 575 544 636 544 c 0xae80
270 82 m 0
 308 82 339 105 369 150 c 1
 369 385 l 1
 342 426 311 448 274 448 c 0
 219 448 178 392 178 265 c 0
 178 129 217 82 270 82 c 0
590 81 m 0
 640 81 685 132 685 265 c 0
 685 406 646 448 595 448 c 0
 549 448 520 417 497 382 c 1
 497 154 l 1
 522 109 546 81 590 81 c 0
EndSplineSet
EndChar
StartChar: uni0239
Encoding: 569 569 503
Width: 863
Flags: W
HStem: -218 21G<369 369> -204 21G<497 497> -15 97<243 261> 448 81 448 96<247.5 272.5 186 293.5 605 624>
VStem: 43 135<197 328.5 197 345.5> 369 128<-204 56 -204 57 -204 57 150 378 378 378> 381.5 103 685 134<201 332>
LayerCount: 2
Fore
SplineSet
633 544 m 0x6e80
 760 544 819 435 819 266 c 0
 819 104 744 -15 622 -15 c 0
 577 -15 533 4 497 56 c 1
 497 -204 l 1x6e80
 369 -218 l 1
 369 57 l 1xae80
 337 13 289 -15 233 -15 c 0
 112 -15 43 96 43 264 c 0
 43 427 124 544 248 544 c 0
 297 544 343 520 378 467 c 1x6d80
 385 529 l 1
 481 529 l 1x7580
 488 462 l 1x6d80
 528 519 577 544 633 544 c 0x6e80
269 82 m 0
 308 82 339 105 369 150 c 1
 369 378 l 1
 341 426 312 448 275 448 c 0
 220 448 178 392 178 265 c 0
 178 129 217 82 269 82 c 0
586 83 m 0
 644 83 685 137 685 265 c 0
 685 399 651 448 597 448 c 0
 557 448 522 417 497 379 c 1
 497 148 l 1
 521 103 552 83 586 83 c 0
EndSplineSet
EndChar
StartChar: uni023B
Encoding: 571 571 506
Width: 568
Flags: W
HStem: -15 106<342.5 382 342.5 394> -7 21G<272 272> 604 102<304 355.5 260 356.5> 682 20G<404 404> 686 20G<260 355.5> 721 20G<469 469> 733 20G<418 418>
VStem: 43 139<291.5 440.5 291.5 463>
LayerCount: 2
Fore
SplineSet
493 147 m 1x8d
 555 69 l 1
 513 26 441 -15 347 -15 c 0xa3
 321 -15 295 -12 272 -7 c 1
 254 -72 l 1
 202 -60 l 1
 220 10 l 1
 112 58 43 173 43 347 c 0
 43 579 175 706 345 706 c 0x63
 366 706 386 704 404 702 c 1
 418 753 l 1x53
 469 741 l 1
 455 688 l 1
 489 676 518 657 547 633 c 1
 480 555 l 1
 463 568 446 579 429 587 c 1
 299 99 l 1
 316 94 333 91 352 91 c 0
 412 91 453 117 493 147 c 1x8d
352 604 m 0
 256 604 182 534 182 347 c 0
 182 236 209 165 252 127 c 1
 252 128 l 1
 378 602 l 1
 369 603 361 604 352 604 c 0
EndSplineSet
EndChar
StartChar: uni023C
Encoding: 572 572 507
Width: 478
Flags: W
HStem: -15 104<292 318 292 325> -10 21G<236 236> 443 101<261 297.5 214 298 214 306> 521 20G<332 332>
VStem: 43 136<226.5 325.5 226.5 344.5>
LayerCount: 2
Fore
SplineSet
298 89 m 0x98
 338 89 366 102 405 127 c 1
 462 46 l 1
 414 7 359 -15 291 -15 c 0xa8
 272 -15 254 -13 236 -10 c 1
 220 -72 l 1
 170 -60 l 1
 188 4 l 1
 96 42 43 133 43 260 c 0
 43 429 138 544 290 544 c 0x68
 305 544 319 543 332 541 c 1
 348 598 l 1
 398 586 l 1
 382 529 l 1
 411 519 437 504 462 482 c 1
 405 405 l 1
 389 417 373 426 356 433 c 1
 264 93 l 1
 275 90 286 89 298 89 c 0x98
298 443 m 2x68
 224 443 179 389 179 262 c 0
 179 191 193 146 218 119 c 1
 306 443 l 1
 298 443 l 2x68
EndSplineSet
EndChar
StartChar: uni023D
Encoding: 573 573 507
Width: 518
Flags: W
HStem: 0 108<225 487> 312 102<10 93 10 93 225 312> 671 20G<93 225 225 225>
VStem: 93 132<108 108 108 312 414 691>
LayerCount: 2
Fore
SplineSet
225 108 m 1
 502 108 l 1
 487 0 l 1
 93 0 l 1
 93 312 l 1
 10 312 l 1
 10 414 l 1
 93 414 l 1
 93 691 l 1
 225 691 l 1
 225 414 l 1
 312 414 l 1
 312 312 l 1
 225 312 l 1
 225 108 l 1
EndSplineSet
EndChar
StartChar: uni023E
Encoding: 574 574 508
Width: 530
Flags: W
HStem: 0 21G<204 325 204 204> 589 102<12 204 12 406 325 325 325 362 462 511 12 418> 737 20G<434 434>
VStem: 204 121<0 93 93 93 222 374 504 589>
LayerCount: 2
Fore
SplineSet
511 589 m 1
 418 589 l 1
 325 374 l 1
 325 0 l 1
 204 0 l 1
 204 93 l 1
 133 -72 l 1
 86 -52 l 1
 204 222 l 1
 204 589 l 1
 12 589 l 1
 12 691 l 1
 406 691 l 1
 434 757 l 1
 481 736 l 1
 462 691 l 1
 525 691 l 1
 511 589 l 1
325 504 m 1
 362 589 l 1
 325 589 l 1
 325 504 l 1
EndSplineSet
EndChar
StartChar: uni023F
Encoding: 575 575 509
Width: 476
Flags: W
HStem: -217 97<333 372> -15 95<228 238 228 228> 449 95<223.5 272.5>
VStem: 40 129<378.5 412 378.5 434> 317 132<121.5 165>
LayerCount: 2
Fore
SplineSet
363 -120 m 0
 387 -120 402 -115 418 -108 c 1
 449 -187 l 1
 428 -203 396 -217 348 -217 c 0
 198 -217 190 -49 27 55 c 0
 24 56 21 58 18 60 c 2
 72 132 l 1
 120 100 169 80 226 80 c 0
 282 80 317 101 317 142 c 0
 317 188 296 202 197 230 c 0
 88 260 40 312 40 390 c 0
 40 478 121 544 244 544 c 0
 320 544 382 520 432 481 c 1
 382 406 l 1
 338 434 296 449 249 449 c 0
 198 449 169 428 169 396 c 0
 169 361 190 345 280 320 c 0
 388 291 449 247 449 153 c 0
 449 43 343 -15 238 -15 c 2
 228 -15 l 1
 294 -65 303 -120 363 -120 c 0
EndSplineSet
EndChar
StartChar: uni0240
Encoding: 576 576 511
Width: 423
Flags: W
HStem: -217 97<339 396> 0 21G<18 18> 429 100<40 275 40 421>
VStem: 18 455<-187 92 -187 92>
LayerCount: 2
Fore
SplineSet
372 -217 m 0
 198 -217 226 -19 18 0 c 1
 18 92 l 1
 275 429 l 1
 40 429 l 1
 40 529 l 1
 421 529 l 1
 421 437 l 1
 139 73 l 1
 291 25 293 -120 385 -120 c 0
 410 -120 425 -115 441 -108 c 1
 473 -187 l 1
 451 -203 420 -217 372 -217 c 0
EndSplineSet
EndChar
StartChar: uni0243
Encoding: 579 579 513
Width: 626
Flags: W
HStem: 0 99<227 302> 172 76<17 94 17 94 227 361> 315 92<227 307 307 318 227 307> 594 97<227 275 275 288 227 227>
VStem: 94 133<99 172 99 172 99 172 248 315 407 594> 427 135<472 539> 453 138<160.5 245.5>
LayerCount: 2
Fore
SplineSet
434 366 m 1xfa
 512 351 591 314 591 199 c 0xfa
 591 47 470 0 302 0 c 2
 94 0 l 1
 94 172 l 1
 17 172 l 1
 17 248 l 1
 94 248 l 1
 94 691 l 1
 275 691 l 2
 454 691 562 641 562 515 c 0xfc
 562 429 499 380 434 366 c 1xfa
288 594 m 2
 227 594 l 1
 227 407 l 1
 307 407 l 2
 380 407 427 439 427 504 c 0xfc
 427 574 378 594 288 594 c 2
303 99 m 2xfa
 390 99 453 117 453 204 c 0
 453 287 394 315 318 315 c 2
 227 315 l 1
 227 248 l 1
 361 248 l 1
 361 172 l 1
 227 172 l 1
 227 99 l 1
 303 99 l 2xfa
EndSplineSet
EndChar
StartChar: uni0245
Encoding: 581 581 516
Width: 583
Flags: W
HStem: 0 21G<-5 132 -5 -5 447 587 447 447> 590 101<290 290> 671 20G<210 373 373 373>
VStem: -5 592<0 0>
LayerCount: 2
Fore
SplineSet
373 691 m 1xb0
 587 0 l 1
 447 0 l 1
 290 590 l 1xd0
 132 0 l 1
 -5 0 l 1
 210 691 l 1
 373 691 l 1xb0
EndSplineSet
EndChar
StartChar: uni0246
Encoding: 582 582 517
Width: 530
Flags: W
HStem: 0 99<81 218 273 486 213 247> 302 98<213 272 213 298 353 435 213 327> 593 98<213 213 213 349 430 468 81 404> 721 20G<443 443> 733 20G<391 391>
VStem: 81 132<99 99 99 302 400 593>
LayerCount: 2
Fore
SplineSet
273 99 m 1xec
 486 99 l 1
 486 0 l 1
 247 0 l 1
 228 -72 l 1
 175 -60 l 1
 191 0 l 1
 81 0 l 1
 81 691 l 1
 375 691 l 1
 391 753 l 1xec
 443 741 l 1xf4
 430 691 l 1
 482 691 l 1
 468 593 l 1
 404 593 l 1
 353 400 l 1
 435 400 l 1
 435 302 l 1
 327 302 l 1
 273 99 l 1xec
213 593 m 1
 213 400 l 1
 298 400 l 1
 349 593 l 1
 213 593 l 1
213 99 m 1
 218 99 l 1
 220 108 l 1
 272 302 l 1
 213 302 l 1
 213 99 l 1
EndSplineSet
EndChar
StartChar: uni0247
Encoding: 583 583 518
Width: 549
Flags: W
HStem: -15 97<295.5 329.5 295.5 335> -7 21G<223 223> 227 79<169 234 169 256 308 393 169 286> 455 89<247.5 283.5> 521 20G<320 320>
VStem: 43 126<227 227 227 306 227 341.5> 393 118<306 312 312 312>
LayerCount: 2
Fore
SplineSet
508 227 m 1xb6
 286 227 l 1
 249 91 l 1
 266 85 285 82 306 82 c 0
 353 82 392 97 438 129 c 1
 491 56 l 1
 439 14 375 -15 295 -15 c 0xb6
 269 -15 245 -12 223 -7 c 1
 206 -72 l 1
 157 -60 l 1
 176 9 l 1
 89 50 43 140 43 261 c 0
 43 422 128 544 278 544 c 0x76
 292 544 306 543 320 541 c 1
 335 598 l 1
 383 586 l 1
 368 529 l 1xae
 460 496 511 407 511 277 c 0
 511 260 509 241 508 227 c 1xb6
281 455 m 0
 214 455 177 413 169 306 c 1
 256 306 l 1
 297 454 l 1
 292 455 286 455 281 455 c 0
393 306 m 1
 393 312 l 2
 392 373 378 417 344 439 c 1
 308 306 l 1
 393 306 l 1
206 120 m 1
 234 227 l 1
 169 227 l 1
 173 177 186 143 206 120 c 1
EndSplineSet
EndChar
StartChar: uni0248
Encoding: 584 584 518
Width: 326
Flags: W
HStem: 292 102<17 102 17 102 235 319> 671 20G<102 235 235 235>
VStem: 102 133<106 292 394 691>
LayerCount: 2
Fore
SplineSet
319 394 m 1
 319 292 l 1
 235 292 l 1
 235 101 l 2
 235 -60 146 -118 32 -155 c 1
 -3 -60 l 1
 87 -25 102 19 102 106 c 2
 102 292 l 1
 17 292 l 1
 17 394 l 1
 102 394 l 1
 102 691 l 1
 235 691 l 1
 235 394 l 1
 319 394 l 1
EndSplineSet
EndChar
StartChar: uni0249
Encoding: 585 585 520
Width: 323
Flags: W
HStem: -217 21G<34 34> 195 102<11 98 11 98 226 313> 509 20G<98 226 226 226> 642 155<138.5 186>
VStem: 82 161<697.5 741> 98 128<39 47 47 195 297 529>
LayerCount: 2
Fore
SplineSet
162 642 m 0xf8
 115 642 82 676 82 719 c 0
 82 763 115 797 162 797 c 0
 210 797 243 763 243 719 c 0
 243 676 210 642 162 642 c 0xf8
313 297 m 1xe4
 313 195 l 1
 226 195 l 1
 226 47 l 2
 226 -115 152 -169 34 -217 c 1
 -7 -124 l 1
 61 -92 98 -65 98 39 c 2
 98 195 l 1
 11 195 l 1
 11 297 l 1
 98 297 l 1
 98 529 l 1
 226 529 l 1
 226 297 l 1
 313 297 l 1xe4
EndSplineSet
EndChar
StartChar: uni024A
Encoding: 586 586 521
Width: 671
Flags: W
HStem: -218 100<629.5 663.5 629.5 665.5> -15 100<291.5 345.5> 605 101<292.5 349 239 366> 671 20G<472 590 590 590>
VStem: 43 139<240 430 240 451> 458 132<-43 43 43 43 135 558 558 558>
LayerCount: 2
Fore
SplineSet
719 -97 m 1xec
 765 -177 l 1
 736 -199 695 -218 636 -218 c 0
 528 -218 458 -160 458 -43 c 2
 458 43 l 1
 423 8 377 -15 314 -15 c 0
 160 -15 43 105 43 332 c 0
 43 570 160 706 318 706 c 0
 380 706 429 682 466 648 c 1xec
 472 691 l 1
 590 691 l 1xdc
 590 -51 l 2
 590 -97 611 -118 648 -118 c 0
 679 -118 696 -110 719 -97 c 1xec
336 85 m 0
 386 85 425 102 458 135 c 1
 458 558 l 1
 428 586 391 605 341 605 c 0
 244 605 182 528 182 332 c 0
 182 148 247 85 336 85 c 0
EndSplineSet
EndChar
StartChar: uni024B
Encoding: 587 587 521
Width: 594
Flags: W
HStem: -218 21G<479 535.5> -218 102<479 553.5> -15 97<248.5 276> 448 96<255.5 286.5 191 310.5> 509 20G<406 517 517 517>
VStem: 43 135<197 328.5 197 345.5> 389 128<-82 -79 -79 59 59 59 150 392 392 392>
LayerCount: 2
Fore
SplineSet
577 -111 m 1x6e
 604 -200 l 1
 583 -210 552 -218 519 -218 c 0
 439 -218 389 -170 389 -82 c 2
 389 59 l 1
 357 15 308 -15 244 -15 c 0
 112 -15 43 96 43 264 c 0
 43 427 124 544 258 544 c 0
 315 544 361 519 399 477 c 1xb6
 406 529 l 1
 517 529 l 1
 517 -79 l 2
 517 -104 526 -116 547 -116 c 0
 560 -116 568 -114 577 -111 c 1x6e
280 82 m 0
 327 82 359 105 389 150 c 1
 389 392 l 1
 361 426 332 448 289 448 c 0
 222 448 178 392 178 265 c 0
 178 129 217 82 280 82 c 0
EndSplineSet
EndChar
StartChar: uni024C
Encoding: 588 588 523
Width: 624
Flags: W
HStem: 0 21G<93 226 93 93 462 614 462 462> 277 95<17 93 17 93 226 308 308 310> 595 96<226 297 226 226>
VStem: 93 133<0 277 0 277 372 595> 436 138<446.5 525.5>
LayerCount: 2
Fore
SplineSet
614 0 m 1
 462 0 l 1
 310 277 l 1
 226 277 l 1
 226 0 l 1
 93 0 l 1
 93 277 l 1
 17 277 l 1
 17 372 l 1
 93 372 l 1
 93 691 l 1
 299 691 l 2
 481 691 574 625 574 488 c 0
 574 394 528 338 434 301 c 1
 614 0 l 1
308 372 m 2
 390 372 436 405 436 488 c 0
 436 563 392 595 297 595 c 2
 226 595 l 1
 226 372 l 1
 308 372 l 2
EndSplineSet
EndChar
StartChar: uni024D
Encoding: 589 589 523
Width: 411
Flags: W
HStem: 0 21G<94 222 94 94> 202 92<10 94 10 94 225 312> 418 125<324 348> 509 20G<94 205 205 205> 536 7
VStem: 94 128<0 202 0 202 0 529>
LayerCount: 2
Fore
SplineSet
355 543 m 0xe4
 373 543 391 541 408 536 c 1xcc
 386 412 l 1
 370 416 357 418 339 418 c 0xe4
 277 418 245 375 225 294 c 1
 312 294 l 1
 312 202 l 1
 222 202 l 1
 222 0 l 1
 94 0 l 1
 94 202 l 1
 10 202 l 1
 10 294 l 1
 94 294 l 1
 94 529 l 1
 205 529 l 1xd4
 217 425 l 1
 242 501 293 543 355 543 c 0xe4
EndSplineSet
EndChar
StartChar: uni024E
Encoding: 590 590 525
Width: 574
Flags: W
HStem: 0 21G<221 354 221 221> 528 82<2 41 2 83 2 41 215 215 215 365 534 576> 528 163<2 83 2 2 -1 215 -1 365 492 576 492 492>
VStem: 221 133<0 261 261 261>
LayerCount: 2
Fore
SplineSet
576 691 m 1xb0
 534 610 l 1
 576 610 l 1xd0
 576 528 l 1
 492 528 l 1
 354 262 l 1
 354 0 l 1
 221 0 l 1
 221 261 l 1
 83 528 l 1
 2 528 l 1xb0
 2 610 l 1
 41 610 l 1xd0
 -1 691 l 1
 141 691 l 1xb0
 178 610 l 1
 403 610 l 1xd0
 440 691 l 1
 576 691 l 1xb0
290 363 m 1
 365 528 l 1
 215 528 l 1xb0
 290 363 l 1
EndSplineSet
EndChar
StartChar: uni024F
Encoding: 591 591 525
Width: 523
Flags: W
HStem: -218 21G<67 67> 0 21G<178 222 178 178> 312 79<11 54 11 79 11 54 203 203 203 323 468 510> 312 217<11 79 11 11 10 203 10 323 443 510 443 443>
VStem: 10 503<529 529>
LayerCount: 2
Fore
SplineSet
513 529 m 1xd8
 468 391 l 1
 510 391 l 1xe8
 510 312 l 1
 443 312 l 1
 341 -2 l 2
 302 -126 224 -206 67 -218 c 1
 53 -125 l 1
 158 -109 193 -75 222 0 c 1
 178 0 l 1
 79 312 l 1
 11 312 l 1xd8
 11 391 l 1
 54 391 l 1xe8
 10 529 l 1
 146 529 l 1xd8
 182 391 l 1
 344 391 l 1xe8
 381 529 l 1
 513 529 l 1xd8
262 85 m 1
 323 312 l 1
 203 312 l 1xd8
 262 85 l 1
EndSplineSet
EndChar
StartChar: Alpha
Encoding: 913 913 870
Width: 583
Flags: W
HStem: 0 21G<-5 132 -5 -5 447 587 447 447> 160 100<201 377 201 404 175 377> 590 101<289 289> 671 20G<210 373 373 373>
VStem: -5 592<0 0>
LayerCount: 2
Fore
SplineSet
447 0 m 1xd8
 404 160 l 1
 175 160 l 1
 132 0 l 1
 -5 0 l 1
 210 691 l 1
 373 691 l 1
 587 0 l 1
 447 0 l 1xd8
201 260 m 1
 377 260 l 1
 289 590 l 1xe8
 201 260 l 1
EndSplineSet
EndChar
StartChar: Gamma
Encoding: 915 915 872
Width: 509
Flags: W
HStem: 0 21G<81 213 81 81> 584 107<213 488 213 213>
VStem: 81 132<0 584 0 691 0 691>
LayerCount: 2
Fore
SplineSet
504 691 m 1
 488 584 l 1
 213 584 l 1
 213 0 l 1
 81 0 l 1
 81 691 l 1
 504 691 l 1
EndSplineSet
EndChar
StartChar: uni0396
Encoding: 918 918 532
Width: 534
Flags: W
HStem: 0 108<177 485> 586 105<56 348 56 496>
VStem: 23 476<0 108 101 108>
LayerCount: 2
Fore
SplineSet
496 691 m 1
 496 589 l 1
 177 108 l 1
 499 108 l 1
 485 0 l 1
 23 0 l 1
 23 101 l 1
 348 586 l 1
 56 586 l 1
 56 691 l 1
 496 691 l 1
EndSplineSet
EndChar
StartChar: uni039A
Encoding: 922 922 536
Width: 613
Flags: W
HStem: 0 21G<81 213 81 81 463 463 463 620> 671 20G<81 213 213 213 458 601 601 601>
VStem: 81 132<0 691 0 691>
LayerCount: 2
Fore
SplineSet
213 691 m 1
 213 0 l 1
 81 0 l 1
 81 691 l 1
 213 691 l 1
601 691 m 1
 362 378 l 1
 620 0 l 1
 463 0 l 1
 219 369 l 1
 458 691 l 1
 601 691 l 1
EndSplineSet
EndChar
StartChar: Xi
Encoding: 926 926 883
Width: 518
Flags: W
HStem: 0 117<37 482 37 482> 296 109<99 414 99 414> 578 113<37 462 37 478>
VStem: 37 445<0 117 0 117> 99 315<296 405 296 405>
LayerCount: 2
Fore
SplineSet
478 691 m 1xf0
 462 578 l 1
 37 578 l 1
 37 691 l 1
 478 691 l 1xf0
414 405 m 1xe8
 414 296 l 1
 99 296 l 1
 99 405 l 1
 414 405 l 1xe8
482 117 m 1
 482 0 l 1
 37 0 l 1
 37 117 l 1
 482 117 l 1
EndSplineSet
EndChar
StartChar: Pi
Encoding: 928 928 885
Width: 669
Flags: W
HStem: 0 21G<81 213 81 81 456 588 456 456> 586 105<213 456 213 213>
VStem: 81 132<0 586 0 691 0 691> 456 132<0 586 586 586>
LayerCount: 2
Fore
SplineSet
588 691 m 1
 588 0 l 1
 456 0 l 1
 456 586 l 1
 213 586 l 1
 213 0 l 1
 81 0 l 1
 81 691 l 1
 588 691 l 1
EndSplineSet
EndChar
StartChar: uni03A3
Encoding: 931 931 544
Width: 503
Flags: W
HStem: 0 102<176 473 176 473> 591 100<30 473 177 473 177 177>
VStem: 30 443<0 100 100 100 591 691>
LayerCount: 2
Fore
SplineSet
473 691 m 1
 473 591 l 1
 177 591 l 1
 360 373 l 1
 360 309 l 1
 176 102 l 1
 473 102 l 1
 473 0 l 1
 30 0 l 1
 30 100 l 1
 236 339 l 1
 30 591 l 1
 30 691 l 1
 473 691 l 1
EndSplineSet
EndChar
StartChar: Tau
Encoding: 932 932 888
Width: 530
Flags: W
HStem: 0 21G<198 331 198 198> 586 105<12 198 12 525 331 511 331 331>
VStem: 198 133<0 586 0 586>
LayerCount: 2
Fore
SplineSet
525 691 m 1
 511 586 l 1
 331 586 l 1
 331 0 l 1
 198 0 l 1
 198 586 l 1
 12 586 l 1
 12 691 l 1
 525 691 l 1
EndSplineSet
EndChar
StartChar: Phi
Encoding: 934 934 890
Width: 828
Flags: W
HStem: 0 21G<349 478 349 349> 73 85<349 354> 532 85<473 478> 532 159<354 354 473 473>
VStem: 25 135<288 402 288 431> 349 129<0 72 0 73 0 73 618 691> 354 119<158 532> 668 135<290 403.5>
LayerCount: 2
Fore
SplineSet
803 348 m 0xdb
 803 173 674 79 478 72 c 1
 478 0 l 1
 349 0 l 1
 349 73 l 1
 145 82 25 180 25 345 c 0
 25 517 154 611 349 618 c 1xed
 349 691 l 1
 478 691 l 1xdd
 478 617 l 1xed
 683 608 803 510 803 348 c 0xdb
160 345 m 0
 160 231 223 165 354 158 c 1
 354 532 l 1
 221 523 160 459 160 345 c 0
473 157 m 1
 607 166 668 232 668 348 c 0
 668 459 605 525 473 532 c 1
 473 157 l 1
EndSplineSet
EndChar
StartChar: Psi
Encoding: 936 936 892
Width: 712
Flags: W
HStem: 0 21G<289 422 289 289> 671 20G<27 155 155 155 294 417 417 417 557 686 686 686>
VStem: 27 128<428 429 429 691> 289 133<0 187 0 187> 294 123<284 691 284 691 284 691> 557 129<429 430 430 691>
LayerCount: 2
Fore
SplineSet
557 691 m 1xec
 686 691 l 1
 686 430 l 2
 686 286 592 205 422 187 c 1
 422 0 l 1
 289 0 l 1
 289 187 l 1xf4
 113 205 27 288 27 428 c 2
 27 691 l 1
 155 691 l 1
 155 429 l 2
 155 340 195 294 294 283 c 1
 294 691 l 1
 417 691 l 1
 417 284 l 1
 513 295 557 340 557 429 c 2
 557 691 l 1xec
EndSplineSet
EndChar
StartChar: gamma
Encoding: 947 947 896
Width: 496
Flags: W
HStem: -220 21G<189 189> -205 21G<291 291> 523 20G<106 106 367 367>
VStem: 157.5 123.17
LayerCount: 2
Fore
SplineSet
106 543 m 1x70
 153 484 212 355 248 136 c 1
 367 543 l 1
 494 516 l 1
 307 25 l 2
 277 -53 274 -110 291 -205 c 1x70
 189 -220 l 1xb0
 149 -139 147 -79 183 11 c 1
 118 259 55 423 -12 501 c 1
 106 543 l 1x70
EndSplineSet
EndChar
StartChar: epsilon
Encoding: 949 949 898
Width: 470
Flags: W
HStem: -15 95<240 297.5 240 298.5> 230 88<235.5 342 278 328> 452 92<247.5 297>
VStem: 39 134<133.5 181 133.5 188.5> 59 131<367.5 406.5 365 444>
LayerCount: 2
Fore
SplineSet
259 544 m 0xf0
 335 544 394 525 445 489 c 1
 389 419 l 1
 353 440 320 452 274 452 c 0
 221 452 190 428 190 385 c 0
 190 345 222 318 278 318 c 2xe8
 342 318 l 1
 328 230 l 1
 271 230 l 2
 200 230 173 206 173 156 c 0
 173 111 207 80 273 80 c 0
 322 80 362 95 406 123 c 1
 462 48 l 1
 411 9 339 -15 258 -15 c 0
 130 -15 39 42 39 147 c 0xf0
 39 230 90 271 176 282 c 1
 99 297 59 336 59 399 c 0xe8
 59 489 139 544 259 544 c 0xf0
EndSplineSet
EndChar
StartChar: zeta
Encoding: 950 950 899
Width: 405
Flags: W
HStem: -219 21G<251 251> 645 96<49 176 35 417> 661 80
VStem: 30 133<215 313 215 319> 288 134<-71 -32.5>
LayerCount: 2
Fore
SplineSet
417 741 m 1xd8
 434 667 l 1xb8
 226 493 163 369 163 257 c 0
 163 173 198 143 285 109 c 0
 366 76 422 44 422 -37 c 0
 422 -117 367 -169 251 -219 c 1
 201 -138 l 1
 252 -114 288 -92 288 -50 c 0
 288 -15 270 -2 197 28 c 0
 85 74 30 127 30 254 c 0
 30 384 135 548 318 661 c 1
 291 653 234 645 176 645 c 2
 35 645 l 1
 49 741 l 1
 417 741 l 1xd8
EndSplineSet
EndChar
StartChar: eta
Encoding: 951 951 900
Width: 582
Flags: W
HStem: -218 21G<513 513> -204 21G<385 385> 0 21G<82 210 82 82> 448 96<329.5 340> 524 20G<329.5 410>
VStem: 82 128<0 370 0 371 0 404> 385 128<-204 363 363 380 -218 395.5>
LayerCount: 2
Fore
SplineSet
363 544 m 0x76
 457 544 513 484 513 380 c 2
 513 -218 l 1xb6
 385 -204 l 1
 385 363 l 2
 385 428 360 448 320 448 c 0
 274 448 241 418 210 370 c 1x76
 210 0 l 1
 82 0 l 1
 82 371 l 2
 82 437 72 484 59 526 c 1x6e
 176 542 l 1
 186 523 195 498 202 459 c 1
 242 513 296 544 363 544 c 0x76
EndSplineSet
EndChar
StartChar: uni03B8
Encoding: 952 952 558
Width: 568
Flags: W
HStem: -15 97<247.5 321.5 247.5 361.5> 332 82<168 399 168 399> 658 97<247.5 322>
VStem: 43 125<332 332 332 414 332 493.5> 399 125<332 332 414 414>
LayerCount: 2
Fore
SplineSet
285 755 m 0
 441 755 524 619 524 372 c 0
 524 123 439 -15 284 -15 c 0
 128 -15 43 120 43 372 c 0
 43 615 128 755 285 755 c 0
285 658 m 0
 210 658 172 598 168 414 c 1
 399 414 l 1
 395 598 359 658 285 658 c 0
284 82 m 0
 359 82 395 141 399 332 c 1
 168 332 l 1
 174 140 211 82 284 82 c 0
EndSplineSet
EndChar
StartChar: iota
Encoding: 953 953 902
Width: 279
Flags: W
HStem: -15 21G<203 203> 509 20G<69 197 197 197>
VStem: 69 128<146 162 162 529>
LayerCount: 2
Fore
SplineSet
197 529 m 1
 197 162 l 2
 197 112 209 94 241 79 c 1
 203 -15 l 1
 112 5 69 48 69 146 c 2
 69 529 l 1
 197 529 l 1
EndSplineSet
EndChar
